<?xml version="1.0" encoding="utf-8"?>
<svg viewBox="512 512 512 512" width="512px" height="512px" xmlns="http://www.w3.org/2000/svg">
  <g id="anchor-circle" style="" transform="matrix(1.003922, 0, 0, 1.003922, 510.996002, 510.995972)">
    <g>
      <path class="cls-3" d="M256,1C115.18,1,1,115.18,1,256S115.18,511,256,511,511,396.82,511,256,396.82,1,256,1ZM410.21,313.7q0,1.07-.12,2.13c0,.46,0,.72,0,.72h0a72.93,72.93,0,0,1-8.41,28.38c-4.77,8.44-8.48,11.32-11.57,10.47s-3.16-3.11-3.8-4.81-2.92-2.47-2.92-2.47c-4.06,0-3.79.55-18.91,13s-34.66,21.33-49.91,29.5a233.69,233.69,0,0,0-36.24,23.53c-8.28,6.7-20.9,6.38-22.28,6.33s-14,.37-22.28-6.33a233.69,233.69,0,0,0-36.24-23.53c-15.25-8.17-34.79-17.08-49.91-29.5s-14.85-13-18.91-13c0,0-2.29.76-2.92,2.47s-.71,4-3.8,4.81-6.8-2-11.57-10.47A72.93,72.93,0,0,1,102,316.55h0s0-.26,0-.72q-.07-1.06-.12-2.13c-.21-4.59-.43-13.9.71-21.51,1.58-10.53.84-14.57,5.49-15.6,0,0,3-.32,4.1,1.52,4,6.85,7.72,14.3,20,23.49,0,0,9,6.59,14.38,9.25,3,1.51,2.33,5.51-.68,8.06a35.2,35.2,0,0,0-4.14,5.29c46.73,48.43,78.2,44.47,92.44,43.67,11.08-94.53,11.84-176.54,11.84-176.54s-8.4-8-43.52-8S161,190.2,149.81,190.2s-11.11-11.33-11.11-11.33c0-9.43,5.58-9.92,7.21-9.15s9.55,2.15,12.1,2.15,36.06-1.85,44.81-2.14,34.69-.83,37.78-.83c2.89,0,4.23-1.29,4.58-1.73a4.66,4.66,0,0,0,.88-2.64c0-1.59-.26-19.6-.27-20.07a27.89,27.89,0,1,1,20.42.28c0,2.36-.26,18.3-.27,19.79a4.66,4.66,0,0,0,.88,2.64c.35.44,1.69,1.73,4.58,1.73,3.09,0,29,.54,37.78.83s42.25,2.14,44.81,2.14,10.48-1.37,12.1-2.15,7.21-.28,7.21,9.15c0,0,0,11.33-11.11,11.33s-17.48-6.83-52.59-6.83-43.52,8-43.52,8,.76,82,11.84,176.54c14.24.8,45.71,4.76,92.44-43.67a35.2,35.2,0,0,0-4.14-5.29c-3-2.55-3.73-6.55-.68-8.06,5.42-2.66,14.38-9.25,14.38-9.25,12.27-9.19,15.94-16.64,20-23.49,1.08-1.84,4.1-1.52,4.1-1.52,4.65,1,3.91,5.07,5.49,15.6C410.64,299.8,410.42,309.11,410.21,313.7Z" style="fill: rgb(168, 207, 57);"/>
      <circle class="cls-3" cx="256.36" cy="118.64" r="10.19" transform="translate(20.66 274.33) rotate(-58.28)" style="fill: rgb(168, 207, 57);"/>
    </g>
  </g>
</svg>