<?xml version="1.0" encoding="utf-8"?>
<svg viewBox="0 0 615 259" xmlns="http://www.w3.org/2000/svg">
  <defs>
    <clipPath id="clip0">
      <path d="M0 0H615V259H0V0Z" fill="white"/>
    </clipPath>
    <clipPath id="clip-1">
      <path d="M0 0H615V259H0V0Z" fill="white"/>
    </clipPath>
    <clipPath id="clip-2">
      <path d="M0 0H615V259H0V0Z" fill="white"/>
    </clipPath>
  </defs>
  <g clip-path="url(#clip0)">
    <title>White</title>
    <rect x="294" width="24" height="5" fill="#FFFCF8"/>
    <path d="M919.482 1.43896H303.908V239.575H919.482V1.43896Z" fill="#FFFCF8"/>
    <path d="M303.908 1.43907C433.518 1.43907 460.963 -127.054 611.695 -127.054C762.428 -127.054 789.873 1.43907 919.482 1.43907" fill="#FFFCF8"/>
    <path d="M919.482 2.44618C856.689 2.44618 818.324 -27.051 777.515 -58.4188C734.264 -91.6572 689.432 -126.047 611.695 -126.047C533.814 -126.047 489.126 -91.6572 445.875 -58.4188C405.21 -27.1949 366.701 2.44618 303.908 2.44618V0.287857C365.982 0.287857 404.061 -29.0655 444.582 -60.1455C488.12 -93.5277 533.096 -128.061 611.695 -128.061C690.294 -128.061 735.27 -93.3838 778.808 -60.0016C819.186 -28.9216 857.408 0.431747 919.482 0.431747V2.44618Z" fill="#F4F0EB"/>
    <path d="M303.908 35.2528C454.209 35.2528 460.963 -93.24 611.695 -93.24C762.428 -93.24 769.181 35.2528 919.482 35.2528" fill="#FFFCF8"/>
    <path d="M919.482 36.4041C844.044 36.4041 803.954 3.59738 765.158 -28.0582C726.648 -59.5698 686.702 -92.0887 611.695 -92.0887C536.688 -92.0887 496.886 -59.5698 458.232 -28.0582C419.436 3.59738 379.346 36.4041 303.908 36.4041V34.2457C378.627 34.2457 418.43 1.72681 456.939 -29.641C495.736 -61.4404 535.97 -94.2471 611.695 -94.2471C687.421 -94.2471 727.654 -61.4404 766.451 -29.641C804.96 1.72681 844.763 34.2457 919.482 34.2457V36.4041Z" fill="#F4F0EB"/>
    <path d="M303.908 69.0665C461.681 69.0665 470.734 -59.4263 611.695 -59.4263C752.657 -59.4263 761.709 69.0665 919.482 69.0665" fill="#FFFCF8"/>
    <path d="M919.482 70.2178C838.009 70.2178 795.908 36.1161 755.243 3.02166C716.446 -28.49 679.805 -58.275 611.695 -58.275C543.585 -58.275 506.944 -28.49 468.147 3.02166C427.482 36.1161 385.381 70.2178 303.908 70.2178V68.0594C384.662 68.0594 426.477 34.1016 466.854 1.29498C505.938 -30.5045 542.867 -60.4333 611.695 -60.4333C680.523 -60.4333 717.452 -30.5045 756.536 1.29498C796.914 34.1016 838.728 68.0594 919.482 68.0594V70.2178Z" fill="#F4F0EB"/>
    <path d="M303.908 103.025C468.722 103.025 475.763 -25.4683 611.695 -25.4683C747.627 -25.4683 754.668 103.025 919.482 103.025" fill="#FFFCF8"/>
    <path d="M919.482 104.032C832.693 104.032 789.873 68.9228 748.346 34.9651C711.13 4.46062 675.925 -24.4611 611.695 -24.4611C547.321 -24.4611 512.26 4.31673 475.044 34.9651C433.661 68.9228 390.697 104.032 303.908 104.032V101.873C389.979 101.873 432.512 67.0523 473.607 33.2384C511.111 2.44618 546.603 -26.6194 611.695 -26.6194C676.787 -26.6194 712.279 2.44618 749.783 33.2384C790.878 67.0523 833.555 101.873 919.482 101.873V104.032Z" fill="#F4F0EB"/>
    <path d="M303.908 136.982C483.522 136.982 479.786 8.4895 611.695 8.4895C743.604 8.4895 739.868 136.982 919.482 136.982" fill="#FFFCF8"/>
    <path d="M919.482 137.989C822.347 137.989 777.659 99.715 738.287 66.045C704.232 36.9795 672.189 9.49671 611.695 9.49671C551.201 9.49671 519.158 36.9795 485.103 66.045C445.731 99.715 401.043 137.989 303.908 137.989V135.831C400.325 135.831 442.714 99.5712 483.666 64.4623C518.008 35.1089 550.339 7.33838 611.695 7.33838C673.051 7.33838 705.382 35.1089 739.724 64.4623C780.82 99.5712 823.209 135.831 919.482 135.831V137.989Z" fill="#F4F0EB"/>
    <path d="M303.908 170.796C513.123 170.796 476.912 42.3032 611.695 42.3032C746.478 42.3032 710.268 170.796 919.482 170.796" fill="#FFFCF8"/>
    <path d="M919.482 171.947C803.092 171.947 762.14 132.09 726.074 96.9811C696.617 68.3473 671.327 43.5984 611.695 43.5984C552.063 43.5984 526.63 68.3473 497.317 96.9811C461.25 132.09 420.442 171.947 303.908 171.947V169.789C419.436 169.789 459.957 130.219 495.736 95.3984C524.187 67.6278 551.201 41.2961 611.695 41.2961C672.189 41.2961 699.06 67.4839 727.654 95.3984C763.433 130.219 803.954 169.789 919.482 169.789V171.947Z" fill="#F4F0EB"/>
    <path d="M303.908 204.61C513.123 204.61 489.414 76.1172 611.695 76.1172C733.977 76.1172 710.268 204.61 919.482 204.61" fill="#FFFCF8"/>
    <path d="M919.482 205.761C800.506 205.761 756.967 164.753 718.458 128.493C689.289 101.01 664.143 77.2684 611.695 77.2684C559.104 77.2684 533.958 101.01 504.932 128.493C466.423 164.753 422.884 205.761 303.908 205.761V203.603C422.022 203.603 465.273 162.882 503.352 126.91C532.808 99.1396 558.242 75.1101 611.695 75.1101C665.148 75.1101 690.582 99.1396 720.038 126.91C758.117 162.882 801.368 203.603 919.482 203.603V205.761Z" fill="#F4F0EB"/>
    <path d="M346.872 238.424C476.194 238.424 501.34 109.931 611.695 109.931C722.05 109.931 747.196 238.424 876.519 238.424" fill="#FFFCF8"/>
    <path d="M876.519 239.575C808.84 239.575 769.756 204.898 731.965 171.228C697.192 140.292 664.286 111.082 611.695 111.082C559.104 111.082 526.199 140.292 491.425 171.228C453.634 204.754 414.55 239.575 346.872 239.575V237.417C413.688 237.417 452.485 203.027 489.988 169.645C525.193 138.421 558.242 108.924 611.695 108.924C665.148 108.924 698.341 138.421 733.402 169.645C770.905 202.883 809.702 237.417 876.519 237.417V239.575Z" fill="#F4F0EB"/>
    <path d="M311.667 1.43896H-303.908V239.575H311.667V1.43896Z" fill="#FFFCF8"/>
    <path d="M-303.908 1.43907C-174.298 1.43907 -146.853 -127.054 3.8797 -127.054C154.612 -127.054 182.057 1.43907 311.667 1.43907" fill="#FFFCF8"/>
    <path d="M311.667 2.44618C248.874 2.44618 210.508 -27.051 169.7 -58.4188C126.449 -91.6572 81.6169 -126.047 3.8797 -126.047C-74.0011 -126.047 -118.689 -91.6572 -161.94 -58.4188C-202.605 -27.1949 -241.114 2.44618 -303.908 2.44618V0.287857C-241.833 0.287857 -203.755 -29.0655 -163.234 -60.1455C-119.695 -93.5277 -74.7196 -128.061 3.8797 -128.061C82.479 -128.061 127.454 -93.3838 170.993 -60.0016C211.37 -28.9216 249.592 0.431747 311.667 0.431747V2.44618Z" fill="#F4F0EB"/>
    <path d="M-303.908 35.2528C-153.606 35.2528 -146.853 -93.24 3.8797 -93.24C154.612 -93.24 161.366 35.2528 311.667 35.2528" fill="#FFFCF8"/>
    <path d="M311.667 36.4041C236.229 36.4041 196.139 3.59738 157.342 -28.0582C118.833 -59.5698 78.8867 -92.0887 3.8797 -92.0887C-71.1273 -92.0887 -110.93 -59.5698 -149.583 -28.0582C-188.38 3.59738 -228.47 36.4041 -303.908 36.4041V34.2457C-229.188 34.2457 -189.386 1.72681 -150.876 -29.641C-112.079 -61.4404 -71.8458 -94.2471 3.8797 -94.2471C79.6052 -94.2471 119.839 -61.4404 158.636 -29.641C197.145 1.72681 236.948 34.2457 311.667 34.2457V36.4041Z" fill="#F4F0EB"/>
    <path d="M-303.908 69.0665C-146.134 69.0665 -137.082 -59.4263 3.8797 -59.4263C144.841 -59.4263 153.894 69.0665 311.667 69.0665" fill="#FFFCF8"/>
    <path d="M311.667 70.2178C230.194 70.2178 188.092 36.1161 147.428 3.02166C108.631 -28.49 71.9895 -58.275 3.8797 -58.275C-64.2301 -58.275 -100.872 -28.49 -139.668 3.02166C-180.333 36.1161 -222.435 70.2178 -303.908 70.2178V68.0594C-223.153 68.0594 -181.339 34.1016 -140.961 1.29498C-101.877 -30.5045 -64.9486 -60.4333 3.8797 -60.4333C72.708 -60.4333 109.637 -30.5045 148.721 1.29498C189.098 34.1016 230.912 68.0594 311.667 68.0594V70.2178Z" fill="#F4F0EB"/>
    <path d="M-303.908 103.025C-139.093 103.025 -132.053 -25.4683 3.8797 -25.4683C139.812 -25.4683 146.853 103.025 311.667 103.025" fill="#FFFCF8"/>
    <path d="M311.667 104.032C224.877 104.032 182.057 68.9228 140.53 34.9651C103.314 4.46062 68.1099 -24.4611 3.8797 -24.4611C-60.4941 -24.4611 -95.5549 4.31673 -132.771 34.9651C-174.154 68.9228 -217.118 104.032 -303.908 104.032V101.873C-217.836 101.873 -175.304 67.0523 -134.208 33.2384C-96.7044 2.44618 -61.2126 -26.6194 3.8797 -26.6194C68.972 -26.6194 104.464 2.44618 141.967 33.2384C183.063 67.0523 225.74 101.873 311.667 101.873V104.032Z" fill="#F4F0EB"/>
    <path d="M-303.908 136.982C-124.293 136.982 -128.029 8.4895 3.8797 8.4895C135.789 8.4895 132.053 136.982 311.667 136.982" fill="#FFFCF8"/>
    <path d="M311.667 137.989C214.532 137.989 169.843 99.715 130.472 66.045C96.4171 36.9795 64.3739 9.49671 3.8797 9.49671C-56.6145 9.49671 -88.6577 36.9795 -122.713 66.045C-162.084 99.715 -206.772 137.989 -303.908 137.989V135.831C-207.491 135.831 -165.102 99.5712 -124.15 64.4623C-89.8072 35.1089 -57.4766 7.33838 3.8797 7.33838C65.236 7.33838 97.5666 35.1089 131.909 64.4623C173.005 99.5712 215.394 135.831 311.667 135.831V137.989Z" fill="#F4F0EB"/>
    <path d="M-303.908 170.796C-94.6927 170.796 -130.903 42.3032 3.8797 42.3032C138.662 42.3032 102.452 170.796 311.667 170.796" fill="#FFFCF8"/>
    <path d="M311.667 171.947C195.277 171.947 154.325 132.09 118.258 96.9811C88.8014 68.3473 63.5117 43.5984 3.8797 43.5984C-55.7523 43.5984 -81.1857 68.3473 -110.499 96.9811C-146.565 132.09 -187.374 171.947 -303.908 171.947V169.789C-188.38 169.789 -147.859 130.219 -112.079 95.3984C-83.6285 67.6278 -56.6145 41.2961 3.8797 41.2961C64.3739 41.2961 91.2442 67.4839 119.839 95.3984C155.618 130.219 196.139 169.789 311.667 169.789V171.947Z" fill="#F4F0EB"/>
    <path d="M-303.908 204.61C-94.6927 204.61 -118.402 76.1172 3.8797 76.1172C126.161 76.1172 102.452 204.61 311.667 204.61" fill="#FFFCF8"/>
    <path d="M311.667 205.761C192.69 205.761 149.152 164.753 110.643 128.493C81.4731 101.01 56.3271 77.2684 3.8797 77.2684C-48.7114 77.2684 -73.8575 101.01 -102.883 128.493C-141.393 164.753 -184.931 205.761 -303.908 205.761V203.603C-185.793 203.603 -142.542 162.882 -104.464 126.91C-75.007 99.1396 -49.5736 75.1101 3.8797 75.1101C57.333 75.1101 82.7664 99.1396 112.223 126.91C150.301 162.882 193.553 203.603 311.667 203.603V205.761Z" fill="#F4F0EB"/>
    <path d="M-260.944 238.424C-131.621 238.424 -106.475 109.931 3.87976 109.931C114.235 109.931 139.381 238.424 268.703 238.424" fill="#FFFCF8"/>
    <path d="M268.703 239.575C201.025 239.575 161.94 204.898 124.15 171.228C89.3763 140.292 56.4709 111.082 3.87976 111.082C-48.7113 111.082 -81.6167 140.292 -116.39 171.228C-154.181 204.754 -193.265 239.575 -260.944 239.575V237.417C-194.127 237.417 -155.331 203.027 -117.827 169.645C-82.6226 138.421 -49.5735 108.924 3.87976 108.924C57.333 108.924 90.5258 138.421 125.587 169.645C163.09 202.883 201.887 237.417 268.703 237.417V239.575Z" fill="#F4F0EB"/>
    <path d="M615.575 130.939H0V369.075H615.575V130.939Z" fill="#FFFCF8"/>
    <path d="M0 130.939C129.61 130.939 157.055 2.44604 307.787 2.44604C458.52 2.44604 485.965 130.939 615.575 130.939" fill="#FFFCF8"/>
    <path d="M615.575 131.946C552.782 131.946 514.416 102.449 473.607 71.0812C430.356 37.8428 385.525 3.4534 307.787 3.4534C229.907 3.4534 185.218 37.8428 141.967 71.0812C101.303 102.305 62.7932 131.946 0 131.946V129.788C62.0748 129.788 100.153 100.435 140.674 69.3545C184.213 35.9723 229.188 1.43896 307.787 1.43896C386.387 1.43896 431.362 36.1162 474.901 69.4984C515.278 100.578 553.5 129.932 615.575 129.932V131.946Z" fill="#F4F0EB"/>
    <path d="M0 164.753C150.301 164.753 157.055 36.26 307.787 36.26C458.52 36.26 465.273 164.753 615.575 164.753" fill="#FFFCF8"/>
    <path d="M615.575 165.904C540.137 165.904 500.047 133.097 461.25 101.442C422.741 69.9302 382.794 37.4113 307.787 37.4113C232.78 37.4113 192.978 69.9302 154.325 101.442C115.528 133.097 75.4381 165.904 0 165.904V163.746C74.7196 163.746 114.522 131.227 153.032 99.859C191.828 68.0596 232.062 35.2529 307.787 35.2529C383.513 35.2529 423.746 68.0596 462.543 99.859C501.053 131.227 540.855 163.746 615.575 163.746V165.904Z" fill="#F4F0EB"/>
    <path d="M0 198.567C157.773 198.567 166.826 70.0737 307.787 70.0737C448.749 70.0737 457.801 198.567 615.575 198.567" fill="#FFFCF8"/>
    <path d="M615.575 199.718C534.102 199.718 492 165.616 451.335 132.522C412.538 101.01 375.897 71.225 307.787 71.225C239.678 71.225 203.036 101.01 164.239 132.522C123.575 165.616 81.4731 199.718 0 199.718V197.559C80.7547 197.559 122.569 163.602 162.946 130.795C202.03 98.9955 238.959 69.0667 307.787 69.0667C376.616 69.0667 413.544 98.9955 452.628 130.795C493.006 163.602 534.82 197.559 615.575 197.559V199.718Z" fill="#F4F0EB"/>
    <path d="M0 232.525C164.814 232.525 171.855 104.032 307.787 104.032C443.72 104.032 450.76 232.525 615.575 232.525" fill="#FFFCF8"/>
    <path d="M615.575 233.532C528.785 233.532 485.965 198.423 444.438 164.465C407.222 133.961 372.161 105.039 307.787 105.039C243.414 105.039 208.353 133.817 171.137 164.465C129.753 198.423 86.7897 233.532 0 233.532V231.373C86.0713 231.373 128.604 196.552 169.7 162.738C207.203 131.946 242.695 102.881 307.787 102.881C372.88 102.881 408.371 131.946 445.875 162.738C486.971 196.552 529.647 231.373 615.575 231.373V233.532Z" fill="#F4F0EB"/>
    <path d="M0 266.482C179.614 266.482 175.878 137.99 307.787 137.99C439.696 137.99 435.96 266.482 615.575 266.482" fill="#FFFCF8"/>
    <path d="M615.575 267.489C518.439 267.489 473.751 229.215 434.38 195.545C400.325 166.479 368.282 138.997 307.787 138.997C247.293 138.997 215.25 166.479 181.195 195.545C141.824 229.215 97.1355 267.489 0 267.489V265.331C96.417 265.331 138.806 229.071 179.758 193.962C214.1 164.609 246.431 136.838 307.787 136.838C369.144 136.838 401.474 164.609 435.817 193.962C476.912 229.071 519.301 265.331 615.575 265.331V267.489Z" fill="#F4F0EB"/>
    <path d="M0 300.296C209.215 300.296 173.005 171.803 307.787 171.803C442.57 171.803 406.36 300.296 615.575 300.296" fill="#FFFCF8"/>
    <path d="M615.575 301.447C499.185 301.447 458.232 261.59 422.166 226.481C392.709 197.847 367.419 173.098 307.787 173.098C248.155 173.098 222.722 197.847 193.409 226.481C157.342 261.59 116.534 301.447 0 301.447V299.289C115.528 299.289 156.049 259.719 191.828 224.898C220.279 197.128 247.293 170.796 307.787 170.796C368.282 170.796 395.152 196.984 423.746 224.898C459.526 259.719 500.047 299.289 615.575 299.289V301.447Z" fill="#F4F0EB"/>
    <path d="M0 334.11C209.215 334.11 185.506 205.617 307.787 205.617C430.069 205.617 406.36 334.11 615.575 334.11" fill="#FFFCF8"/>
    <path d="M615.575 335.261C496.598 335.261 453.06 294.253 414.55 257.993C385.381 230.51 360.235 206.768 307.787 206.768C255.196 206.768 230.05 230.51 201.025 257.993C162.515 294.109 118.977 335.261 0 335.261V333.103C118.114 333.103 161.366 292.382 199.444 256.41C228.901 228.64 254.334 204.61 307.787 204.61C361.241 204.61 386.674 228.64 416.131 256.41C454.209 292.382 497.46 333.103 615.575 333.103V335.261Z" fill="#F4F0EB"/>
    <path d="M42.9636 367.924C172.286 367.924 197.432 239.431 307.787 239.431C418.142 239.431 443.288 367.924 572.611 367.924" fill="#FFFCF8"/>
    <path d="M572.611 369.075C504.932 369.075 465.848 334.398 428.057 300.728C393.284 269.792 360.378 240.582 307.787 240.582C255.196 240.582 222.291 269.792 187.517 300.728C149.726 334.254 110.642 369.075 42.9636 369.075V366.917C109.78 366.917 148.577 332.527 186.08 299.145C221.285 267.921 254.334 238.424 307.787 238.424C361.241 238.424 394.433 267.921 429.494 299.145C466.998 332.383 505.794 366.917 572.611 366.917V369.075Z" fill="#F4F0EB"/>
    <path d="M303.908 260.439C433.518 260.439 460.963 131.946 611.695 131.946C762.428 131.946 789.873 260.439 919.482 260.439" fill="#FFFCF8"/>
    <path d="M919.482 261.446C856.689 261.446 818.324 231.949 777.515 200.581C734.264 167.343 689.432 132.953 611.695 132.953C533.814 132.953 489.126 167.343 445.875 200.581C405.21 231.805 366.701 261.446 303.908 261.446V259.288C365.982 259.288 404.061 229.935 444.582 198.855C488.12 165.472 533.096 130.939 611.695 130.939C690.294 130.939 735.27 165.616 778.808 198.998C819.186 230.078 857.408 259.432 919.482 259.432V261.446Z" fill="#F4F0EB"/>
    <path d="M303.908 294.253C454.209 294.253 460.963 165.76 611.695 165.76C762.428 165.76 769.181 294.253 919.482 294.253" fill="#FFFCF8"/>
    <path d="M919.482 295.404C844.044 295.404 803.954 262.597 765.158 230.942C726.648 199.43 686.702 166.911 611.695 166.911C536.688 166.911 496.886 199.43 458.232 230.942C419.436 262.597 379.346 295.404 303.908 295.404V293.246C378.627 293.246 418.43 260.727 456.939 229.359C495.736 197.56 535.97 164.753 611.695 164.753C687.421 164.753 727.654 197.56 766.451 229.359C804.96 260.727 844.763 293.246 919.482 293.246V295.404Z" fill="#F4F0EB"/>
    <path d="M303.908 328.066C461.681 328.066 470.734 199.574 611.695 199.574C752.657 199.574 761.709 328.066 919.482 328.066" fill="#FFFCF8"/>
    <path d="M919.482 329.218C838.009 329.218 795.908 295.116 755.243 262.022C716.446 230.51 679.805 200.725 611.695 200.725C543.585 200.725 506.944 230.51 468.147 262.022C427.482 295.116 385.381 329.218 303.908 329.218V327.059C384.662 327.059 426.477 293.102 466.854 260.295C505.938 228.496 542.867 198.567 611.695 198.567C680.523 198.567 717.452 228.496 756.536 260.295C796.914 293.102 838.728 327.059 919.482 327.059V329.218Z" fill="#F4F0EB"/>
    <path d="M303.908 362.025C468.722 362.025 475.763 233.532 611.695 233.532C747.627 233.532 754.668 362.025 919.482 362.025" fill="#FFFCF8"/>
    <path d="M919.482 363.032C832.693 363.032 789.873 327.923 748.346 293.965C711.13 263.461 675.925 234.539 611.695 234.539C547.321 234.539 512.26 263.317 475.044 293.965C433.661 327.923 390.697 363.032 303.908 363.032V360.873C389.979 360.873 432.512 326.052 473.607 292.238C511.111 261.446 546.603 232.381 611.695 232.381C676.787 232.381 712.279 261.446 749.783 292.238C790.878 326.052 833.555 360.873 919.482 360.873V363.032Z" fill="#F4F0EB"/>
    <path d="M-303.908 260.439C-174.298 260.439 -146.853 131.946 3.8797 131.946C154.612 131.946 182.057 260.439 311.667 260.439" fill="#FFFCF8"/>
    <path d="M311.667 261.446C248.874 261.446 210.508 231.949 169.7 200.581C126.449 167.343 81.6169 132.953 3.8797 132.953C-74.0011 132.953 -118.689 167.343 -161.94 200.581C-202.605 231.805 -241.114 261.446 -303.908 261.446V259.288C-241.833 259.288 -203.755 229.935 -163.234 198.855C-119.695 165.472 -74.7196 130.939 3.8797 130.939C82.479 130.939 127.454 165.616 170.993 198.998C211.37 230.078 249.592 259.432 311.667 259.432V261.446Z" fill="#F4F0EB"/>
    <path d="M-303.908 294.253C-153.606 294.253 -146.853 165.76 3.8797 165.76C154.612 165.76 161.366 294.253 311.667 294.253" fill="#FFFCF8"/>
    <path d="M311.667 295.404C236.229 295.404 196.139 262.597 157.342 230.942C118.833 199.43 78.8867 166.911 3.8797 166.911C-71.1273 166.911 -110.93 199.43 -149.583 230.942C-188.38 262.597 -228.47 295.404 -303.908 295.404V293.246C-229.188 293.246 -189.386 260.727 -150.876 229.359C-112.079 197.56 -71.8458 164.753 3.8797 164.753C79.6052 164.753 119.839 197.56 158.636 229.359C197.145 260.727 236.948 293.246 311.667 293.246V295.404Z" fill="#F4F0EB"/>
    <path d="M-303.908 328.066C-146.134 328.066 -137.082 199.574 3.8797 199.574C144.841 199.574 153.894 328.066 311.667 328.066" fill="#FFFCF8"/>
    <path d="M311.667 329.218C230.194 329.218 188.092 295.116 147.428 262.022C108.631 230.51 71.9895 200.725 3.8797 200.725C-64.2301 200.725 -100.872 230.51 -139.668 262.022C-180.333 295.116 -222.435 329.218 -303.908 329.218V327.059C-223.153 327.059 -181.339 293.102 -140.961 260.295C-101.877 228.496 -64.9486 198.567 3.8797 198.567C72.708 198.567 109.637 228.496 148.721 260.295C189.098 293.102 230.912 327.059 311.667 327.059V329.218Z" fill="#F4F0EB"/>
    <path d="M-303.908 362.025C-139.093 362.025 -132.053 233.532 3.8797 233.532C139.812 233.532 146.853 362.025 311.667 362.025" fill="#FFFCF8"/>
    <path d="M311.667 363.032C224.877 363.032 182.057 327.923 140.53 293.965C103.314 263.461 68.1099 234.539 3.8797 234.539C-60.4941 234.539 -95.5549 263.317 -132.771 293.965C-174.154 327.923 -217.118 363.032 -303.908 363.032V360.873C-217.836 360.873 -175.304 326.052 -134.208 292.238C-96.7044 261.446 -61.2126 232.381 3.8797 232.381C68.972 232.381 104.464 261.446 141.967 292.238C183.063 326.052 225.74 360.873 311.667 360.873V363.032Z" fill="#F4F0EB"/>
  </g>
  <g clip-path="url(#clip-1)" style="">
    <title>Blue</title>
    <rect x="294" width="24" height="5" fill="#3650A2"/>
    <path d="M919.482 1.43896H303.908V239.575H919.482V1.43896Z" fill="#3650A2"/>
    <path d="M303.908 1.43907C433.518 1.43907 460.963 -127.054 611.695 -127.054C762.428 -127.054 789.873 1.43907 919.482 1.43907" fill="#3650A2"/>
    <path d="M919.482 2.44618C856.689 2.44618 818.324 -27.051 777.515 -58.4188C734.264 -91.6572 689.432 -126.047 611.695 -126.047C533.814 -126.047 489.126 -91.6572 445.875 -58.4188C405.21 -27.1949 366.701 2.44618 303.908 2.44618V0.287857C365.982 0.287857 404.061 -29.0655 444.582 -60.1455C488.12 -93.5277 533.096 -128.061 611.695 -128.061C690.294 -128.061 735.27 -93.3838 778.808 -60.0016C819.186 -28.9216 857.408 0.431747 919.482 0.431747V2.44618Z" fill="#2A4399"/>
    <path d="M303.908 35.2528C454.209 35.2528 460.963 -93.24 611.695 -93.24C762.428 -93.24 769.181 35.2528 919.482 35.2528" fill="#3650A2"/>
    <path d="M919.482 36.4041C844.044 36.4041 803.954 3.59738 765.158 -28.0582C726.648 -59.5698 686.702 -92.0887 611.695 -92.0887C536.688 -92.0887 496.886 -59.5698 458.232 -28.0582C419.436 3.59738 379.346 36.4041 303.908 36.4041V34.2457C378.627 34.2457 418.43 1.72681 456.939 -29.641C495.736 -61.4404 535.97 -94.2471 611.695 -94.2471C687.421 -94.2471 727.654 -61.4404 766.451 -29.641C804.96 1.72681 844.763 34.2457 919.482 34.2457V36.4041Z" fill="#2A4399"/>
    <path d="M303.908 69.0665C461.681 69.0665 470.734 -59.4263 611.695 -59.4263C752.657 -59.4263 761.709 69.0665 919.482 69.0665" fill="#3650A2"/>
    <path d="M919.482 70.2178C838.009 70.2178 795.908 36.1161 755.243 3.02166C716.446 -28.49 679.805 -58.275 611.695 -58.275C543.585 -58.275 506.944 -28.49 468.147 3.02166C427.482 36.1161 385.381 70.2178 303.908 70.2178V68.0594C384.662 68.0594 426.477 34.1016 466.854 1.29498C505.938 -30.5045 542.867 -60.4333 611.695 -60.4333C680.523 -60.4333 717.452 -30.5045 756.536 1.29498C796.914 34.1016 838.728 68.0594 919.482 68.0594V70.2178Z" fill="#2A4399"/>
    <path d="M303.908 103.025C468.722 103.025 475.763 -25.4683 611.695 -25.4683C747.627 -25.4683 754.668 103.025 919.482 103.025" fill="#3650A2"/>
    <path d="M919.482 104.032C832.693 104.032 789.873 68.9228 748.346 34.9651C711.13 4.46062 675.925 -24.4611 611.695 -24.4611C547.321 -24.4611 512.26 4.31673 475.044 34.9651C433.661 68.9228 390.697 104.032 303.908 104.032V101.873C389.979 101.873 432.512 67.0523 473.607 33.2384C511.111 2.44618 546.603 -26.6194 611.695 -26.6194C676.787 -26.6194 712.279 2.44618 749.783 33.2384C790.878 67.0523 833.555 101.873 919.482 101.873V104.032Z" fill="#2A4399"/>
    <path d="M303.908 136.983C483.522 136.983 479.786 8.48975 611.695 8.48975C743.604 8.48975 739.868 136.983 919.482 136.983" fill="#3650A2"/>
    <path d="M919.482 137.989C822.347 137.989 777.659 99.715 738.287 66.045C704.232 36.9795 672.189 9.49671 611.695 9.49671C551.201 9.49671 519.158 36.9795 485.103 66.045C445.731 99.715 401.043 137.989 303.908 137.989V135.831C400.325 135.831 442.714 99.5712 483.666 64.4623C518.008 35.1089 550.339 7.33838 611.695 7.33838C673.051 7.33838 705.382 35.1089 739.724 64.4623C780.82 99.5712 823.209 135.831 919.482 135.831V137.989Z" fill="#2A4399"/>
    <path d="M303.908 170.797C513.123 170.797 476.912 42.3037 611.695 42.3037C746.478 42.3037 710.268 170.797 919.482 170.797" fill="#3650A2"/>
    <path d="M919.482 171.948C803.092 171.948 762.14 132.09 726.074 96.9814C696.617 68.3475 671.327 43.5986 611.695 43.5986C552.063 43.5986 526.63 68.3475 497.317 96.9814C461.25 132.09 420.442 171.948 303.908 171.948V169.789C419.436 169.789 459.957 130.22 495.736 95.3986C524.187 67.6281 551.201 41.2964 611.695 41.2964C672.189 41.2964 699.06 67.4842 727.654 95.3986C763.433 130.22 803.954 169.789 919.482 169.789V171.948Z" fill="#2A4399"/>
    <path d="M303.908 204.61C513.123 204.61 489.414 76.1172 611.695 76.1172C733.977 76.1172 710.268 204.61 919.482 204.61" fill="#3650A2"/>
    <path d="M919.482 205.761C800.506 205.761 756.967 164.753 718.458 128.493C689.289 101.01 664.143 77.2682 611.695 77.2682C559.104 77.2682 533.958 101.01 504.932 128.493C466.423 164.753 422.884 205.761 303.908 205.761V203.603C422.022 203.603 465.273 162.882 503.352 126.91C532.808 99.1393 558.242 75.1099 611.695 75.1099C665.148 75.1099 690.582 99.1393 720.038 126.91C758.117 162.882 801.368 203.603 919.482 203.603V205.761Z" fill="#2A4399"/>
    <path d="M346.872 238.424C476.194 238.424 501.34 109.931 611.695 109.931C722.05 109.931 747.196 238.424 876.519 238.424" fill="#3650A2"/>
    <path d="M876.519 239.575C808.84 239.575 769.756 204.898 731.965 171.228C697.192 140.292 664.286 111.082 611.695 111.082C559.104 111.082 526.199 140.292 491.425 171.228C453.634 204.754 414.55 239.575 346.872 239.575V237.417C413.688 237.417 452.485 203.027 489.988 169.645C525.193 138.421 558.242 108.924 611.695 108.924C665.148 108.924 698.341 138.421 733.402 169.645C770.905 202.883 809.702 237.417 876.519 237.417V239.575Z" fill="#2A4399"/>
    <path d="M311.667 1.43896H-303.908V239.575H311.667V1.43896Z" fill="#3650A2"/>
    <path d="M-303.908 1.43907C-174.298 1.43907 -146.853 -127.054 3.8797 -127.054C154.612 -127.054 182.057 1.43907 311.667 1.43907" fill="#3650A2"/>
    <path d="M311.667 2.44618C248.874 2.44618 210.508 -27.051 169.7 -58.4188C126.449 -91.6572 81.6169 -126.047 3.8797 -126.047C-74.0011 -126.047 -118.689 -91.6572 -161.94 -58.4188C-202.605 -27.1949 -241.114 2.44618 -303.908 2.44618V0.287857C-241.833 0.287857 -203.755 -29.0655 -163.234 -60.1455C-119.695 -93.5277 -74.7196 -128.061 3.8797 -128.061C82.479 -128.061 127.454 -93.3838 170.993 -60.0016C211.37 -28.9216 249.592 0.431747 311.667 0.431747V2.44618Z" fill="#2A4399"/>
    <path d="M-303.908 35.2528C-153.606 35.2528 -146.853 -93.24 3.8797 -93.24C154.612 -93.24 161.366 35.2528 311.667 35.2528" fill="#3650A2"/>
    <path d="M311.667 36.4041C236.229 36.4041 196.139 3.59738 157.342 -28.0582C118.833 -59.5698 78.8867 -92.0887 3.8797 -92.0887C-71.1273 -92.0887 -110.93 -59.5698 -149.583 -28.0582C-188.38 3.59738 -228.47 36.4041 -303.908 36.4041V34.2457C-229.188 34.2457 -189.386 1.72681 -150.876 -29.641C-112.079 -61.4404 -71.8458 -94.2471 3.8797 -94.2471C79.6052 -94.2471 119.839 -61.4404 158.636 -29.641C197.145 1.72681 236.948 34.2457 311.667 34.2457V36.4041Z" fill="#2A4399"/>
    <path d="M-303.908 69.0665C-146.134 69.0665 -137.082 -59.4263 3.8797 -59.4263C144.841 -59.4263 153.894 69.0665 311.667 69.0665" fill="#3650A2"/>
    <path d="M311.667 70.2178C230.194 70.2178 188.092 36.1161 147.428 3.02166C108.631 -28.49 71.9895 -58.275 3.8797 -58.275C-64.2301 -58.275 -100.872 -28.49 -139.668 3.02166C-180.333 36.1161 -222.435 70.2178 -303.908 70.2178V68.0594C-223.153 68.0594 -181.339 34.1016 -140.961 1.29498C-101.877 -30.5045 -64.9486 -60.4333 3.8797 -60.4333C72.708 -60.4333 109.637 -30.5045 148.721 1.29498C189.098 34.1016 230.912 68.0594 311.667 68.0594V70.2178Z" fill="#2A4399"/>
    <path d="M-303.908 103.025C-139.093 103.025 -132.053 -25.4683 3.8797 -25.4683C139.812 -25.4683 146.853 103.025 311.667 103.025" fill="#3650A2"/>
    <path d="M311.667 104.032C224.877 104.032 182.057 68.9228 140.53 34.9651C103.314 4.46062 68.1099 -24.4611 3.8797 -24.4611C-60.4941 -24.4611 -95.5549 4.31673 -132.771 34.9651C-174.154 68.9228 -217.118 104.032 -303.908 104.032V101.873C-217.836 101.873 -175.304 67.0523 -134.208 33.2384C-96.7044 2.44618 -61.2126 -26.6194 3.8797 -26.6194C68.972 -26.6194 104.464 2.44618 141.967 33.2384C183.063 67.0523 225.74 101.873 311.667 101.873V104.032Z" fill="#2A4399"/>
    <path d="M-303.908 136.983C-124.293 136.983 -128.029 8.48975 3.8797 8.48975C135.789 8.48975 132.053 136.983 311.667 136.983" fill="#3650A2"/>
    <path d="M311.667 137.989C214.532 137.989 169.843 99.715 130.472 66.045C96.4171 36.9795 64.3739 9.49671 3.8797 9.49671C-56.6145 9.49671 -88.6577 36.9795 -122.713 66.045C-162.084 99.715 -206.772 137.989 -303.908 137.989V135.831C-207.491 135.831 -165.102 99.5712 -124.15 64.4623C-89.8072 35.1089 -57.4766 7.33838 3.8797 7.33838C65.236 7.33838 97.5666 35.1089 131.909 64.4623C173.005 99.5712 215.394 135.831 311.667 135.831V137.989Z" fill="#2A4399"/>
    <path d="M-303.908 170.797C-94.6927 170.797 -130.903 42.3037 3.8797 42.3037C138.662 42.3037 102.452 170.797 311.667 170.797" fill="#3650A2"/>
    <path d="M311.667 171.948C195.277 171.948 154.325 132.09 118.258 96.9814C88.8014 68.3475 63.5117 43.5986 3.8797 43.5986C-55.7523 43.5986 -81.1857 68.3475 -110.499 96.9814C-146.565 132.09 -187.374 171.948 -303.908 171.948V169.789C-188.38 169.789 -147.859 130.22 -112.079 95.3986C-83.6285 67.6281 -56.6145 41.2964 3.8797 41.2964C64.3739 41.2964 91.2442 67.4842 119.839 95.3986C155.618 130.22 196.139 169.789 311.667 169.789V171.948Z" fill="#2A4399"/>
    <path d="M-303.908 204.61C-94.6927 204.61 -118.402 76.1172 3.8797 76.1172C126.161 76.1172 102.452 204.61 311.667 204.61" fill="#3650A2"/>
    <path d="M311.667 205.761C192.69 205.761 149.152 164.753 110.643 128.493C81.4731 101.01 56.3271 77.2682 3.8797 77.2682C-48.7114 77.2682 -73.8575 101.01 -102.883 128.493C-141.393 164.753 -184.931 205.761 -303.908 205.761V203.603C-185.793 203.603 -142.542 162.882 -104.464 126.91C-75.007 99.1393 -49.5736 75.1099 3.8797 75.1099C57.333 75.1099 82.7664 99.1393 112.223 126.91C150.301 162.882 193.553 203.603 311.667 203.603V205.761Z" fill="#2A4399"/>
    <path d="M-260.944 238.424C-131.621 238.424 -106.475 109.931 3.87976 109.931C114.235 109.931 139.381 238.424 268.703 238.424" fill="#3650A2"/>
    <path d="M268.703 239.575C201.025 239.575 161.94 204.898 124.15 171.228C89.3763 140.292 56.4709 111.082 3.87976 111.082C-48.7113 111.082 -81.6167 140.292 -116.39 171.228C-154.181 204.754 -193.265 239.575 -260.944 239.575V237.417C-194.127 237.417 -155.331 203.027 -117.827 169.645C-82.6226 138.421 -49.5735 108.924 3.87976 108.924C57.333 108.924 90.5258 138.421 125.587 169.645C163.09 202.883 201.887 237.417 268.703 237.417V239.575Z" fill="#2A4399"/>
    <path d="M615.575 130.939H0V369.075H615.575V130.939Z" fill="#3650A2"/>
    <path d="M0 130.939C129.61 130.939 157.055 2.44629 307.787 2.44629C458.52 2.44629 485.965 130.939 615.575 130.939" fill="#3650A2"/>
    <path d="M615.575 131.946C552.782 131.946 514.416 102.449 473.607 71.0812C430.356 37.8428 385.525 3.4534 307.787 3.4534C229.907 3.4534 185.218 37.8428 141.967 71.0812C101.303 102.305 62.7932 131.946 0 131.946V129.788C62.0748 129.788 100.153 100.435 140.674 69.3545C184.213 35.9723 229.188 1.43896 307.787 1.43896C386.387 1.43896 431.362 36.1162 474.901 69.4984C515.278 100.578 553.5 129.932 615.575 129.932V131.946Z" fill="#2A4399"/>
    <path d="M0 164.753C150.301 164.753 157.055 36.2603 307.787 36.2603C458.52 36.2603 465.273 164.753 615.575 164.753" fill="#3650A2"/>
    <path d="M615.575 165.904C540.137 165.904 500.047 133.097 461.25 101.442C422.741 69.9302 382.794 37.4113 307.787 37.4113C232.78 37.4113 192.978 69.9302 154.325 101.442C115.528 133.097 75.4381 165.904 0 165.904V163.746C74.7196 163.746 114.522 131.227 153.032 99.859C191.828 68.0596 232.062 35.2529 307.787 35.2529C383.513 35.2529 423.746 68.0596 462.543 99.859C501.053 131.227 540.855 163.746 615.575 163.746V165.904Z" fill="#2A4399"/>
    <path d="M0 198.567C157.773 198.567 166.826 70.0742 307.787 70.0742C448.749 70.0742 457.801 198.567 615.575 198.567" fill="#3650A2"/>
    <path d="M615.575 199.718C534.102 199.718 492 165.616 451.335 132.522C412.538 101.01 375.897 71.2252 307.787 71.2252C239.678 71.2252 203.036 101.01 164.239 132.522C123.575 165.616 81.4731 199.718 0 199.718V197.56C80.7547 197.56 122.569 163.602 162.946 130.795C202.03 98.9958 238.959 69.0669 307.787 69.0669C376.616 69.0669 413.544 98.9958 452.628 130.795C493.006 163.602 534.82 197.56 615.575 197.56V199.718Z" fill="#2A4399"/>
    <path d="M0 232.525C164.814 232.525 171.855 104.032 307.787 104.032C443.72 104.032 450.76 232.525 615.575 232.525" fill="#3650A2"/>
    <path d="M615.575 233.532C528.785 233.532 485.965 198.423 444.438 164.465C407.222 133.961 372.161 105.039 307.787 105.039C243.414 105.039 208.353 133.817 171.137 164.465C129.753 198.423 86.7897 233.532 0 233.532V231.374C86.0713 231.374 128.604 196.553 169.7 162.739C207.203 131.946 242.695 102.881 307.787 102.881C372.88 102.881 408.371 131.946 445.875 162.739C486.971 196.553 529.647 231.374 615.575 231.374V233.532Z" fill="#2A4399"/>
    <path d="M0 266.482C179.614 266.482 175.878 137.989 307.787 137.989C439.696 137.989 435.96 266.482 615.575 266.482" fill="#3650A2"/>
    <path d="M615.575 267.489C518.439 267.489 473.751 229.215 434.38 195.545C400.325 166.479 368.282 138.997 307.787 138.997C247.293 138.997 215.25 166.479 181.195 195.545C141.824 229.215 97.1355 267.489 0 267.489V265.331C96.417 265.331 138.806 229.071 179.758 193.962C214.1 164.609 246.431 136.838 307.787 136.838C369.144 136.838 401.474 164.609 435.817 193.962C476.912 229.071 519.301 265.331 615.575 265.331V267.489Z" fill="#2A4399"/>
    <path d="M0 300.297C209.215 300.297 173.005 171.804 307.787 171.804C442.57 171.804 406.36 300.297 615.575 300.297" fill="#3650A2"/>
    <path d="M615.575 301.447C499.185 301.447 458.232 261.59 422.166 226.481C392.709 197.847 367.419 173.099 307.787 173.099C248.155 173.099 222.722 197.847 193.409 226.481C157.342 261.59 116.534 301.447 0 301.447V299.289C115.528 299.289 156.049 259.72 191.828 224.899C220.279 197.128 247.293 170.796 307.787 170.796C368.282 170.796 395.152 196.984 423.746 224.899C459.526 259.72 500.047 299.289 615.575 299.289V301.447Z" fill="#2A4399"/>
    <path d="M0 334.11C209.215 334.11 185.506 205.617 307.787 205.617C430.069 205.617 406.36 334.11 615.575 334.11" fill="#3650A2"/>
    <path d="M615.575 335.261C496.598 335.261 453.06 294.253 414.55 257.993C385.381 230.51 360.235 206.768 307.787 206.768C255.196 206.768 230.05 230.51 201.025 257.993C162.515 294.109 118.977 335.261 0 335.261V333.103C118.114 333.103 161.366 292.382 199.444 256.41C228.901 228.639 254.334 204.61 307.787 204.61C361.241 204.61 386.674 228.639 416.131 256.41C454.209 292.382 497.46 333.103 615.575 333.103V335.261Z" fill="#2A4399"/>
    <path d="M42.9636 367.924C172.286 367.924 197.432 239.431 307.787 239.431C418.142 239.431 443.288 367.924 572.611 367.924" fill="#3650A2"/>
    <path d="M572.611 369.075C504.932 369.075 465.848 334.398 428.057 300.728C393.284 269.792 360.378 240.582 307.787 240.582C255.196 240.582 222.291 269.792 187.517 300.728C149.726 334.254 110.642 369.075 42.9636 369.075V366.917C109.78 366.917 148.577 332.527 186.08 299.145C221.285 267.921 254.334 238.424 307.787 238.424C361.241 238.424 394.433 267.921 429.494 299.145C466.998 332.383 505.794 366.917 572.611 366.917V369.075Z" fill="#2A4399"/>
    <path d="M303.908 260.439C433.518 260.439 460.963 131.946 611.695 131.946C762.428 131.946 789.873 260.439 919.482 260.439" fill="#3650A2"/>
    <path d="M919.482 261.446C856.689 261.446 818.324 231.949 777.515 200.581C734.264 167.343 689.432 132.953 611.695 132.953C533.814 132.953 489.126 167.343 445.875 200.581C405.21 231.805 366.701 261.446 303.908 261.446V259.288C365.982 259.288 404.061 229.935 444.582 198.855C488.12 165.472 533.096 130.939 611.695 130.939C690.294 130.939 735.27 165.616 778.808 198.998C819.186 230.078 857.408 259.432 919.482 259.432V261.446Z" fill="#2A4399"/>
    <path d="M303.908 294.253C454.209 294.253 460.963 165.76 611.695 165.76C762.428 165.76 769.181 294.253 919.482 294.253" fill="#3650A2"/>
    <path d="M919.482 295.404C844.044 295.404 803.954 262.597 765.158 230.942C726.648 199.43 686.702 166.911 611.695 166.911C536.688 166.911 496.886 199.43 458.232 230.942C419.436 262.597 379.346 295.404 303.908 295.404V293.246C378.627 293.246 418.43 260.727 456.939 229.359C495.736 197.56 535.97 164.753 611.695 164.753C687.421 164.753 727.654 197.56 766.451 229.359C804.96 260.727 844.763 293.246 919.482 293.246V295.404Z" fill="#2A4399"/>
    <path d="M303.908 328.067C461.681 328.067 470.734 199.574 611.695 199.574C752.657 199.574 761.709 328.067 919.482 328.067" fill="#3650A2"/>
    <path d="M919.482 329.218C838.009 329.218 795.908 295.116 755.243 262.022C716.446 230.51 679.805 200.725 611.695 200.725C543.585 200.725 506.944 230.51 468.147 262.022C427.482 295.116 385.381 329.218 303.908 329.218V327.06C384.662 327.06 426.477 293.102 466.854 260.295C505.938 228.496 542.867 198.567 611.695 198.567C680.523 198.567 717.452 228.496 756.536 260.295C796.914 293.102 838.728 327.06 919.482 327.06V329.218Z" fill="#2A4399"/>
    <path d="M303.908 362.025C468.722 362.025 475.763 233.532 611.695 233.532C747.627 233.532 754.668 362.025 919.482 362.025" fill="#3650A2"/>
    <path d="M919.482 363.032C832.693 363.032 789.873 327.923 748.346 293.965C711.13 263.461 675.925 234.539 611.695 234.539C547.321 234.539 512.26 263.317 475.044 293.965C433.661 327.923 390.697 363.032 303.908 363.032V360.874C389.979 360.874 432.512 326.053 473.607 292.239C511.111 261.446 546.603 232.381 611.695 232.381C676.787 232.381 712.279 261.446 749.783 292.239C790.878 326.053 833.555 360.874 919.482 360.874V363.032Z" fill="#2A4399"/>
    <path d="M-303.908 260.439C-174.298 260.439 -146.853 131.946 3.8797 131.946C154.612 131.946 182.057 260.439 311.667 260.439" fill="#3650A2"/>
    <path d="M311.667 261.446C248.874 261.446 210.508 231.949 169.7 200.581C126.449 167.343 81.6169 132.953 3.8797 132.953C-74.0011 132.953 -118.689 167.343 -161.94 200.581C-202.605 231.805 -241.114 261.446 -303.908 261.446V259.288C-241.833 259.288 -203.755 229.935 -163.234 198.855C-119.695 165.472 -74.7196 130.939 3.8797 130.939C82.479 130.939 127.454 165.616 170.993 198.998C211.37 230.078 249.592 259.432 311.667 259.432V261.446Z" fill="#2A4399"/>
    <path d="M-303.908 294.253C-153.606 294.253 -146.853 165.76 3.8797 165.76C154.612 165.76 161.366 294.253 311.667 294.253" fill="#3650A2"/>
    <path d="M311.667 295.404C236.229 295.404 196.139 262.597 157.342 230.942C118.833 199.43 78.8867 166.911 3.8797 166.911C-71.1273 166.911 -110.93 199.43 -149.583 230.942C-188.38 262.597 -228.47 295.404 -303.908 295.404V293.246C-229.188 293.246 -189.386 260.727 -150.876 229.359C-112.079 197.56 -71.8458 164.753 3.8797 164.753C79.6052 164.753 119.839 197.56 158.636 229.359C197.145 260.727 236.948 293.246 311.667 293.246V295.404Z" fill="#2A4399"/>
    <path d="M-303.908 328.067C-146.134 328.067 -137.082 199.574 3.8797 199.574C144.841 199.574 153.894 328.067 311.667 328.067" fill="#3650A2"/>
    <path d="M311.667 329.218C230.194 329.218 188.092 295.116 147.428 262.022C108.631 230.51 71.9895 200.725 3.8797 200.725C-64.2301 200.725 -100.872 230.51 -139.668 262.022C-180.333 295.116 -222.435 329.218 -303.908 329.218V327.06C-223.153 327.06 -181.339 293.102 -140.961 260.295C-101.877 228.496 -64.9486 198.567 3.8797 198.567C72.708 198.567 109.637 228.496 148.721 260.295C189.098 293.102 230.912 327.06 311.667 327.06V329.218Z" fill="#2A4399"/>
    <path d="M-303.908 362.025C-139.093 362.025 -132.053 233.532 3.8797 233.532C139.812 233.532 146.853 362.025 311.667 362.025" fill="#3650A2"/>
    <path d="M311.667 363.032C224.877 363.032 182.057 327.923 140.53 293.965C103.314 263.461 68.1099 234.539 3.8797 234.539C-60.4941 234.539 -95.5549 263.317 -132.771 293.965C-174.154 327.923 -217.118 363.032 -303.908 363.032V360.874C-217.836 360.874 -175.304 326.053 -134.208 292.239C-96.7044 261.446 -61.2126 232.381 3.8797 232.381C68.972 232.381 104.464 261.446 141.967 292.239C183.063 326.053 225.74 360.874 311.667 360.874V363.032Z" fill="#2A4399"/>
  </g>
  <g clip-path="url(#clip-2)" style="visibility: hidden;">
    <title>Grey</title>
    <rect x="294" width="24" height="5" fill="#5B5E66"/>
    <path d="M919.482 1.43896H303.908V239.575H919.482V1.43896Z" fill="#5B5E66"/>
    <path d="M303.908 1.43907C433.518 1.43907 460.963 -127.054 611.695 -127.054C762.428 -127.054 789.873 1.43907 919.482 1.43907" fill="#5B5E66"/>
    <path d="M919.482 2.44618C856.689 2.44618 818.324 -27.051 777.515 -58.4188C734.264 -91.6572 689.432 -126.047 611.695 -126.047C533.814 -126.047 489.126 -91.6572 445.875 -58.4188C405.21 -27.1949 366.701 2.44618 303.908 2.44618V0.287857C365.982 0.287857 404.061 -29.0655 444.582 -60.1455C488.12 -93.5277 533.096 -128.061 611.695 -128.061C690.294 -128.061 735.27 -93.3838 778.808 -60.0016C819.186 -28.9216 857.408 0.431747 919.482 0.431747V2.44618Z" fill="#4D515C"/>
    <path d="M303.908 35.2528C454.209 35.2528 460.963 -93.24 611.695 -93.24C762.428 -93.24 769.181 35.2528 919.482 35.2528" fill="#5B5E66"/>
    <path d="M919.482 36.4041C844.044 36.4041 803.954 3.59738 765.158 -28.0582C726.648 -59.5698 686.702 -92.0887 611.695 -92.0887C536.688 -92.0887 496.886 -59.5698 458.232 -28.0582C419.436 3.59738 379.346 36.4041 303.908 36.4041V34.2457C378.627 34.2457 418.43 1.72681 456.939 -29.641C495.736 -61.4404 535.97 -94.2471 611.695 -94.2471C687.421 -94.2471 727.654 -61.4404 766.451 -29.641C804.96 1.72681 844.763 34.2457 919.482 34.2457V36.4041Z" fill="#4D515C"/>
    <path d="M303.908 69.0665C461.681 69.0665 470.734 -59.4263 611.695 -59.4263C752.657 -59.4263 761.709 69.0665 919.482 69.0665" fill="#5B5E66"/>
    <path d="M919.482 70.2178C838.009 70.2178 795.908 36.1161 755.243 3.02166C716.446 -28.49 679.805 -58.275 611.695 -58.275C543.585 -58.275 506.944 -28.49 468.147 3.02166C427.482 36.1161 385.381 70.2178 303.908 70.2178V68.0594C384.662 68.0594 426.477 34.1016 466.854 1.29498C505.938 -30.5045 542.867 -60.4333 611.695 -60.4333C680.523 -60.4333 717.452 -30.5045 756.536 1.29498C796.914 34.1016 838.728 68.0594 919.482 68.0594V70.2178Z" fill="#4D515C"/>
    <path d="M303.908 103.025C468.722 103.025 475.763 -25.4683 611.695 -25.4683C747.627 -25.4683 754.668 103.025 919.482 103.025" fill="#5B5E66"/>
    <path d="M919.482 104.032C832.693 104.032 789.873 68.9228 748.346 34.9651C711.13 4.46062 675.925 -24.4611 611.695 -24.4611C547.321 -24.4611 512.26 4.31673 475.044 34.9651C433.661 68.9228 390.697 104.032 303.908 104.032V101.873C389.979 101.873 432.512 67.0523 473.607 33.2384C511.111 2.44618 546.603 -26.6194 611.695 -26.6194C676.787 -26.6194 712.279 2.44618 749.783 33.2384C790.878 67.0523 833.555 101.873 919.482 101.873V104.032Z" fill="#4D515C"/>
    <path d="M303.908 136.982C483.522 136.982 479.786 8.4895 611.695 8.4895C743.604 8.4895 739.868 136.982 919.482 136.982" fill="#5B5E66"/>
    <path d="M919.482 137.989C822.347 137.989 777.659 99.715 738.287 66.045C704.232 36.9795 672.189 9.49671 611.695 9.49671C551.201 9.49671 519.158 36.9795 485.103 66.045C445.731 99.715 401.043 137.989 303.908 137.989V135.831C400.325 135.831 442.714 99.5712 483.666 64.4623C518.008 35.1089 550.339 7.33838 611.695 7.33838C673.051 7.33838 705.382 35.1089 739.724 64.4623C780.82 99.5712 823.209 135.831 919.482 135.831V137.989Z" fill="#4D515C"/>
    <path d="M303.908 170.796C513.123 170.796 476.912 42.3032 611.695 42.3032C746.478 42.3032 710.268 170.796 919.482 170.796" fill="#5B5E66"/>
    <path d="M919.482 171.947C803.092 171.947 762.14 132.09 726.074 96.9811C696.617 68.3473 671.327 43.5984 611.695 43.5984C552.063 43.5984 526.63 68.3473 497.317 96.9811C461.25 132.09 420.442 171.947 303.908 171.947V169.789C419.436 169.789 459.957 130.219 495.736 95.3984C524.187 67.6278 551.201 41.2961 611.695 41.2961C672.189 41.2961 699.06 67.4839 727.654 95.3984C763.433 130.219 803.954 169.789 919.482 169.789V171.947Z" fill="#4D515C"/>
    <path d="M303.908 204.61C513.123 204.61 489.414 76.1172 611.695 76.1172C733.977 76.1172 710.268 204.61 919.482 204.61" fill="#5B5E66"/>
    <path d="M919.482 205.761C800.506 205.761 756.967 164.753 718.458 128.493C689.289 101.01 664.143 77.2684 611.695 77.2684C559.104 77.2684 533.958 101.01 504.932 128.493C466.423 164.753 422.884 205.761 303.908 205.761V203.603C422.022 203.603 465.273 162.882 503.352 126.91C532.808 99.1396 558.242 75.1101 611.695 75.1101C665.148 75.1101 690.582 99.1396 720.038 126.91C758.117 162.882 801.368 203.603 919.482 203.603V205.761Z" fill="#4D515C"/>
    <path d="M346.872 238.424C476.194 238.424 501.34 109.931 611.695 109.931C722.05 109.931 747.196 238.424 876.519 238.424" fill="#5B5E66"/>
    <path d="M876.519 239.575C808.84 239.575 769.756 204.898 731.965 171.228C697.192 140.292 664.286 111.082 611.695 111.082C559.104 111.082 526.199 140.292 491.425 171.228C453.634 204.754 414.55 239.575 346.872 239.575V237.417C413.688 237.417 452.485 203.027 489.988 169.645C525.193 138.421 558.242 108.924 611.695 108.924C665.148 108.924 698.341 138.421 733.402 169.645C770.905 202.883 809.702 237.417 876.519 237.417V239.575Z" fill="#4D515C"/>
    <path d="M311.667 1.43896H-303.908V239.575H311.667V1.43896Z" fill="#5B5E66"/>
    <path d="M-303.908 1.43907C-174.298 1.43907 -146.853 -127.054 3.8797 -127.054C154.612 -127.054 182.057 1.43907 311.667 1.43907" fill="#5B5E66"/>
    <path d="M311.667 2.44618C248.874 2.44618 210.508 -27.051 169.7 -58.4188C126.449 -91.6572 81.6169 -126.047 3.8797 -126.047C-74.0011 -126.047 -118.689 -91.6572 -161.94 -58.4188C-202.605 -27.1949 -241.114 2.44618 -303.908 2.44618V0.287857C-241.833 0.287857 -203.755 -29.0655 -163.234 -60.1455C-119.695 -93.5277 -74.7196 -128.061 3.8797 -128.061C82.479 -128.061 127.454 -93.3838 170.993 -60.0016C211.37 -28.9216 249.592 0.431747 311.667 0.431747V2.44618Z" fill="#4D515C"/>
    <path d="M-303.908 35.2528C-153.606 35.2528 -146.853 -93.24 3.8797 -93.24C154.612 -93.24 161.366 35.2528 311.667 35.2528" fill="#5B5E66"/>
    <path d="M311.667 36.4041C236.229 36.4041 196.139 3.59738 157.342 -28.0582C118.833 -59.5698 78.8867 -92.0887 3.8797 -92.0887C-71.1273 -92.0887 -110.93 -59.5698 -149.583 -28.0582C-188.38 3.59738 -228.47 36.4041 -303.908 36.4041V34.2457C-229.188 34.2457 -189.386 1.72681 -150.876 -29.641C-112.079 -61.4404 -71.8458 -94.2471 3.8797 -94.2471C79.6052 -94.2471 119.839 -61.4404 158.636 -29.641C197.145 1.72681 236.948 34.2457 311.667 34.2457V36.4041Z" fill="#4D515C"/>
    <path d="M-303.908 69.0665C-146.134 69.0665 -137.082 -59.4263 3.8797 -59.4263C144.841 -59.4263 153.894 69.0665 311.667 69.0665" fill="#5B5E66"/>
    <path d="M311.667 70.2178C230.194 70.2178 188.092 36.1161 147.428 3.02166C108.631 -28.49 71.9895 -58.275 3.8797 -58.275C-64.2301 -58.275 -100.872 -28.49 -139.668 3.02166C-180.333 36.1161 -222.435 70.2178 -303.908 70.2178V68.0594C-223.153 68.0594 -181.339 34.1016 -140.961 1.29498C-101.877 -30.5045 -64.9486 -60.4333 3.8797 -60.4333C72.708 -60.4333 109.637 -30.5045 148.721 1.29498C189.098 34.1016 230.912 68.0594 311.667 68.0594V70.2178Z" fill="#4D515C"/>
    <path d="M-303.908 103.025C-139.093 103.025 -132.053 -25.4683 3.8797 -25.4683C139.812 -25.4683 146.853 103.025 311.667 103.025" fill="#5B5E66"/>
    <path d="M311.667 104.032C224.877 104.032 182.057 68.9228 140.53 34.9651C103.314 4.46062 68.1099 -24.4611 3.8797 -24.4611C-60.4941 -24.4611 -95.5549 4.31673 -132.771 34.9651C-174.154 68.9228 -217.118 104.032 -303.908 104.032V101.873C-217.836 101.873 -175.304 67.0523 -134.208 33.2384C-96.7044 2.44618 -61.2126 -26.6194 3.8797 -26.6194C68.972 -26.6194 104.464 2.44618 141.967 33.2384C183.063 67.0523 225.74 101.873 311.667 101.873V104.032Z" fill="#4D515C"/>
    <path d="M-303.908 136.982C-124.293 136.982 -128.029 8.4895 3.8797 8.4895C135.789 8.4895 132.053 136.982 311.667 136.982" fill="#5B5E66"/>
    <path d="M311.667 137.989C214.532 137.989 169.843 99.715 130.472 66.045C96.4171 36.9795 64.3739 9.49671 3.8797 9.49671C-56.6145 9.49671 -88.6577 36.9795 -122.713 66.045C-162.084 99.715 -206.772 137.989 -303.908 137.989V135.831C-207.491 135.831 -165.102 99.5712 -124.15 64.4623C-89.8072 35.1089 -57.4766 7.33838 3.8797 7.33838C65.236 7.33838 97.5666 35.1089 131.909 64.4623C173.005 99.5712 215.394 135.831 311.667 135.831V137.989Z" fill="#4D515C"/>
    <path d="M-303.908 170.796C-94.6927 170.796 -130.903 42.3032 3.8797 42.3032C138.662 42.3032 102.452 170.796 311.667 170.796" fill="#5B5E66"/>
    <path d="M311.667 171.947C195.277 171.947 154.325 132.09 118.258 96.9811C88.8014 68.3473 63.5117 43.5984 3.8797 43.5984C-55.7523 43.5984 -81.1857 68.3473 -110.499 96.9811C-146.565 132.09 -187.374 171.947 -303.908 171.947V169.789C-188.38 169.789 -147.859 130.219 -112.079 95.3984C-83.6285 67.6278 -56.6145 41.2961 3.8797 41.2961C64.3739 41.2961 91.2442 67.4839 119.839 95.3984C155.618 130.219 196.139 169.789 311.667 169.789V171.947Z" fill="#4D515C"/>
    <path d="M-303.908 204.61C-94.6927 204.61 -118.402 76.1172 3.8797 76.1172C126.161 76.1172 102.452 204.61 311.667 204.61" fill="#5B5E66"/>
    <path d="M311.667 205.761C192.69 205.761 149.152 164.753 110.643 128.493C81.4731 101.01 56.3271 77.2684 3.8797 77.2684C-48.7114 77.2684 -73.8575 101.01 -102.883 128.493C-141.393 164.753 -184.931 205.761 -303.908 205.761V203.603C-185.793 203.603 -142.542 162.882 -104.464 126.91C-75.007 99.1396 -49.5736 75.1101 3.8797 75.1101C57.333 75.1101 82.7664 99.1396 112.223 126.91C150.301 162.882 193.553 203.603 311.667 203.603V205.761Z" fill="#4D515C"/>
    <path d="M-260.944 238.424C-131.621 238.424 -106.475 109.931 3.87976 109.931C114.235 109.931 139.381 238.424 268.703 238.424" fill="#5B5E66"/>
    <path d="M268.703 239.575C201.025 239.575 161.94 204.898 124.15 171.228C89.3763 140.292 56.4709 111.082 3.87976 111.082C-48.7113 111.082 -81.6167 140.292 -116.39 171.228C-154.181 204.754 -193.265 239.575 -260.944 239.575V237.417C-194.127 237.417 -155.331 203.027 -117.827 169.645C-82.6226 138.421 -49.5735 108.924 3.87976 108.924C57.333 108.924 90.5258 138.421 125.587 169.645C163.09 202.883 201.887 237.417 268.703 237.417V239.575Z" fill="#4D515C"/>
    <path d="M615.575 130.939H0V369.075H615.575V130.939Z" fill="#5B5E66"/>
    <path d="M0 130.939C129.61 130.939 157.055 2.44604 307.787 2.44604C458.52 2.44604 485.965 130.939 615.575 130.939" fill="#5B5E66"/>
    <path d="M615.575 131.946C552.782 131.946 514.416 102.449 473.607 71.0812C430.356 37.8428 385.525 3.4534 307.787 3.4534C229.907 3.4534 185.218 37.8428 141.967 71.0812C101.303 102.305 62.7932 131.946 0 131.946V129.788C62.0748 129.788 100.153 100.435 140.674 69.3545C184.213 35.9723 229.188 1.43896 307.787 1.43896C386.387 1.43896 431.362 36.1162 474.901 69.4984C515.278 100.578 553.5 129.932 615.575 129.932V131.946Z" fill="#4D515C"/>
    <path d="M0 164.753C150.301 164.753 157.055 36.26 307.787 36.26C458.52 36.26 465.273 164.753 615.575 164.753" fill="#5B5E66"/>
    <path d="M615.575 165.904C540.137 165.904 500.047 133.097 461.25 101.442C422.741 69.9302 382.794 37.4113 307.787 37.4113C232.78 37.4113 192.978 69.9302 154.325 101.442C115.528 133.097 75.4381 165.904 0 165.904V163.746C74.7196 163.746 114.522 131.227 153.032 99.859C191.828 68.0596 232.062 35.2529 307.787 35.2529C383.513 35.2529 423.746 68.0596 462.543 99.859C501.053 131.227 540.855 163.746 615.575 163.746V165.904Z" fill="#4D515C"/>
    <path d="M0 198.567C157.773 198.567 166.826 70.0737 307.787 70.0737C448.749 70.0737 457.801 198.567 615.575 198.567" fill="#5B5E66"/>
    <path d="M615.575 199.718C534.102 199.718 492 165.616 451.335 132.522C412.538 101.01 375.897 71.225 307.787 71.225C239.678 71.225 203.036 101.01 164.239 132.522C123.575 165.616 81.4731 199.718 0 199.718V197.559C80.7547 197.559 122.569 163.602 162.946 130.795C202.03 98.9955 238.959 69.0667 307.787 69.0667C376.616 69.0667 413.544 98.9955 452.628 130.795C493.006 163.602 534.82 197.559 615.575 197.559V199.718Z" fill="#4D515C"/>
    <path d="M0 232.525C164.814 232.525 171.855 104.032 307.787 104.032C443.72 104.032 450.76 232.525 615.575 232.525" fill="#5B5E66"/>
    <path d="M615.575 233.532C528.785 233.532 485.965 198.423 444.438 164.465C407.222 133.961 372.161 105.039 307.787 105.039C243.414 105.039 208.353 133.817 171.137 164.465C129.753 198.423 86.7897 233.532 0 233.532V231.373C86.0713 231.373 128.604 196.552 169.7 162.738C207.203 131.946 242.695 102.881 307.787 102.881C372.88 102.881 408.371 131.946 445.875 162.738C486.971 196.552 529.647 231.373 615.575 231.373V233.532Z" fill="#4D515C"/>
    <path d="M0 266.482C179.614 266.482 175.878 137.99 307.787 137.99C439.696 137.99 435.96 266.482 615.575 266.482" fill="#5B5E66"/>
    <path d="M615.575 267.489C518.439 267.489 473.751 229.215 434.38 195.545C400.325 166.479 368.282 138.997 307.787 138.997C247.293 138.997 215.25 166.479 181.195 195.545C141.824 229.215 97.1355 267.489 0 267.489V265.331C96.417 265.331 138.806 229.071 179.758 193.962C214.1 164.609 246.431 136.838 307.787 136.838C369.144 136.838 401.474 164.609 435.817 193.962C476.912 229.071 519.301 265.331 615.575 265.331V267.489Z" fill="#4D515C"/>
    <path d="M0 300.296C209.215 300.296 173.005 171.803 307.787 171.803C442.57 171.803 406.36 300.296 615.575 300.296" fill="#5B5E66"/>
    <path d="M615.575 301.447C499.185 301.447 458.232 261.59 422.166 226.481C392.709 197.847 367.419 173.098 307.787 173.098C248.155 173.098 222.722 197.847 193.409 226.481C157.342 261.59 116.534 301.447 0 301.447V299.289C115.528 299.289 156.049 259.719 191.828 224.898C220.279 197.128 247.293 170.796 307.787 170.796C368.282 170.796 395.152 196.984 423.746 224.898C459.526 259.719 500.047 299.289 615.575 299.289V301.447Z" fill="#4D515C"/>
    <path d="M0 334.11C209.215 334.11 185.506 205.617 307.787 205.617C430.069 205.617 406.36 334.11 615.575 334.11" fill="#5B5E66"/>
    <path d="M615.575 335.261C496.598 335.261 453.06 294.253 414.55 257.993C385.381 230.51 360.235 206.768 307.787 206.768C255.196 206.768 230.05 230.51 201.025 257.993C162.515 294.109 118.977 335.261 0 335.261V333.103C118.114 333.103 161.366 292.382 199.444 256.41C228.901 228.64 254.334 204.61 307.787 204.61C361.241 204.61 386.674 228.64 416.131 256.41C454.209 292.382 497.46 333.103 615.575 333.103V335.261Z" fill="#4D515C"/>
    <path d="M42.9636 367.924C172.286 367.924 197.432 239.431 307.787 239.431C418.142 239.431 443.288 367.924 572.611 367.924" fill="#5B5E66"/>
    <path d="M572.611 369.075C504.932 369.075 465.848 334.398 428.057 300.728C393.284 269.792 360.378 240.582 307.787 240.582C255.196 240.582 222.291 269.792 187.517 300.728C149.726 334.254 110.642 369.075 42.9636 369.075V366.917C109.78 366.917 148.577 332.527 186.08 299.145C221.285 267.921 254.334 238.424 307.787 238.424C361.241 238.424 394.433 267.921 429.494 299.145C466.998 332.383 505.794 366.917 572.611 366.917V369.075Z" fill="#4D515C"/>
    <path d="M303.908 260.439C433.518 260.439 460.963 131.946 611.695 131.946C762.428 131.946 789.873 260.439 919.482 260.439" fill="#5B5E66"/>
    <path d="M919.482 261.446C856.689 261.446 818.324 231.949 777.515 200.581C734.264 167.343 689.432 132.953 611.695 132.953C533.814 132.953 489.126 167.343 445.875 200.581C405.21 231.805 366.701 261.446 303.908 261.446V259.288C365.982 259.288 404.061 229.935 444.582 198.855C488.12 165.472 533.096 130.939 611.695 130.939C690.294 130.939 735.27 165.616 778.808 198.998C819.186 230.078 857.408 259.432 919.482 259.432V261.446Z" fill="#4D515C"/>
    <path d="M303.908 294.253C454.209 294.253 460.963 165.76 611.695 165.76C762.428 165.76 769.181 294.253 919.482 294.253" fill="#5B5E66"/>
    <path d="M919.482 295.404C844.044 295.404 803.954 262.597 765.158 230.942C726.648 199.43 686.702 166.911 611.695 166.911C536.688 166.911 496.886 199.43 458.232 230.942C419.436 262.597 379.346 295.404 303.908 295.404V293.246C378.627 293.246 418.43 260.727 456.939 229.359C495.736 197.56 535.97 164.753 611.695 164.753C687.421 164.753 727.654 197.56 766.451 229.359C804.96 260.727 844.763 293.246 919.482 293.246V295.404Z" fill="#4D515C"/>
    <path d="M303.908 328.066C461.681 328.066 470.734 199.574 611.695 199.574C752.657 199.574 761.709 328.066 919.482 328.066" fill="#5B5E66"/>
    <path d="M919.482 329.218C838.009 329.218 795.908 295.116 755.243 262.022C716.446 230.51 679.805 200.725 611.695 200.725C543.585 200.725 506.944 230.51 468.147 262.022C427.482 295.116 385.381 329.218 303.908 329.218V327.059C384.662 327.059 426.477 293.102 466.854 260.295C505.938 228.496 542.867 198.567 611.695 198.567C680.523 198.567 717.452 228.496 756.536 260.295C796.914 293.102 838.728 327.059 919.482 327.059V329.218Z" fill="#4D515C"/>
    <path d="M303.908 362.025C468.722 362.025 475.763 233.532 611.695 233.532C747.627 233.532 754.668 362.025 919.482 362.025" fill="#5B5E66"/>
    <path d="M919.482 363.032C832.693 363.032 789.873 327.923 748.346 293.965C711.13 263.461 675.925 234.539 611.695 234.539C547.321 234.539 512.26 263.317 475.044 293.965C433.661 327.923 390.697 363.032 303.908 363.032V360.873C389.979 360.873 432.512 326.052 473.607 292.238C511.111 261.446 546.603 232.381 611.695 232.381C676.787 232.381 712.279 261.446 749.783 292.238C790.878 326.052 833.555 360.873 919.482 360.873V363.032Z" fill="#4D515C"/>
    <path d="M-303.908 260.439C-174.298 260.439 -146.853 131.946 3.8797 131.946C154.612 131.946 182.057 260.439 311.667 260.439" fill="#5B5E66"/>
    <path d="M311.667 261.446C248.874 261.446 210.508 231.949 169.7 200.581C126.449 167.343 81.6169 132.953 3.8797 132.953C-74.0011 132.953 -118.689 167.343 -161.94 200.581C-202.605 231.805 -241.114 261.446 -303.908 261.446V259.288C-241.833 259.288 -203.755 229.935 -163.234 198.855C-119.695 165.472 -74.7196 130.939 3.8797 130.939C82.479 130.939 127.454 165.616 170.993 198.998C211.37 230.078 249.592 259.432 311.667 259.432V261.446Z" fill="#4D515C"/>
    <path d="M-303.908 294.253C-153.606 294.253 -146.853 165.76 3.8797 165.76C154.612 165.76 161.366 294.253 311.667 294.253" fill="#5B5E66"/>
    <path d="M311.667 295.404C236.229 295.404 196.139 262.597 157.342 230.942C118.833 199.43 78.8867 166.911 3.8797 166.911C-71.1273 166.911 -110.93 199.43 -149.583 230.942C-188.38 262.597 -228.47 295.404 -303.908 295.404V293.246C-229.188 293.246 -189.386 260.727 -150.876 229.359C-112.079 197.56 -71.8458 164.753 3.8797 164.753C79.6052 164.753 119.839 197.56 158.636 229.359C197.145 260.727 236.948 293.246 311.667 293.246V295.404Z" fill="#4D515C"/>
    <path d="M-303.908 328.066C-146.134 328.066 -137.082 199.574 3.8797 199.574C144.841 199.574 153.894 328.066 311.667 328.066" fill="#5B5E66"/>
    <path d="M311.667 329.218C230.194 329.218 188.092 295.116 147.428 262.022C108.631 230.51 71.9895 200.725 3.8797 200.725C-64.2301 200.725 -100.872 230.51 -139.668 262.022C-180.333 295.116 -222.435 329.218 -303.908 329.218V327.059C-223.153 327.059 -181.339 293.102 -140.961 260.295C-101.877 228.496 -64.9486 198.567 3.8797 198.567C72.708 198.567 109.637 228.496 148.721 260.295C189.098 293.102 230.912 327.059 311.667 327.059V329.218Z" fill="#4D515C"/>
    <path d="M-303.908 362.025C-139.093 362.025 -132.053 233.532 3.8797 233.532C139.812 233.532 146.853 362.025 311.667 362.025" fill="#5B5E66"/>
    <path d="M311.667 363.032C224.877 363.032 182.057 327.923 140.53 293.965C103.314 263.461 68.1099 234.539 3.8797 234.539C-60.4941 234.539 -95.5549 263.317 -132.771 293.965C-174.154 327.923 -217.118 363.032 -303.908 363.032V360.873C-217.836 360.873 -175.304 326.052 -134.208 292.238C-96.7044 261.446 -61.2126 232.381 3.8797 232.381C68.972 232.381 104.464 261.446 141.967 292.238C183.063 326.052 225.74 360.873 311.667 360.873V363.032Z" fill="#4D515C"/>
  </g>
</svg>