<?xml version="1.0" encoding="utf-8"?>
<svg width="152" height="152" viewBox="0 0 152 152" fill="none" xmlns="http://www.w3.org/2000/svg">
<path fill-rule="evenodd" clip-rule="evenodd" d="M80.9043 38.9853C78.9145 34.8973 73.0856 34.8973 71.0958 38.9853L51.0579 80.0879H61.4658L65.1074 72.6263H86.9055L90.547 80.0879H100.955L80.9043 38.9853ZM69.6609 63.2706L76 50.2733L82.3392 63.2706H69.6609Z" fill="white"/>
<path d="M90.5657 91.1654L90.553 91.1399C90.553 91.1463 90.553 91.159 90.553 91.1654C90.553 99.1882 84.0225 105.719 75.9996 105.719C67.9768 105.719 61.4463 99.1882 61.4463 91.1654H51.0894C51.0894 104.902 62.2626 116.076 75.9996 116.076C89.7367 116.076 100.91 104.902 100.91 91.1654H90.5657Z" fill="white"/>
<path d="M81.1846 84.4054H70.8213V114.615H81.1846V84.4054Z" fill="white"/>
<path d="M76 152C34.0938 152 0 117.906 0 76C0 34.0938 34.0938 0 76 0C117.906 0 152 34.0938 152 76C152 117.906 117.906 152 76 152ZM76 10.3633C39.808 10.3633 10.3633 39.808 10.3633 76C10.3633 112.192 39.808 141.637 76 141.637C112.192 141.637 141.637 112.192 141.637 76C141.637 39.808 112.192 10.3633 76 10.3633Z" fill="white"/>
</svg>
