<svg xmlns="http://www.w3.org/2000/svg" width="3.56in" height="0.22in" viewBox="0 0 256.17 15.9">
  <defs>
    <style>
      .cls-1 {
        fill: #142716;
      }
    </style>
  </defs>
  <title>anchor-icons-v001</title>
  <g id="Anchor-Text">
    <g>
      <g>
        <polygon class="cls-1" points="50.96 0.2 48.96 0.2 48.96 15.72 50.96 15.72 50.96 6.14 50.96 0.2"/>
        <polygon class="cls-1" points="59.02 0.2 59.02 12.48 52.69 2.84 52.69 6.09 59.02 15.72 61.02 15.72 61.02 0.2 59.02 0.2"/>
      </g>
      <polygon class="cls-1" points="8.19 0.48 5.92 0.48 0.17 15.72 2.33 15.72 3.17 13.4 7.04 2.73 9.88 10.57 6.02 10.57 5.46 12.13 10.45 12.13 11.75 15.72 13.91 15.72 8.19 0.48"/>
      <g>
        <rect class="cls-1" x="147.08" y="0.2" width="2" height="15.52"/>
        <polygon class="cls-1" points="156.97 0.2 156.97 6.91 150.82 6.91 150.82 8.54 156.97 8.54 156.97 15.72 158.99 15.72 158.99 0.2 156.97 0.2"/>
      </g>
      <path class="cls-1" d="M251.94,9.31A4.91,4.91,0,0,0,255,7.87a4.32,4.32,0,0,0,1.06-3,4.46,4.46,0,0,0-1.32-3.36,5.54,5.54,0,0,0-4-1.26h-5.11V15.72h2V1.94h2.93c2.28,0,3.41,1,3.41,3s-1.13,3-3.41,3h-1.19V9.38h.44l4.05,6.34h2.27Z"/>
      <path class="cls-1" d="M209,3.84A7.26,7.26,0,0,0,206.23,1a8,8,0,0,0-7.79,0,6.92,6.92,0,0,0-1.18.87l1.36,1.37a4.85,4.85,0,0,1,.85-.64,5.9,5.9,0,0,1,5.72,0,5.13,5.13,0,0,1,2,2.11A7,7,0,0,1,207.89,8a6.92,6.92,0,0,1-.71,3.2,5.19,5.19,0,0,1-2,2.13,5.93,5.93,0,0,1-5.72,0,5.11,5.11,0,0,1-2-2.13A6.84,6.84,0,0,1,196.77,8a6.87,6.87,0,0,1,.72-3.23l.06-.1-1.44-1.44c-.14.22-.29.43-.42.66a8.44,8.44,0,0,0-1,4.11,8.43,8.43,0,0,0,1,4.1,7.13,7.13,0,0,0,2.75,2.83,7.95,7.95,0,0,0,7.79,0A7.2,7.2,0,0,0,209,12.05a8.43,8.43,0,0,0,1-4.1A8.44,8.44,0,0,0,209,3.84Z"/>
      <g>
        <path class="cls-1" d="M100.63,3.22a4.83,4.83,0,0,1,.76-.59,5.11,5.11,0,0,1,2.72-.74,5.52,5.52,0,0,1,3.23.92,5.13,5.13,0,0,1,1.92,2.45h2.11a7.15,7.15,0,0,0-2.55-3.82A7.57,7.57,0,0,0,104.13,0a7.32,7.32,0,0,0-3.85,1,6.14,6.14,0,0,0-1,.78Z"/>
        <path class="cls-1" d="M107.34,13.09a5.51,5.51,0,0,1-3.23.91,5,5,0,0,1-2.72-.74,5.08,5.08,0,0,1-1.89-2.1A6.85,6.85,0,0,1,98.8,8a7,7,0,0,1,.7-3.23s0-.08.07-.13L98.1,3.14c-.15.23-.3.46-.43.71A8.78,8.78,0,0,0,96.73,8a8.59,8.59,0,0,0,.94,4.08,6.85,6.85,0,0,0,2.61,2.8,7.32,7.32,0,0,0,3.85,1,7.51,7.51,0,0,0,4.69-1.4,7.11,7.11,0,0,0,2.55-3.82h-2.11A5.16,5.16,0,0,1,107.34,13.09Z"/>
      </g>
    </g>
  </g>
</svg>
