<svg width="432" height="64" viewBox="0 0 432 64" fill="none" xmlns="http://www.w3.org/2000/svg">
<path d="M24.2539 6.88189C27.1694 -0.13826 37.2107 -0.136311 40.1309 6.88189L64.5433 62.4516H49.2545L43.9555 49.5484H20.0666L14.9414 62.4516H0L24.2539 6.88189ZM31.7939 19.2688L24.3232 38.1935H39.3515L31.7939 19.2688Z" fill="#3650A2"/>
<path d="M79.4162 6.70967C79.4162 3.85917 81.7497 1.54839 84.6283 1.54839H97.8323L123.98 43.871H124.153V1.54839H137.705V57.2903C137.705 60.1408 135.371 62.4516 132.493 62.4516H119.984L93.1414 19.0968H92.9677V62.4516H79.4162V6.70967Z" fill="#3650A2"/>
<path d="M199.158 17.3763C197.826 15.7706 196.176 14.5376 194.207 13.6774C192.296 12.8172 190.066 12.3871 187.518 12.3871C184.97 12.3871 182.595 12.8746 180.395 13.8495C178.252 14.8244 176.37 16.2007 174.748 17.9785C173.185 19.6989 171.94 21.7634 171.013 24.172C170.144 26.5806 169.71 29.19 169.71 32C169.71 34.8674 170.144 37.5054 171.013 39.914C171.94 42.2652 173.185 44.3297 174.748 46.1075C176.312 47.828 178.136 49.1756 180.221 50.1505C182.364 51.1254 184.651 51.6129 187.084 51.6129C189.863 51.6129 192.325 51.0394 194.467 49.8925C196.61 48.7455 198.377 47.1398 199.766 45.0753L211.059 53.4193C208.453 57.0323 205.152 59.6989 201.156 61.4194C197.16 63.1398 193.049 64 188.821 64C184.014 64 179.584 63.2545 175.53 61.7634C171.476 60.2724 167.973 58.1505 165.019 55.3979C162.065 52.5878 159.749 49.2043 158.07 45.2473C156.448 41.2903 155.637 36.8745 155.637 32C155.637 27.1254 156.448 22.7097 158.07 18.7527C159.749 14.7957 162.065 11.4409 165.019 8.68817C167.973 5.87813 171.476 3.7276 175.53 2.23656C179.584 0.745519 184.014 0 188.821 0C190.558 0 192.354 0.172041 194.207 0.516126C196.118 0.802864 197.971 1.29032 199.766 1.97849C201.62 2.66666 203.386 3.58423 205.065 4.73118C206.745 5.87814 208.251 7.28315 209.583 8.94623L199.158 17.3763Z" fill="#3650A2"/>
<path d="M227.093 1.54839H240.644V24.2581H266.965V1.54839H280.517V62.4516H266.965V36.129H240.644V62.4516H227.093V1.54839Z" fill="#3650A2"/>
<path d="M298.393 32C298.393 27.1254 299.204 22.7097 300.826 18.7527C302.505 14.7957 304.822 11.4409 307.775 8.68817C310.729 5.87813 314.232 3.7276 318.286 2.23656C322.34 0.745519 326.771 0 331.577 0C336.384 0 340.814 0.745519 344.868 2.23656C348.922 3.7276 352.426 5.87813 355.379 8.68817C358.333 11.4409 360.62 14.7957 362.242 18.7527C363.921 22.7097 364.761 27.1254 364.761 32C364.761 36.8745 363.921 41.2903 362.242 45.2473C360.62 49.2043 358.333 52.5878 355.379 55.3979C352.426 58.1505 348.922 60.2724 344.868 61.7634C340.814 63.2545 336.384 64 331.577 64C326.771 64 322.34 63.2545 318.286 61.7634C314.232 60.2724 310.729 58.1505 307.775 55.3979C304.822 52.5878 302.505 49.2043 300.826 45.2473C299.204 41.2903 298.393 36.8745 298.393 32ZM312.466 32C312.466 34.8674 312.901 37.5054 313.769 39.914C314.696 42.2652 315.999 44.3297 317.678 46.1075C319.358 47.828 321.356 49.1756 323.672 50.1505C326.047 51.1254 328.682 51.6129 331.577 51.6129C334.473 51.6129 337.079 51.1254 339.395 50.1505C341.77 49.1756 343.797 47.828 345.476 46.1075C347.156 44.3297 348.43 42.2652 349.298 39.914C350.225 37.5054 350.688 34.8674 350.688 32C350.688 29.19 350.225 26.5806 349.298 24.172C348.43 21.7634 347.156 19.6989 345.476 17.9785C343.797 16.2007 341.77 14.8244 339.395 13.8495C337.079 12.8746 334.473 12.3871 331.577 12.3871C328.682 12.3871 326.047 12.8746 323.672 13.8495C321.356 14.8244 319.358 16.2007 317.678 17.9785C315.999 19.6989 314.696 21.7634 313.769 24.172C312.901 26.5806 312.466 29.19 312.466 32Z" fill="#3650A2"/>
<path d="M382.659 6.70967C382.659 3.85917 384.992 1.54839 387.871 1.54839H406.461C409.588 1.54839 412.541 1.8638 415.321 2.49462C418.159 3.0681 420.62 4.07168 422.705 5.50537C424.848 6.88172 426.527 8.77419 427.743 11.1828C429.018 13.534 429.655 16.4875 429.655 20.043C429.655 24.3441 428.525 28.0143 426.267 31.0538C424.008 34.0358 420.707 35.9283 416.364 36.7312L432 62.4516H415.756L402.899 38.1075H396.21V62.4516H382.659V6.70967ZM396.21 26.7527H404.202C405.418 26.7527 406.692 26.724 408.024 26.6667C409.414 26.552 410.659 26.2939 411.76 25.8925C412.86 25.4337 413.758 24.7455 414.453 23.828C415.205 22.9104 415.582 21.6201 415.582 19.957C415.582 18.4086 415.263 17.1756 414.626 16.2581C413.989 15.3405 413.178 14.6523 412.194 14.1935C411.209 13.6774 410.08 13.3333 408.806 13.1613C407.532 12.9892 406.287 12.9032 405.071 12.9032H396.21V26.7527Z" fill="#3650A2"/>
</svg>
