<?xml version="1.0" encoding="utf-8"?>
<svg viewBox="0 0 660 170" xmlns="http://www.w3.org/2000/svg">
  <g transform="matrix(1, 0, 0, 1, 31.537998, -174.910004)">
    <path d="M 211.716 234.792 C 214.631 227.772 224.673 227.774 227.593 234.792 L 252.005 290.362 L 236.716 290.362 L 231.417 277.458 L 207.529 277.458 L 202.403 290.362 L 187.462 290.362 L 211.716 234.792 Z M 219.256 247.179 L 211.785 266.104 L 226.813 266.104 L 219.256 247.179 Z" fill="#3650A2"/>
    <path d="M 266.878 234.62 C 266.878 231.769 269.212 229.458 272.09 229.458 L 285.294 229.458 L 311.442 271.781 L 311.615 271.781 L 311.615 229.458 L 325.167 229.458 L 325.167 285.2 C 325.167 288.051 322.833 290.362 319.955 290.362 L 307.446 290.362 L 280.603 247.007 L 280.43 247.007 L 280.43 290.362 L 266.878 290.362 L 266.878 234.62 Z" fill="#3650A2"/>
    <path d="M 386.62 245.286 C 385.288 243.681 383.638 242.448 381.669 241.587 C 379.758 240.727 377.528 240.297 374.98 240.297 C 372.432 240.297 370.057 240.785 367.857 241.76 C 365.714 242.734 363.832 244.111 362.21 245.889 C 360.647 247.609 359.402 249.673 358.475 252.082 C 357.606 254.491 357.172 257.1 357.172 259.91 C 357.172 262.777 357.606 265.415 358.475 267.824 C 359.402 270.175 360.647 272.24 362.21 274.018 C 363.774 275.738 365.598 277.086 367.683 278.061 C 369.826 279.035 372.113 279.523 374.546 279.523 C 377.325 279.523 379.787 278.949 381.929 277.803 C 384.072 276.656 385.839 275.05 387.228 272.985 L 398.521 281.329 C 395.915 284.942 392.614 287.609 388.618 289.329 C 384.622 291.05 380.511 291.91 376.283 291.91 C 371.476 291.91 367.046 291.164 362.992 289.673 C 358.938 288.182 355.435 286.061 352.481 283.308 C 349.527 280.498 347.211 277.114 345.532 273.157 C 343.91 269.2 343.099 264.785 343.099 259.91 C 343.099 255.035 343.91 250.62 345.532 246.663 C 347.211 242.706 349.527 239.351 352.481 236.598 C 355.435 233.788 358.938 231.638 362.992 230.147 C 367.046 228.656 371.476 227.91 376.283 227.91 C 378.02 227.91 379.816 228.082 381.669 228.426 C 383.58 228.713 385.433 229.2 387.228 229.889 C 389.082 230.577 390.848 231.494 392.527 232.641 C 394.207 233.788 395.713 235.193 397.045 236.856 L 386.62 245.286 Z" fill="#3650A2"/>
    <path d="M 414.555 229.458 L 428.106 229.458 L 428.106 252.168 L 454.427 252.168 L 454.427 229.458 L 467.979 229.458 L 467.979 290.362 L 454.427 290.362 L 454.427 264.039 L 428.106 264.039 L 428.106 290.362 L 414.555 290.362 L 414.555 229.458 Z" fill="#3650A2"/>
    <path d="M 485.855 259.91 C 485.855 255.035 486.666 250.62 488.288 246.663 C 489.967 242.706 492.284 239.351 495.237 236.598 C 498.191 233.788 501.694 231.638 505.748 230.147 C 509.802 228.656 514.233 227.91 519.039 227.91 C 523.846 227.91 528.276 228.656 532.33 230.147 C 536.384 231.638 539.888 233.788 542.841 236.598 C 545.795 239.351 548.082 242.706 549.704 246.663 C 551.383 250.62 552.223 255.035 552.223 259.91 C 552.223 264.785 551.383 269.2 549.704 273.157 C 548.082 277.114 545.795 280.498 542.841 283.308 C 539.888 286.061 536.384 288.182 532.33 289.673 C 528.276 291.164 523.846 291.91 519.039 291.91 C 514.233 291.91 509.802 291.164 505.748 289.673 C 501.694 288.182 498.191 286.061 495.237 283.308 C 492.284 280.498 489.967 277.114 488.288 273.157 C 486.666 269.2 485.855 264.785 485.855 259.91 Z M 499.928 259.91 C 499.928 262.777 500.363 265.415 501.231 267.824 C 502.158 270.175 503.461 272.24 505.14 274.018 C 506.82 275.738 508.818 277.086 511.134 278.061 C 513.509 279.035 516.144 279.523 519.039 279.523 C 521.935 279.523 524.541 279.035 526.857 278.061 C 529.232 277.086 531.259 275.738 532.938 274.018 C 534.618 272.24 535.892 270.175 536.76 267.824 C 537.687 265.415 538.15 262.777 538.15 259.91 C 538.15 257.1 537.687 254.491 536.76 252.082 C 535.892 249.673 534.618 247.609 532.938 245.889 C 531.259 244.111 529.232 242.734 526.857 241.76 C 524.541 240.785 521.935 240.297 519.039 240.297 C 516.144 240.297 513.509 240.785 511.134 241.76 C 508.818 242.734 506.82 244.111 505.14 245.889 C 503.461 247.609 502.158 249.673 501.231 252.082 C 500.363 254.491 499.928 257.1 499.928 259.91 Z" fill="#3650A2"/>
    <path d="M 570.121 234.62 C 570.121 231.769 572.454 229.458 575.333 229.458 L 593.923 229.458 C 597.05 229.458 600.003 229.774 602.783 230.405 C 605.621 230.978 608.082 231.982 610.167 233.415 C 612.31 234.792 613.989 236.684 615.205 239.093 C 616.48 241.444 617.117 244.398 617.117 247.953 C 617.117 252.254 615.987 255.924 613.729 258.964 C 611.47 261.946 608.169 263.838 603.826 264.641 L 619.462 290.362 L 603.218 290.362 L 590.361 266.018 L 583.672 266.018 L 583.672 290.362 L 570.121 290.362 L 570.121 234.62 Z M 583.672 254.663 L 591.664 254.663 C 592.88 254.663 594.154 254.634 595.486 254.577 C 596.876 254.462 598.121 254.204 599.222 253.803 C 600.322 253.344 601.22 252.656 601.915 251.738 C 602.667 250.82 603.044 249.53 603.044 247.867 C 603.044 246.319 602.725 245.086 602.088 244.168 C 601.451 243.251 600.64 242.562 599.656 242.104 C 598.671 241.587 597.542 241.243 596.268 241.071 C 594.994 240.899 593.749 240.813 592.533 240.813 L 583.672 240.813 L 583.672 254.663 Z" fill="#3650A2"/>
    <circle cx="57.462" cy="259.91" r="80" fill="#3650A2"/>
    <path fill-rule="evenodd" clip-rule="evenodd" d="M 57.469 209.91 C 59.768 209.91 61.864 211.223 62.867 213.292 L 86.873 262.792 L 87.415 263.91 L 74.079 263.91 L 70.199 255.91 L 44.738 255.91 L 40.859 263.91 L 27.522 263.91 L 28.064 262.792 L 52.07 213.292 C 53.073 211.223 55.17 209.91 57.469 209.91 Z M 49.588 245.91 L 65.349 245.91 L 57.469 229.66 L 49.588 245.91 Z M 75.462 280.91 L 87.467 280.91 C 87.106 297.062 73.736 309.91 57.469 309.91 C 41.201 309.91 27.831 297.062 27.47 280.91 L 39.476 280.91 C 39.757 288.264 44.643 294.541 51.463 296.906 L 51.463 272.91 C 51.463 269.596 54.149 266.91 57.463 266.91 C 60.776 266.91 63.463 269.596 63.463 272.91 L 63.463 296.91 C 70.289 294.548 75.181 288.269 75.462 280.91 Z" fill="white"/>
  </g>
</svg>