<?xml version="1.0" encoding="utf-8"?>
<svg width="639" height="49" viewBox="0 0 639 49" fill="none" xmlns="http://www.w3.org/2000/svg">
<path d="M33.2957 3.47081C31.076 -0.971065 24.6943 -0.971065 22.4746 3.47081L0 49.0001H11.5148L15.1218 41.5044H40.0936L43.7006 49.0001H55.2154L33.2957 3.47081ZM20.3936 31.0938L27.8852 15.9636L35.2379 31.0938H20.3936Z" fill="#E5E5E5"/>
<path d="M161.484 0.139305V30.2608L142.894 3.19311L142.755 3.0543C140.952 0.694549 138.871 0.139305 137.345 0.139305H136.512C134.709 0.139305 133.044 0.833341 131.796 2.08262C130.547 3.3319 129.853 4.99764 129.853 6.80215V48.8612H140.674V18.7397L159.403 46.085V46.2238C160.097 47.1955 160.929 47.8895 162.039 48.306C162.872 48.7224 163.843 48.8612 164.814 48.8612H165.23C166.756 48.8612 168.282 48.4447 169.531 47.3343C171.195 45.9462 172.028 44.1417 172.028 42.1984V0.000488281H161.484V0.139305Z" fill="#E5E5E5"/>
<path d="M264.146 12.4934C266.227 11.2441 268.724 10.6889 271.637 10.6889C273.58 10.6889 275.383 10.9665 276.77 11.3829C278.297 11.7993 281.487 13.3262 281.487 13.3262L286.066 4.30366C286.066 4.30366 281.349 1.94394 279.129 1.2499C276.77 0.555856 273.996 0.139404 270.944 0.139404C266.504 0.139404 262.342 1.11107 258.735 3.05439C255.128 4.99772 252.215 7.91272 250.134 11.6606C248.053 15.2696 247.082 19.7114 247.082 24.4309C247.082 29.2892 248.053 33.5923 250.134 37.2013C252.215 40.9492 255.128 43.8641 258.735 45.8075C262.342 47.7508 266.366 48.7224 270.944 48.7224C273.996 48.7224 276.632 48.306 279.129 47.612C281.487 46.9179 286.066 44.5582 286.066 44.5582L281.349 35.5356C281.349 35.5356 278.158 37.0625 276.632 37.4789C275.244 37.8954 273.441 38.173 271.499 38.173C268.447 38.173 265.949 37.6178 264.007 36.3685C261.926 35.1192 260.539 33.5923 259.568 31.5102C258.458 29.428 258.042 26.9295 258.042 24.1533C258.042 21.3772 258.597 19.0174 259.568 16.7964C260.678 15.2696 262.065 13.6038 264.146 12.4934Z" fill="#E5E5E5"/>
<path d="M391.641 0.139404V21.0995H373.883V0.278222L363.201 0.139404V49.0001H373.883V31.3714H391.641V49.0001H402.462V0.139404H391.641Z" fill="#E5E5E5"/>
<path d="M522.326 12.077C520.384 8.32913 517.471 5.41416 514.002 3.33203C510.395 1.2499 506.233 0.139404 501.516 0.139404C496.8 0.139404 492.638 1.2499 489.031 3.33203C485.424 5.41416 482.649 8.32913 480.707 12.077C478.764 15.686 477.793 19.8503 477.655 24.5697C477.793 29.1504 478.764 33.4535 480.707 37.0625C482.649 40.8104 485.562 43.7253 489.031 45.8075C492.638 47.8896 496.8 49.0001 501.516 49.0001C506.233 49.0001 510.395 47.8896 514.002 45.8075C517.609 43.7253 520.384 40.8104 522.326 37.0625C524.269 33.4535 525.24 29.2892 525.378 24.5697C525.24 19.8503 524.269 15.686 522.326 12.077ZM489.863 31.9266C488.753 29.8445 488.198 27.3459 488.198 24.5697C488.198 21.7936 488.753 19.4338 489.863 17.2129C490.834 15.1308 492.36 13.4651 494.302 12.3546C496.245 11.1053 498.603 10.5501 501.378 10.5501C504.152 10.5501 506.511 11.1053 508.453 12.3546C510.395 13.6039 511.921 15.1308 512.893 17.2129C514.002 19.295 514.557 21.7936 514.557 24.5697C514.557 27.3459 514.002 29.7057 512.893 31.9266C511.921 34.0087 510.395 35.5356 508.453 36.7849C506.511 38.0342 504.152 38.5894 501.378 38.5894C498.603 38.5894 496.245 38.0342 494.302 36.7849C492.36 35.5356 490.973 34.0087 489.863 31.9266Z" fill="#E5E5E5"/>
<path d="M633.867 26.3742C634.838 25.5414 635.809 24.5698 636.503 23.4593C638.168 20.9607 639 18.1845 639 15.2695C639 10.6889 637.335 6.94102 633.867 4.16485C630.676 1.52748 625.959 0.139404 619.855 0.139404H605.704C604.178 0.139404 602.93 0.694656 601.82 1.80513C600.849 2.9156 600.294 4.16486 600.294 5.69175V49.0001H611.115V31.649H621.104C623.184 31.649 624.711 32.0654 625.543 32.8983C626.514 33.8699 627.208 34.9804 627.485 36.2297C627.763 37.7566 628.04 39.5611 628.04 41.3656V49.0001H638.861V40.3939C638.861 37.3401 638.306 34.1476 637.058 30.955C636.225 29.1504 635.254 27.6235 633.867 26.3742ZM611.254 10.6889H619.3C624.156 10.6889 625.959 11.6605 626.791 12.077C627.901 12.9098 628.318 14.0203 628.318 15.5472C628.318 17.2129 627.763 18.3234 626.375 19.295C624.849 20.4055 622.491 20.9607 619.577 20.9607H611.254V10.6889Z" fill="#E5E5E5"/>
</svg>
