<svg xmlns="http://www.w3.org/2000/svg" width="3.56in" height="3.56in" viewBox="0 0 256 256">
  <defs>
    <style>
      .cls-1 {
        fill: #3bb14a;
      }

      .cls-2 {
        fill: #81c341;
      }

      .cls-3 {
        fill: #a8cf39;
      }

      .cls-4 {
        fill: #f2ea26;
      }

      .cls-5 {
        fill: #d9d82d;
      }

      .cls-6 {
        fill: #1fa64a;
      }

      .cls-7 {
        fill: #5eb646;
      }

      .cls-8 {
        fill: #8ac640;
      }

      .cls-9 {
        fill: #e8e61f;
      }

      .cls-10 {
        fill: #c6d22d;
      }
    </style>
  </defs>
  <title>anchor-icons-v001</title>
  <g id="Anchor-Logo">
    <g>
      <g>
        <path class="cls-1" d="M127.92,256s10.59.6,17.41-4.91a182.64,182.64,0,0,1,28.13-18.27c11.84-6.34,27-13.26,38.76-22.9s11.52-10.08,14.68-10.08c0,0,3.51-10.73,2.64-21.75,0,0-3.76,14.16-48.78,41.12a168.34,168.34,0,0,1-43.94,18.36A173.33,173.33,0,0,1,127.92,256Z"/>
        <path class="cls-2" d="M226.9,199.82a4,4,0,0,1,2.27,1.91c.49,1.33.55,3.08,3,3.74s5.28-1.57,9-8.13a56.63,56.63,0,0,0,6.67-24.74s-5.15,4.6-18.24,5.47C229.54,178.07,230.57,187.29,226.9,199.82Z"/>
        <path class="cls-3" d="M229.54,178.07s11.39-.11,18.24-5.47a79.91,79.91,0,0,0-.57-16.21c-1.22-8.18-.65-11.32-4.26-12.11C243,144.28,240.34,160.21,229.54,178.07Z"/>
        <path class="cls-4" d="M229.54,178.07S239.62,162,243,144.28c0,0-2.34-.25-3.18,1.18-3.15,5.32-6,11.1-15.52,18.24C224.25,163.7,225.33,168.86,229.54,178.07Z"/>
        <path class="cls-5" d="M229.54,178.07s-4.14-9.77-5.29-14.37a102.33,102.33,0,0,1-11.17,7.18c-2.37,1.17-1.81,4.28.53,6.26a27.25,27.25,0,0,1,3.21,4.1S220.32,179.13,229.54,178.07Z"/>
        <path class="cls-3" d="M145,215.16c11.06.62,35.5,3.69,71.78-33.92,0,0,4-2.32,12.72-3.17,0,0-3.73,14.36-48.78,41.12,0,0-31,8.84-43.94,7.23Z"/>
        <path class="cls-2" d="M136.82,237.55V226.42s12.48,1.41,43.94-7.23C180.76,219.19,160.48,232,136.82,237.55Z"/>
        <path class="cls-2" d="M136.82,237.55a128,128,0,0,1-8.9,18.43l.08-21.73S130.51,236.74,136.82,237.55Z"/>
        <path class="cls-3" d="M128,222.16s2.25.38,8.82,4.26v11.13s-6.42-.74-8.82-3.3Z"/>
        <path class="cls-5" d="M128,211.63l8.82,14.79s-6.13-3.62-8.82-4.26Z"/>
        <path class="cls-2" d="M128,211.63l8.82,14.79L145,215.16s-2.81-.77-7.3-1.7C135,212.9,131.74,212.29,128,211.63Z"/>
        <path class="cls-3" d="M128,68.84l7.85,9.23s.59,63.69,9.19,137.09c0,0-5.47-1.54-17-3.53Z"/>
        <polygon class="cls-2" points="128 68.84 135.85 78.07 136.1 90.12 128 79.51 128 68.84"/>
        <path class="cls-1" d="M128,68.84s21-2.22,41.31-2.22a318.27,318.27,0,0,1,37.37,2.22c4.79.4,10.54.07,12.42-.44,0,0,0,8.79-8.63,8.79s-13.57-5.3-40.83-5.3-33.79,6.18-33.79,6.18Z"/>
        <path class="cls-5" d="M219.1,68.4c-1.88.51-7.63.84-12.42.44a318.27,318.27,0,0,0-37.37-2.22C149,66.62,128,68.84,128,68.84l8.52-9.39s.46,1.21,3.46,1.21c2.4,0,22.54.42,29.33.64S202.13,63,204.11,63a42.45,42.45,0,0,0,9.4-1.66C214.77,60.7,219.1,61.08,219.1,68.4Z"/>
        <path class="cls-2" d="M206.68,68.84s-1.58,5.45-3,7.38a40.22,40.22,0,0,0,4.23.82,27.89,27.89,0,0,0,2.56-8S209.12,69,206.68,68.84Z"/>
        <path class="cls-3" d="M208.05,62.53A38.08,38.08,0,0,1,210.47,69s-2,0-3.79-.18A18.54,18.54,0,0,0,204.11,63,36.48,36.48,0,0,0,208.05,62.53Z"/>
        <path class="cls-3" d="M128,68.84l8.52-9.39a3.7,3.7,0,0,1-.78-2.19c0-1.25.21-15.6.21-15.6s-3.42-3.72-7.95-3.72Z"/>
        <path class="cls-1" d="M136,41.66l1.69-.81s-1.12-4.78-2.35-6.57a14.62,14.62,0,0,1-7.29,2V38.7S132,37.73,136,41.66Z"/>
        <path class="cls-2" d="M141.25,27.79s-1.75,4.61-6,6.49a33.23,33.23,0,0,1,2.35,6.57,22.54,22.54,0,0,0,8.55-7.71A15.82,15.82,0,0,0,141.25,27.79Z"/>
        <path class="cls-3" d="M141.25,27.79a17,17,0,0,1,4.94,5.35,21.17,21.17,0,0,0,3.16-14.29s-4.26-.63-6.88.21A16.09,16.09,0,0,1,141.25,27.79Z"/>
        <path class="cls-5" d="M138,10.4c1.54-2.23,3.18-4.09,4.7-4.56a24.52,24.52,0,0,1,6.69,13,19,19,0,0,0-6.88.21S141.47,13.6,138,10.4Z"/>
        <path class="cls-4" d="M127.81,6.86V0A20.23,20.23,0,0,1,143,6.21,29.5,29.5,0,0,0,138,10.4,13.3,13.3,0,0,0,127.81,6.86Z"/>
        <path class="cls-1" d="M127.81,6.86v7.19a9,9,0,0,1,6,2.87s2-4.43,4.13-6.52A12.82,12.82,0,0,0,127.81,6.86Z"/>
        <path class="cls-2" d="M134.92,24.48a38.84,38.84,0,0,1,6.33,3.31s4.8-9.52-3.29-17.39c0,0-2,1.78-4.13,6.52C133.83,16.92,136.55,19.61,134.92,24.48Z"/>
        <path class="cls-3" d="M131.22,28.37a8.2,8.2,0,0,0,3.7-3.89,36.65,36.65,0,0,1,6.33,3.31,11.53,11.53,0,0,1-6,6.49S132,31.19,131.22,28.37Z"/>
        <path class="cls-5" d="M128,29.11l0,7.18a13.68,13.68,0,0,0,7.29-2,36.29,36.29,0,0,0-4.07-5.91A7.15,7.15,0,0,1,128,29.11Z"/>
      </g>
      <g>
        <path class="cls-6" d="M128.08,256s-10.59.6-17.41-4.91A181.9,181.9,0,0,0,82.54,232.8c-11.84-6.34-27-13.26-38.76-22.91S32.26,199.82,29.1,199.82a63.54,63.54,0,0,1-2.64-21.76s3.76,14.17,48.78,41.13a168.34,168.34,0,0,0,43.94,18.36A173.33,173.33,0,0,0,128.08,256Z"/>
        <path class="cls-7" d="M29.1,199.82a4,4,0,0,0-2.27,1.91c-.49,1.32-.55,3.08-2.95,3.74s-5.28-1.58-9-8.13a56.64,56.64,0,0,1-6.67-24.75s5.15,4.6,18.24,5.47C26.46,178.06,25.43,187.28,29.1,199.82Z"/>
        <path class="cls-8" d="M26.46,178.06s-11.39-.1-18.24-5.47a79.81,79.81,0,0,1,.57-16.2c1.22-8.18.65-11.32,4.26-12.11C13.05,144.28,15.66,160.21,26.46,178.06Z"/>
        <path class="cls-9" d="M26.46,178.06S16.38,162,13.05,144.28c0,0,2.34-.25,3.18,1.17,3.15,5.33,6,11.11,15.52,18.24C31.75,163.69,30.67,168.86,26.46,178.06Z"/>
        <path class="cls-10" d="M26.46,178.06s4.14-9.77,5.29-14.37a101.86,101.86,0,0,0,11.17,7.19c2.37,1.17,1.81,4.27-.53,6.26a27.25,27.25,0,0,0-3.21,4.1S35.68,179.13,26.46,178.06Z"/>
        <path class="cls-8" d="M111,215.15c-11.06.62-35.5,3.69-71.78-33.91,0,0-4-2.32-12.72-3.18,0,0,3.73,14.37,48.78,41.13,0,0,31,8.83,43.94,7.23Z"/>
        <path class="cls-7" d="M119.18,237.55V226.42s-12.48,1.41-43.94-7.23C75.24,219.19,95.52,232,119.18,237.55Z"/>
        <path class="cls-7" d="M119.18,237.55a128,128,0,0,0,8.9,18.43L128,234.25S125.49,236.74,119.18,237.55Z"/>
        <path class="cls-8" d="M128,222.15s-2.25.39-8.82,4.27v11.13s6.42-.74,8.82-3.3Z"/>
        <path class="cls-10" d="M128,211.62l-8.82,14.8s6.13-3.62,8.82-4.27Z"/>
        <path class="cls-7" d="M128,211.62l-8.82,14.8L111,215.15s2.81-.76,7.3-1.69C121,212.9,124.26,212.29,128,211.62Z"/>
        <path class="cls-8" d="M128,68.83l-7.85,9.24s-.59,63.68-9.19,137.08c0,0,5.47-1.53,17-3.53Z"/>
        <polygon class="cls-7" points="128 68.83 120.15 78.07 119.9 90.11 128 79.51 128 68.83"/>
        <path class="cls-6" d="M128,68.83s-21-2.21-41.31-2.21a321.66,321.66,0,0,0-37.37,2.21c-4.79.41-10.54.08-12.42-.44,0,0,0,8.8,8.63,8.8s13.57-5.3,40.83-5.3,33.79,6.18,33.79,6.18Z"/>
        <path class="cls-10" d="M36.9,68.39c1.88.52,7.63.85,12.42.44a321.66,321.66,0,0,1,37.37-2.21C107,66.62,128,68.83,128,68.83l-8.52-9.38S119,60.66,116,60.66c-2.4,0-22.54.41-29.33.64S53.87,63,51.89,63a41.86,41.86,0,0,1-9.4-1.67C41.23,60.69,36.9,61.07,36.9,68.39Z"/>
        <path class="cls-7" d="M49.32,68.83s1.58,5.46,3,7.39a43.05,43.05,0,0,1-4.23.82,28,28,0,0,1-2.56-8S46.88,69,49.32,68.83Z"/>
        <path class="cls-8" d="M48,62.53A38.08,38.08,0,0,0,45.53,69s2,0,3.79-.19A18.44,18.44,0,0,1,51.89,63S49.82,62.85,48,62.53Z"/>
        <path class="cls-8" d="M128,68.83l-8.52-9.38a3.74,3.74,0,0,0,.78-2.19c0-1.25-.21-15.6-.21-15.6s3.42-3.73,8-3.73Z"/>
        <path class="cls-6" d="M120.05,41.66l-1.69-.81s1.12-4.79,2.35-6.58a14.46,14.46,0,0,0,7.29,2V38.7S124.05,37.73,120.05,41.66Z"/>
        <path class="cls-7" d="M114.75,27.79s1.75,4.61,6,6.48a33.47,33.47,0,0,0-2.35,6.58,22.54,22.54,0,0,1-8.55-7.71A15.82,15.82,0,0,1,114.75,27.79Z"/>
        <path class="cls-8" d="M114.75,27.79a17,17,0,0,0-4.94,5.35,21.17,21.17,0,0,1-3.16-14.29s4.26-.63,6.88.21A16.09,16.09,0,0,0,114.75,27.79Z"/>
        <path class="cls-10" d="M118,10.4c-1.54-2.24-3.18-4.09-4.7-4.56a24.52,24.52,0,0,0-6.69,13,19,19,0,0,1,6.88.21S114.53,13.6,118,10.4Z"/>
        <path class="cls-9" d="M128.19,6.86V0A20.23,20.23,0,0,0,113,6.21,29.5,29.5,0,0,1,118,10.4,13.26,13.26,0,0,1,128.19,6.86Z"/>
        <path class="cls-6" d="M128.19,6.86v7.19a9,9,0,0,0-6,2.87s-2-4.43-4.13-6.52A12.82,12.82,0,0,1,128.19,6.86Z"/>
        <path class="cls-7" d="M121.08,24.48a37.94,37.94,0,0,0-6.33,3.31S110,18.27,118,10.4c0,0,2,1.78,4.13,6.52C122.17,16.92,119.45,19.61,121.08,24.48Z"/>
        <path class="cls-8" d="M124.78,28.37a8.2,8.2,0,0,1-3.7-3.89,36.65,36.65,0,0,0-6.33,3.31,11.52,11.52,0,0,0,6,6.48S124,31.18,124.78,28.37Z"/>
        <path class="cls-10" d="M128,29.11l0,7.18a13.74,13.74,0,0,1-7.29-2,36,36,0,0,1,4.07-5.9A7.15,7.15,0,0,0,128,29.11Z"/>
      </g>
    </g>
  </g>
</svg>
