<svg width="259" height="39" viewBox="0 0 259 39" fill="none" xmlns="http://www.w3.org/2000/svg">
<path d="M14.5411 4.19365C16.289 -0.0842523 22.3092 -0.0830645 24.06 4.19365L38.6961 38.0564H29.5299L26.3529 30.1935H12.0307L8.95792 38.0564H0L14.5411 4.19365ZM19.0616 11.7419L14.5827 23.2742H23.5927L19.0616 11.7419Z" fill="white"/>
<path d="M47.6129 4.08871C47.6129 2.35168 49.012 0.943548 50.7378 0.943548H58.6541L74.3305 26.7339H74.4346V0.943548H82.5592V34.9113C82.5592 36.6483 81.1602 38.0564 79.4344 38.0564H71.9347L55.8417 11.6371H55.7376V38.0564H47.6129V4.08871Z" fill="white"/>
<path d="M119.403 10.5887C118.604 9.61021 117.615 8.85887 116.434 8.33467C115.288 7.81048 113.952 7.54838 112.424 7.54838C110.896 7.54838 109.473 7.84543 108.153 8.43952C106.869 9.0336 105.74 9.87231 104.768 10.9556C103.831 12.004 103.084 13.2621 102.529 14.7298C102.008 16.1976 101.747 17.7876 101.747 19.5C101.747 21.2473 102.008 22.8548 102.529 24.3226C103.084 25.7554 103.831 27.0134 104.768 28.0968C105.706 29.1452 106.799 29.9664 108.049 30.5605C109.334 31.1546 110.705 31.4516 112.164 31.4516C113.83 31.4516 115.306 31.1021 116.59 30.4032C117.875 29.7043 118.934 28.7258 119.767 27.4677L126.538 32.5524C124.975 34.754 122.996 36.379 120.601 37.4274C118.205 38.4758 115.74 39 113.205 39C110.323 39 107.667 38.5457 105.237 37.6371C102.806 36.7285 100.706 35.4355 98.935 33.7581C97.1643 32.0457 95.7754 29.9839 94.7685 27.5726C93.7964 25.1613 93.3103 22.4704 93.3103 19.5C93.3103 16.5296 93.7964 13.8387 94.7685 11.4274C95.7754 9.01613 97.1643 6.97177 98.935 5.29435C100.706 3.58199 102.806 2.2715 105.237 1.3629C107.667 0.4543 110.323 0 113.205 0C114.247 0 115.323 0.104838 116.434 0.314514C117.58 0.489245 118.691 0.786289 119.767 1.20564C120.878 1.625 121.937 2.18414 122.944 2.88306C123.951 3.58199 124.854 4.43817 125.653 5.45161L119.403 10.5887Z" fill="white"/>
<path d="M136.15 0.943548H144.275V14.7823H160.056V0.943548H168.18V38.0564H160.056V22.0161H144.275V38.0564H136.15V0.943548Z" fill="white"/>
<path d="M178.898 19.5C178.898 16.5296 179.384 13.8387 180.356 11.4274C181.363 9.01613 182.752 6.97177 184.523 5.29435C186.293 3.58199 188.394 2.2715 190.824 1.3629C193.255 0.4543 195.911 0 198.793 0C201.675 0 204.331 0.4543 206.761 1.3629C209.192 2.2715 211.292 3.58199 213.063 5.29435C214.834 6.97177 216.205 9.01613 217.177 11.4274C218.184 13.8387 218.688 16.5296 218.688 19.5C218.688 22.4704 218.184 25.1613 217.177 27.5726C216.205 29.9839 214.834 32.0457 213.063 33.7581C211.292 35.4355 209.192 36.7285 206.761 37.6371C204.331 38.5457 201.675 39 198.793 39C195.911 39 193.255 38.5457 190.824 37.6371C188.394 36.7285 186.293 35.4355 184.523 33.7581C182.752 32.0457 181.363 29.9839 180.356 27.5726C179.384 25.1613 178.898 22.4704 178.898 19.5ZM187.335 19.5C187.335 21.2473 187.595 22.8548 188.116 24.3226C188.672 25.7554 189.453 27.0134 190.46 28.0968C191.467 29.1452 192.665 29.9664 194.053 30.5605C195.477 31.1546 197.057 31.4516 198.793 31.4516C200.529 31.4516 202.091 31.1546 203.48 30.5605C204.904 29.9664 206.119 29.1452 207.126 28.0968C208.133 27.0134 208.897 25.7554 209.417 24.3226C209.973 22.8548 210.251 21.2473 210.251 19.5C210.251 17.7876 209.973 16.1976 209.417 14.7298C208.897 13.2621 208.133 12.004 207.126 10.9556C206.119 9.87231 204.904 9.0336 203.48 8.43952C202.091 7.84543 200.529 7.54838 198.793 7.54838C197.057 7.54838 195.477 7.84543 194.053 8.43952C192.665 9.0336 191.467 9.87231 190.46 10.9556C189.453 12.004 188.672 13.2621 188.116 14.7298C187.595 16.1976 187.335 17.7876 187.335 19.5Z" fill="white"/>
<path d="M229.418 4.08871C229.418 2.35168 230.817 0.943548 232.543 0.943548H243.688C245.563 0.943548 247.334 1.13575 249 1.52016C250.702 1.86962 252.177 2.48118 253.427 3.35484C254.712 4.19355 255.719 5.34677 256.448 6.81451C257.212 8.24731 257.594 10.047 257.594 12.2137C257.594 14.8347 256.917 17.0712 255.563 18.9234C254.209 20.7406 252.229 21.8938 249.625 22.3831L259 38.0564H249.261L241.553 23.2218H237.543V38.0564H229.418V4.08871ZM237.543 16.3024H242.334C243.063 16.3024 243.827 16.2849 244.626 16.25C245.459 16.1801 246.205 16.0228 246.865 15.7782C247.525 15.4987 248.063 15.0793 248.48 14.5202C248.931 13.961 249.157 13.1747 249.157 12.1613C249.157 11.2177 248.966 10.4664 248.584 9.90726C248.202 9.34811 247.716 8.92876 247.126 8.64919C246.535 8.33467 245.858 8.125 245.094 8.02016C244.331 7.91532 243.584 7.8629 242.855 7.8629H237.543V16.3024Z" fill="white"/>
</svg>
