<?xml version="1.0" encoding="utf-8"?>
<svg width="150" height="150" viewBox="0 0 150 150" fill="none" xmlns="http://www.w3.org/2000/svg">
<path fill-rule="evenodd" clip-rule="evenodd" d="M75 150C116.421 150 150 116.421 150 75C150 33.5786 116.421 0 75 0C33.5786 0 0 33.5786 0 75C0 116.421 33.5786 150 75 150ZM88.6565 76.2229L85.2241 69.182H64.665L61.2326 76.2229H51.4164L70.318 37.4504C72.1975 33.595 77.6915 33.5949 79.5711 37.4504L98.4727 76.2229H88.6565ZM74.9445 48.0958L80.9226 60.3585H68.9665L74.9445 48.0958ZM70.5328 105.682L70.5328 83.068L79.3563 83.068V105.682C86.4281 103.862 91.7844 97.7685 92.5081 90.3185H101.36C100.47 104.133 88.9835 115.062 74.9445 115.062C60.9056 115.062 49.4192 104.133 48.5294 90.3185H57.3809C58.1047 97.7685 63.461 103.862 70.5328 105.682Z" fill="white"/>
</svg>
