<?xml version="1.0" encoding="utf-8"?>
<svg viewBox="512 512 512 512" width="512px" height="512px" xmlns="http://www.w3.org/2000/svg">
  <g id="anchor-sml" style="" transform="matrix(1, 0, 0, 1, 511.986053, 512.031677)">
    <path class="cls-3" d="M460.84,304.82c-2.11-14.06-1.13-19.45-7.33-20.82,0,0-4-.42-5.48,2-5.4,9.14-10.29,19.08-26.66,31.34,0,0-12,8.79-19.2,12.35-4.07,2-3.1,7.35.91,10.76,2.06,1.75,5.52,7,5.52,7-62.35,64.62-104.34,59.35-123.36,58.28-14.78-126.14-15.79-235.59-15.79-235.59s11.22-10.62,58.07-10.62,55.3,9.11,70.18,9.11,14.82-15.11,14.82-15.11c0-12.59-7.44-13.24-9.61-12.21s-12.74,2.87-16.15,2.87-48.12-2.47-59.8-2.86-46.29-1.1-50.41-1.1c-3.86,0-5.65-1.72-6.11-2.31a6.22,6.22,0,0,1-1.17-3.53c0-2,.31-23.25.35-26.41a37.22,37.22,0,1,0-27.24-.37c0,.63.34,24.66.35,26.78a6.22,6.22,0,0,1-1.17,3.53c-.46.59-2.25,2.31-6.11,2.31-4.12,0-38.73.72-50.41,1.1s-56.39,2.86-59.8,2.86-14-1.83-16.15-2.87-9.61-.38-9.61,12.21c0,0,0,15.11,14.82,15.11s23.33-9.11,70.18-9.11,58.07,10.62,58.07,10.62-1,109.45-15.79,235.59c-19,1.07-61,6.34-123.36-58.28,0,0,3.46-5.3,5.52-7,4-3.41,5-8.75.91-10.76-7.23-3.56-19.2-12.35-19.2-12.35C74.26,305.11,69.37,295.17,64,286c-1.45-2.45-5.48-2-5.48-2-6.2,1.37-5.22,6.76-7.33,20.82-1.52,10.15-1.22,22.57-.94,28.71,0,.93.09,1.88.15,2.83,0,.61.07,1,.07,1h0c1.12,13.54,5.5,27.76,11.21,37.86C68,386.46,73,390.3,77.11,389.16s4.21-4.15,5.06-6.42,3.91-3.29,3.91-3.29c5.42,0,5,.74,25.23,17.32s46.25,28.46,66.6,39.37,36.65,21.91,48.36,31.39c11,9,27.89,8.52,29.73,8.45s18.68.5,29.73-8.45c11.71-9.48,28-20.49,48.36-31.39s46.42-22.79,66.6-39.37,19.81-17.32,25.23-17.32c0,0,3.06,1,3.91,3.29s.94,5.29,5.06,6.42,9.07-2.7,15.45-14c5.71-10.1,10.09-24.32,11.21-37.86h0s0-.35.07-1c.06-.95.11-1.9.15-2.83C462.06,327.39,462.36,315,460.84,304.82ZM256.47,59.62a13.6,13.6,0,1,1-13.6,13.6A13.6,13.6,0,0,1,256.47,59.62Z" style="fill: rgb(168, 207, 57);"/>
  </g>
</svg>