<?xml version="1.0" encoding="utf-8"?>
<svg viewBox="0 0 214 16" width="214" height="16" xmlns="http://www.w3.org/2000/svg">
  <defs>
    <style>
      .cls-1 {
        fill: #142716;
      }
    </style>
  </defs>
  <g id="Anchor-Text" transform="matrix(1, 0, 0, 1, 0.33, 0.031626)">
    <g style="">
      <g transform="matrix(1.000733, 0, 0, 1, -8.120061, 0)">
        <polygon class="cls-1" points="50.96 0.2 48.96 0.2 48.96 15.72 50.96 15.72 50.96 6.14 50.96 0.2" style="fill: rgb(209, 213, 216);"/>
        <polygon class="cls-1" points="59.02 0.2 59.02 12.48 52.69 2.84 52.69 6.09 59.02 15.72 61.02 15.72 61.02 0.2 59.02 0.2" style="fill: rgb(209, 213, 216);"/>
      </g>
      <polygon class="cls-1" points="8.196 0.48 5.924 0.48 0.17 15.72 2.332 15.72 3.172 13.4 7.045 2.73 9.887 10.57 6.024 10.57 5.464 12.13 10.458 12.13 11.758 15.72 13.92 15.72 8.196 0.48" style="fill: rgb(209, 213, 216);"/>
      <g transform="matrix(1.000733, 0, 0, 1, -25.678761, 0)">
        <rect class="cls-1" x="147.08" y="0.2" width="2" height="15.52" style="fill: rgb(209, 213, 216);"/>
        <polygon class="cls-1" points="156.97 0.2 156.97 6.91 150.82 6.91 150.82 8.54 156.97 8.54 156.97 15.72 158.99 15.72 158.99 0.2 156.97 0.2" style="fill: rgb(209, 213, 216);"/>
      </g>
      <path class="cls-1" d="M 208.977 9.31 C 210.136 9.208 211.221 8.697 212.039 7.87 C 212.762 7.041 213.141 5.968 213.1 4.87 C 213.153 3.614 212.674 2.394 211.779 1.51 C 210.661 0.582 209.224 0.13 207.776 0.25 L 202.662 0.25 L 202.662 15.72 L 204.664 15.72 L 204.664 1.94 L 207.596 1.94 C 209.878 1.94 211.008 2.94 211.008 4.94 C 211.008 6.94 209.878 7.94 207.596 7.94 L 206.405 7.94 L 206.405 9.38 L 206.845 9.38 L 210.898 15.72 L 213.17 15.72 Z" style="fill: rgb(209, 213, 216);"/>
      <path class="cls-1" d="M 174.705 3.84 C 174.062 2.655 173.103 1.671 171.933 1 C 169.51 -0.35 166.56 -0.35 164.137 1 C 163.714 1.247 163.318 1.539 162.956 1.87 L 164.317 3.24 C 164.576 2.996 164.862 2.782 165.168 2.6 C 166.948 1.614 169.112 1.614 170.892 2.6 C 171.749 3.096 172.444 3.829 172.893 4.71 C 173.391 5.733 173.632 6.863 173.594 8 C 173.617 9.108 173.374 10.206 172.883 11.2 C 172.434 12.087 171.74 12.826 170.882 13.33 C 169.1 14.31 166.94 14.31 165.158 13.33 C 164.297 12.83 163.602 12.09 163.156 11.2 C 162.671 10.205 162.434 9.107 162.466 8 C 162.439 6.881 162.687 5.772 163.186 4.77 L 163.246 4.67 L 161.805 3.23 C 161.665 3.45 161.515 3.66 161.385 3.89 C 160.708 5.153 160.363 6.567 160.384 8 C 160.364 9.429 160.71 10.84 161.385 12.1 C 162.018 13.283 162.971 14.264 164.137 14.93 C 166.558 16.289 169.512 16.289 171.933 14.93 C 173.111 14.251 174.071 13.252 174.705 12.05 C 175.381 10.79 175.726 9.379 175.706 7.95 C 175.727 6.517 175.382 5.103 174.705 3.84 Z" style="fill: rgb(209, 213, 216);"/>
      <g transform="matrix(1.000733, 0, 0, 1, -16.898355, 0)">
        <path class="cls-1" d="M100.63,3.22a4.83,4.83,0,0,1,.76-.59,5.11,5.11,0,0,1,2.72-.74,5.52,5.52,0,0,1,3.23.92,5.13,5.13,0,0,1,1.92,2.45h2.11a7.15,7.15,0,0,0-2.55-3.82A7.57,7.57,0,0,0,104.13,0a7.32,7.32,0,0,0-3.85,1,6.14,6.14,0,0,0-1,.78Z" style="fill: rgb(209, 213, 216);"/>
        <path class="cls-1" d="M107.34,13.09a5.51,5.51,0,0,1-3.23.91,5,5,0,0,1-2.72-.74,5.08,5.08,0,0,1-1.89-2.1A6.85,6.85,0,0,1,98.8,8a7,7,0,0,1,.7-3.23s0-.08.07-.13L98.1,3.14c-.15.23-.3.46-.43.71A8.78,8.78,0,0,0,96.73,8a8.59,8.59,0,0,0,.94,4.08,6.85,6.85,0,0,0,2.61,2.8,7.32,7.32,0,0,0,3.85,1,7.51,7.51,0,0,0,4.69-1.4,7.11,7.11,0,0,0,2.55-3.82h-2.11A5.16,5.16,0,0,1,107.34,13.09Z" style="fill: rgb(209, 213, 216);"/>
      </g>
    </g>
  </g>
</svg>