<svg width="511" height="512" viewBox="0 0 511 512" fill="none" xmlns="http://www.w3.org/2000/svg">
<path d="M67.2271 484.558L104.948 389.973L115.158 389.973L152.736 484.558L141.817 484.558L109.06 399.474L111.187 399.19L78.288 484.558L67.2271 484.558ZM83.8184 455.062L88.2144 445.277L134.585 445.277L135.294 455.062L83.8184 455.062Z" fill="url(#paint0_linear_172_7)"/>
<path d="M170.321 511.926C168.903 511.926 167.627 511.784 166.493 511.501C165.358 511.217 164.413 510.934 163.657 510.65V501.291C164.318 501.574 165.169 501.858 166.209 502.142C167.249 502.425 168.431 502.567 169.754 502.567C172.969 502.567 175.568 501.669 177.554 499.873C179.539 498.077 181.193 495.666 182.517 492.641C183.935 489.615 185.211 486.259 186.346 482.572V486.685L156.283 413.796L167.911 413.796L191.451 474.206L189.324 474.206L212.722 413.796L222.932 413.796L192.585 491.506C190.411 497.084 188 501.338 185.353 504.269C182.8 507.199 180.201 509.185 177.554 510.225C175.001 511.359 172.59 511.926 170.321 511.926ZM267.726 486.685C261.014 486.685 255.2 485.314 250.284 482.572C245.368 479.736 241.586 475.529 238.939 469.952C236.292 464.374 234.969 457.425 234.969 449.106C234.969 436.911 237.71 427.788 243.193 421.737C248.771 415.592 256.381 412.52 266.024 412.52C273.587 412.52 279.638 414.222 284.175 417.625C288.808 421.028 292.117 425.613 294.102 431.38C296.087 437.147 297.033 443.67 296.938 450.949L240.074 450.949L240.783 441.59L290.273 441.59L286.303 443.008C286.019 435.918 284.223 430.624 280.914 427.126C277.7 423.628 272.736 421.879 266.024 421.879C261.392 421.879 257.516 422.73 254.396 424.432C251.371 426.133 249.102 429.111 247.589 433.365C246.077 437.525 245.321 443.386 245.321 450.949C245.321 459.552 247.306 466.123 251.276 470.661C255.342 475.104 261.014 477.325 268.293 477.325C271.791 477.325 275.005 477.089 277.936 476.616C280.867 476.049 283.561 475.293 286.019 474.348C288.477 473.402 290.651 472.362 292.542 471.228V481.721C289.139 483.329 285.357 484.558 281.198 485.408C277.132 486.259 272.642 486.685 267.726 486.685ZM342.582 485.692C337.572 485.692 333.365 484.179 329.961 481.154C326.558 478.035 324.856 473.449 324.856 467.399V423.155L312.519 423.155V413.796L324.856 413.796V393.801L335.066 393.801V413.796L353.359 413.796V423.155L335.066 423.155V464.137C335.066 468.108 335.681 471.086 336.91 473.071C338.139 475.057 340.644 476.049 344.426 476.049C346.127 476.049 347.782 475.907 349.389 475.624C350.996 475.246 352.319 474.82 353.359 474.348V483.99C352.036 484.463 350.334 484.841 348.254 485.125C346.269 485.503 344.378 485.692 342.582 485.692ZM405.726 486.685C399.486 486.685 394.145 485.598 389.702 483.423C385.258 481.249 381.855 478.082 379.492 473.922C377.223 469.762 376.088 464.657 376.088 458.607V413.796L386.298 413.796V456.338C386.298 463.523 387.858 468.817 390.978 472.22C394.192 475.529 399.108 477.184 405.726 477.184C412.343 477.184 417.212 475.529 420.332 472.22C423.546 468.817 425.153 463.523 425.153 456.338V413.796L435.363 413.796V458.607C435.363 467.588 432.764 474.537 427.564 479.453C422.459 484.274 415.18 486.685 405.726 486.685Z" fill="url(#paint1_linear_172_7)"/>
<path fill-rule="evenodd" clip-rule="evenodd" d="M248.563 1.79207C250.819 1.5583 260.12 -0.755036 272.465 0.253092C282.195 1.04693 289.692 5.94634 293.781 6.66226C299.825 7.71909 301.765 6.6233 311.873 9.73535C324.301 13.5633 325.031 18.6624 330.783 21.7598C336.146 24.2241 334.069 18.7988 345.432 26.0164C356.795 33.234 355.585 35.1626 359.956 38.8055C365.338 42.5507 364.954 37.6172 374.644 48.1709C384.33 58.7246 381.943 60.3999 385.725 65.1045C389.357 68.6646 389.732 62.8204 397.186 72.6922C404.639 82.5641 402.884 84.4489 405.66 89.4554C409.467 94.7006 412.842 94.6957 416.839 103.433C420.835 112.17 421.463 118.526 424.088 125.495C425.605 129.532 427.21 126.011 430.117 136.195C433.02 146.378 431.231 150.104 432.354 156.177C433.258 161.057 435.164 155.958 436.555 168.995C437.945 182.033 434.863 180.937 434.347 186.372C434.756 188.617 436.73 187.906 436.73 194.164C436.73 200.423 435.655 202.288 434.834 205.415C434.712 211.025 435.427 211.118 433.827 218.384C432.223 225.65 429.475 231.378 427.054 237.996C425.897 243.324 426.616 248.535 423.48 254.204C420.344 259.873 418.03 262.625 415.822 266.779C413.26 272.54 412.934 277.182 408.976 283.825C405.019 290.467 401.591 293.356 397.881 297.461C395.348 302.02 396.855 302.516 390.364 309.851C383.873 317.185 380.178 317.668 375.952 321.325C371.528 326.059 374.562 326.906 364.351 334.918C354.141 342.929 351.038 341.604 344.883 344.702C340.376 348.199 339.782 351.135 332.562 354.866C325.342 358.597 322.176 357.335 317.12 358.825C311.455 361.426 311.645 364.353 300.282 366.949C288.919 369.55 286.94 364.485 281.806 367.553C276.2 370.899 274.123 372.257 262.974 373.261C251.82 374.264 251.237 370.981 244.722 370.514C234.56 370.903 226.77 373.256 214.834 371.464C202.897 369.666 198.769 364.728 190.703 361.748C183.779 360.004 178.095 361.295 169.528 357.817C160.961 354.34 160.844 349.723 155.257 346.163C150.521 343.465 145.037 343.952 138.551 339.096C132.065 334.236 132.298 330.14 128.953 326.682C123.682 322.367 117.692 320.77 113.287 315.315C108.882 309.861 109.601 306.32 106.339 301.377C102.911 296.19 96.4198 293.594 91.898 285.3C87.4004 277.055 90.7165 278.204 88.6452 274.571C86.2627 269.496 81.8867 265.858 79.0423 259.016C76.1979 252.173 78.6728 251.37 76.9759 247.298C75.4346 242.029 71.7782 240.382 69.7604 230.959C67.7426 221.535 70.1299 220.088 68.7102 214.181C67.8933 207.616 63.459 199.619 63.459 193.687C63.459 187.755 66.245 184.512 66.2256 179.116C66.2061 173.617 62.9096 167.69 63.916 160.633C64.9176 153.576 67.5238 151.959 68.2191 146.485C69.6972 142.316 67.4557 139.677 70.2952 131.733C73.1348 123.79 75.7069 123.337 77.4572 117.751C79.6647 114.016 78.3276 110.441 81.8867 103.735C85.4458 97.0286 87.7213 97.6812 89.6127 93.8386C92.2286 90.2395 90.9742 87.634 95.3453 81.4001C99.7164 75.1663 100.378 77.7962 102.254 74.8449C106.63 69.8286 106.421 66.4779 113.389 57.8479C120.356 50.0946 124.591 51.6092 129.92 47.0848C133.956 43.6611 136.018 38.2259 142.319 33.721C148.62 29.2112 154.056 29.5424 159.628 26.143C165.093 23.2988 166.212 18.8377 175.197 14.7809C184.182 10.724 193.849 11.1039 197.067 10.0714C201.745 8.87332 209.203 2.59565 221.553 1.03719C236.359 -0.832959 244.323 2.23039 248.558 1.79207H248.563ZM249.584 21.7598C256.508 21.7111 262.848 25.3979 268.984 25.656C275.12 25.9141 282.243 24.7306 288.554 26.2696C293.412 27.4531 296.908 32.0944 302.047 33.9353C307.186 35.7762 313.463 34.4077 318.569 36.7649C323.878 39.2195 328.186 45.239 332.241 48.0588C337.176 50.8738 343.945 51.2196 348.627 54.731C352.152 57.3755 353.056 61.3447 356.552 65.5915C360.928 69.8383 367.653 71.2409 371.703 75.6777C375.865 80.2362 378.213 87.3028 380.377 90.9165C383.416 94.535 389.003 98.1292 391.521 102.357C394.069 106.633 394.215 113.845 395.887 116.777C397.56 120.581 402.869 125.154 404.668 130.131C406.638 135.581 406.069 141.902 407.557 147.459C409.044 153.893 411.792 156.313 412.521 161.135C413.216 165.723 411.096 170.87 411.009 176.145C411.792 181.419 414.51 185.145 413.926 190.268C414.13 198.363 410.79 208.186 409.458 213.353C408.126 218.53 409.613 227.028 407.775 233.296C406.594 237.324 403.244 240.28 400.798 244.809C399.228 249.339 399.685 255.159 397.278 259.946C394.934 264.617 390.053 268.708 387.135 272.618C384.213 277.411 384.69 280.966 382.016 284.516C378.758 288.836 373.769 290.726 369.194 295.021C365.489 300.198 364.555 304.265 360.777 307.669C356.936 311.127 352.4 311.638 346.779 314.989C341.163 319.216 339.812 323.838 335.1 326.677C330.481 329.458 324.549 327.812 319.113 330.573C314.553 334.212 311.46 338.585 306.617 340.377C301.736 342.184 294.01 340.762 289.891 341.775C285.773 343.665 281.373 347.614 276.102 348.486C270.501 349.416 264.837 348.247 258.822 347.619C253.678 347.868 247.892 350.756 241.804 350.493C233.772 350.098 230.407 347.307 218.903 344.21C208.557 342.257 203.296 344.273 196.542 342.004C190.941 340.124 190.931 337.889 180.541 332.522C171.823 328.426 171.225 331.08 166.936 328.577C162.293 325.864 160.737 321.895 154.285 317.911C148.98 314.965 146.821 314.692 143.651 311.96C139.319 308.224 138.969 304.864 132.838 297.943C129.395 294.739 125.316 293.385 122.544 289.859C118.864 285.174 120.215 282.529 114.896 274.566C110.71 267.875 108.24 268.371 106.407 264.875C104.015 260.311 104.69 259.444 101.768 250.702C100.295 244.746 97.4652 244.848 96.4052 241.829C94.65 236.822 95.2286 233.077 93.5025 226.351C92.1946 218.277 89.4669 216.562 88.6014 211.483C87.5803 205.522 90.3226 204.645 88.6403 193.186C88.3243 186.25 85.723 183.192 85.2368 178.088C85.6306 173.237 88.1298 173.388 89.1265 163.477C90.8186 154.823 87.2351 155.68 87.9645 151.74C88.791 147.274 91.4798 144.849 93.0163 138.688C95.2577 133.896 93.7651 130.701 95.0341 126.761C96.0552 123.605 99.5705 120.001 101.768 114.776C104.997 109.238 104.88 107.086 106.577 103.287C107.238 101.806 111.546 99.6779 114.41 93.8824C118.752 87.9895 116.822 88.3012 119.36 85.1891C122.384 81.4781 124.81 80.9229 130.455 74.8887C133.669 72.7702 137.787 66.6581 140.019 64.0136C141.915 61.7684 150.881 58.9681 155.252 54.9209C161.539 50.9712 168.025 44.0945 171.794 42.2244C176.525 39.8721 183.4 39.1951 187.829 37.3396C193.139 35.484 200.957 29.859 203.597 28.9726C207.448 27.6771 218.996 27.492 224.782 26.6251C231.443 25.7631 241.654 21.8134 249.579 21.755L249.584 21.7598Z" fill="url(#paint2_linear_172_7)"/>
<path fill-rule="evenodd" clip-rule="evenodd" d="M304.252 92.8841C304.252 92.8841 307.334 93.2766 310.515 94.6674C313.7 96.0582 313.802 95.6027 319.039 99.9641C324.276 104.321 342.596 122.445 351.579 141.446C361.369 162.148 367.564 191.515 355.502 224.627C343.436 257.745 320.588 278.689 293.382 289.336C259.284 302.677 235.938 302.134 206.265 290.145C176.593 278.156 158.405 254.939 150.257 239.194C140.208 219.791 135.845 196.317 139.177 171.166C142.509 146.016 152.294 129.995 160.476 119.867C168.048 110.499 174.472 104.025 178.058 101.854C181.649 99.683 186.001 95.467 193.49 96.8336C194.648 97.0468 180.442 66.0664 180.442 66.0664C180.442 66.0664 179.548 72.4583 173.999 76.8924C169.656 80.3621 160.511 86.6861 153.54 93.7855C146.568 100.885 129.011 126.021 124.228 139.333C119.211 153.294 110.281 186.751 118.728 215.72C127.169 244.685 140.31 270.751 162.264 289.801C184.209 308.85 214.521 321.503 249.123 321.489C283.729 321.474 323.358 306.001 347.168 280.487C363.108 263.41 387.192 221.186 385.326 187.846C383.46 154.501 370.847 121.563 355.932 105.28C341.023 88.9976 327.3 78.8501 325.165 76.5047C323.03 74.1592 319.406 67.3264 319.386 65.5285C319.367 63.7307 304.242 92.889 304.242 92.889L304.252 92.8841Z" fill="url(#paint3_linear_172_7)"/>
<path fill-rule="evenodd" clip-rule="evenodd" d="M234.429 166.775C234.955 154.202 226.727 139.375 226.079 128.356C226.386 113.154 229.222 104.284 234.032 101.515C238.283 99.0765 241.706 96.3862 247.88 96.375C254.855 96.3638 259.911 98.1536 262.383 99.3282C267.059 103.008 273.279 108.45 273.569 122.26C273.804 134.201 262.456 158.587 263.698 167.564C263.983 169.639 265.985 170.97 267.652 171.518C276.4 174.393 293.436 168.369 311.597 165.271C322.582 163.397 330.787 166.859 333.695 170.332C335.479 172.463 337.856 177.693 337.649 185.361C337.487 191.413 335.468 198.376 333.466 201.066C329.002 209.959 315.036 210.149 303.822 206.659C292.278 202.733 275.728 198.891 269.229 200.787C266.807 201.491 264.453 202.437 263.692 205.535C261.539 214.288 266.421 230.944 269.705 244.139C272.624 252.562 270.286 266.645 264.056 271.041C261.253 273.748 254.637 275.471 250.073 275.46C241.253 275.437 238.372 273.586 235.218 271.187C226.733 264.738 224.278 254.654 227.701 243.579C230.38 234.916 238.406 211.687 235.028 204.987C234.396 202.347 232.874 200.619 230.866 200.395C222.521 199.478 195.887 208.298 187.486 207.839C175.21 208.41 168.627 206.542 164.029 200.792C161.003 197.006 160.416 193.963 160.075 188.135C159.638 180.691 161.618 173.716 163.632 171.921C166.535 169.337 175.008 160.763 189.103 163.598C205.826 166.96 218.763 172.374 229.278 171.921C231.756 171.814 234.34 168.71 234.418 166.781L234.429 166.775Z" fill="url(#paint4_linear_172_7)"/>
<defs>
<linearGradient id="paint0_linear_172_7" x1="110.127" y1="379.856" x2="111.481" y2="470.642" gradientUnits="userSpaceOnUse">
<stop stop-color="#FACD00"/>
<stop offset="0.519728" stop-color="#FF7C00"/>
<stop offset="1" stop-color="#FD015C"/>
</linearGradient>
<linearGradient id="paint1_linear_172_7" x1="182.198" y1="412.396" x2="403.776" y2="467.66" gradientUnits="userSpaceOnUse">
<stop stop-color="#2B1A0A"/>
<stop offset="1" stop-color="#1F1104"/>
</linearGradient>
<linearGradient id="paint2_linear_172_7" x1="251.19" y1="80.3805" x2="280.542" y2="333.887" gradientUnits="userSpaceOnUse">
<stop stop-color="#FACD00"/>
<stop offset="0.504" stop-color="#FF7C00"/>
<stop offset="1" stop-color="#FD015C"/>
</linearGradient>
<linearGradient id="paint3_linear_172_7" x1="251.19" y1="80.3805" x2="280.542" y2="333.887" gradientUnits="userSpaceOnUse">
<stop stop-color="#FACD00"/>
<stop offset="0.504" stop-color="#FF7C00"/>
<stop offset="1" stop-color="#FD015C"/>
</linearGradient>
<linearGradient id="paint4_linear_172_7" x1="251.19" y1="80.3805" x2="280.542" y2="333.887" gradientUnits="userSpaceOnUse">
<stop stop-color="#FACD00"/>
<stop offset="0.504" stop-color="#FF7C00"/>
<stop offset="1" stop-color="#FD015C"/>
</linearGradient>
</defs>
</svg>
