<svg width="511" height="512" viewBox="0 0 511 512" fill="none" xmlns="http://www.w3.org/2000/svg">
<path d="M79.7631 446.802L113.344 362.598L122.433 362.598L155.887 446.802L146.167 446.802L117.005 371.056L118.898 370.804L89.61 446.802L79.7631 446.802ZM94.5335 420.543L98.447 411.833L139.728 411.833L140.359 420.543L94.5335 420.543Z" fill="url(#paint0_linear_172_19)"/>
<path d="M171.542 471.167C170.28 471.167 169.144 471.04 168.134 470.788C167.124 470.535 166.282 470.283 165.609 470.03V461.698C166.198 461.951 166.955 462.203 167.881 462.456C168.807 462.708 169.859 462.835 171.037 462.835C173.899 462.835 176.213 462.035 177.981 460.436C179.748 458.837 181.221 456.691 182.399 453.998C183.662 451.304 184.798 448.317 185.808 445.034V448.695L159.044 383.807L169.396 383.807L190.352 437.586L188.459 437.586L209.289 383.807L218.378 383.807L191.362 452.988C189.427 457.953 187.28 461.74 184.924 464.349C182.652 466.958 180.337 468.726 177.981 469.652C175.708 470.662 173.562 471.167 171.542 471.167ZM258.256 448.695C252.28 448.695 247.104 447.475 242.728 445.034C238.352 442.51 234.985 438.764 232.629 433.799C230.272 428.833 229.094 422.647 229.094 415.241C229.094 404.384 231.535 396.263 236.416 390.876C241.382 385.406 248.157 382.671 256.741 382.671C263.474 382.671 268.86 384.186 272.9 387.215C277.024 390.245 279.97 394.327 281.737 399.461C283.504 404.595 284.346 410.402 284.262 416.882L233.639 416.882L234.27 408.55L278.328 408.55L274.794 409.813C274.541 403.501 272.942 398.788 269.996 395.674C267.135 392.56 262.716 391.003 256.741 391.003C252.617 391.003 249.166 391.76 246.389 393.275C243.696 394.79 241.676 397.441 240.329 401.228C238.983 404.931 238.31 410.149 238.31 416.882C238.31 424.541 240.077 430.39 243.612 434.43C247.231 438.386 252.28 440.363 258.761 440.363C261.875 440.363 264.736 440.153 267.345 439.732C269.954 439.227 272.353 438.554 274.541 437.712C276.729 436.871 278.665 435.945 280.348 434.935V444.277C277.318 445.708 273.952 446.802 270.249 447.559C266.63 448.317 262.632 448.695 258.256 448.695ZM324.896 447.812C320.435 447.812 316.69 446.465 313.66 443.772C310.631 440.995 309.116 436.913 309.116 431.526V392.139L298.133 392.139V383.807L309.116 383.807V366.007L318.205 366.007V383.807L334.49 383.807V392.139L318.205 392.139V428.623C318.205 432.158 318.752 434.809 319.846 436.576C320.94 438.344 323.171 439.227 326.537 439.227C328.052 439.227 329.525 439.101 330.956 438.848C332.386 438.512 333.565 438.133 334.49 437.712V446.297C333.312 446.718 331.797 447.054 329.946 447.307C328.178 447.643 326.495 447.812 324.896 447.812ZM381.109 448.695C375.555 448.695 370.8 447.728 366.844 445.792C362.888 443.856 359.859 441.037 357.755 437.334C355.735 433.63 354.725 429.086 354.725 423.699V383.807L363.814 383.807V421.68C363.814 428.076 365.203 432.789 367.98 435.819C370.842 438.764 375.218 440.237 381.109 440.237C387.001 440.237 391.335 438.764 394.112 435.819C396.974 432.789 398.405 428.076 398.405 421.68V383.807L407.494 383.807V423.699C407.494 431.695 405.18 437.881 400.551 442.257C396.006 446.549 389.526 448.695 381.109 448.695Z" fill="url(#paint1_linear_172_19)"/>
<path fill-rule="evenodd" clip-rule="evenodd" d="M241.196 17.5954C243.204 17.3873 251.485 15.3278 262.475 16.2253C271.136 16.932 277.811 21.2937 281.451 21.931C286.831 22.8719 288.559 21.8963 297.558 24.6668C308.621 28.0746 309.271 32.6141 314.391 35.3715C319.166 37.5654 317.317 32.7355 327.433 39.1609C337.549 45.5863 336.471 47.3033 340.362 50.5463C345.154 53.8804 344.812 49.4884 353.439 58.8838C362.061 68.2791 359.936 69.7706 363.304 73.9588C366.537 77.1282 366.87 71.9254 373.506 80.7138C380.142 89.5021 378.579 91.18 381.051 95.6371C384.44 100.307 387.444 100.302 391.002 108.08C394.56 115.859 395.118 121.517 397.456 127.721C398.806 131.315 400.235 128.18 402.823 137.246C405.407 146.312 403.814 149.629 404.814 155.035C405.619 159.38 407.316 154.84 408.554 166.447C409.792 178.053 407.048 177.078 406.589 181.917C406.953 183.915 408.71 183.282 408.71 188.854C408.71 194.425 407.753 196.085 407.022 198.869C406.914 203.864 407.55 203.946 406.126 210.415C404.698 216.884 402.252 221.982 400.096 227.874C399.066 232.618 399.707 237.257 396.915 242.303C394.123 247.35 392.063 249.8 390.097 253.498C387.816 258.627 387.526 262.759 384.003 268.673C380.479 274.587 377.428 277.158 374.125 280.813C371.87 284.871 373.212 285.313 367.433 291.843C361.655 298.372 358.365 298.801 354.603 302.057C350.664 306.272 353.365 307.026 344.275 314.158C335.186 321.29 332.424 320.111 326.944 322.869C322.931 325.982 322.403 328.596 315.975 331.917C309.548 335.238 306.73 334.115 302.228 335.442C297.185 337.757 297.354 340.363 287.238 342.674C277.123 344.989 275.361 340.48 270.79 343.211C265.799 346.19 263.951 347.4 254.025 348.293C244.096 349.186 243.576 346.264 237.776 345.847C228.729 346.194 221.795 348.288 211.169 346.693C200.542 345.093 196.867 340.697 189.686 338.043C183.522 336.491 178.462 337.64 170.835 334.544C163.208 331.449 163.104 327.339 158.131 324.169C153.915 321.767 149.032 322.201 143.258 317.878C137.484 313.551 137.692 309.905 134.714 306.827C130.021 302.985 124.689 301.563 120.767 296.707C116.845 291.851 117.486 288.699 114.582 284.299C111.53 279.681 105.751 277.37 101.726 269.987C97.7219 262.646 100.674 263.67 98.83 260.435C96.709 255.917 92.8134 252.679 90.2812 246.587C87.749 240.496 89.9522 239.78 88.4415 236.155C87.0694 231.464 83.8143 229.999 82.018 221.609C80.2216 213.22 82.347 211.932 81.083 206.673C80.3558 200.829 76.4082 193.709 76.4082 188.429C76.4082 183.148 78.8885 180.26 78.8711 175.456C78.8538 170.561 75.9191 165.285 76.8151 159.003C77.7068 152.72 80.0269 151.281 80.6458 146.408C81.9617 142.696 79.9663 140.346 82.4941 133.275C85.022 126.203 87.3118 125.8 88.8701 120.827C90.8352 117.502 89.6449 114.319 92.8134 108.349C95.9819 102.379 98.0076 102.96 99.6914 99.5392C102.02 96.3351 100.903 94.0156 104.795 88.4659C108.686 82.9163 109.275 85.2575 110.946 82.6301C114.841 78.1644 114.655 75.1815 120.858 67.4987C127.061 60.5964 130.831 61.9447 135.575 57.9169C139.168 54.869 141.003 50.0304 146.613 46.0199C152.223 42.0051 157.062 42.2999 162.022 39.2736C166.888 36.7416 167.883 32.7702 175.882 29.1586C183.881 25.547 192.487 25.8851 195.352 24.966C199.516 23.8994 206.156 18.3108 217.151 16.9234C230.331 15.2585 237.421 17.9856 241.191 17.5954H241.196ZM242.105 35.3715C248.268 35.3282 253.913 38.6103 259.376 38.8401C264.838 39.0699 271.179 38.0163 276.798 39.3864C281.122 40.4399 284.234 44.5718 288.81 46.2107C293.385 47.8495 298.973 46.6312 303.518 48.7297C308.245 50.9149 312.08 56.2737 315.69 58.7841C320.083 61.2901 326.109 61.5979 330.277 64.7239C333.415 67.0782 334.22 70.6117 337.332 74.3924C341.228 78.1731 347.215 79.4218 350.82 83.3715C354.525 87.4297 356.616 93.7207 358.542 96.9378C361.248 100.159 366.221 103.359 368.463 107.122C370.731 110.929 370.861 117.35 372.35 119.96C373.839 123.346 378.566 127.417 380.168 131.848C381.921 136.7 381.414 142.328 382.739 147.275C384.063 153.002 386.509 155.157 387.158 159.449C387.777 163.533 385.89 168.116 385.812 172.812C386.509 177.507 388.929 180.824 388.409 185.385C388.591 192.591 385.617 201.336 384.431 205.936C383.245 210.545 384.57 218.111 382.934 223.691C381.882 227.276 378.899 229.908 376.722 233.94C375.324 237.972 375.731 243.153 373.588 247.415C371.502 251.573 367.156 255.215 364.559 258.697C361.958 262.963 362.382 266.128 360.001 269.289C357.101 273.134 352.66 274.817 348.587 278.641C345.288 283.249 344.457 286.87 341.094 289.9C337.674 292.979 333.636 293.434 328.632 296.417C323.633 300.18 322.429 304.295 318.235 306.822C314.123 309.298 308.842 307.832 304.003 310.291C299.943 313.53 297.19 317.423 292.878 319.018C288.533 320.627 281.655 319.361 277.988 320.263C274.322 321.945 270.405 325.461 265.712 326.237C260.726 327.065 255.683 326.025 250.329 325.466C245.749 325.687 240.598 328.258 235.179 328.024C228.028 327.672 225.033 325.188 214.792 322.431C205.58 320.692 200.897 322.487 194.885 320.467C189.898 318.793 189.889 316.803 180.639 312.025C172.878 308.379 172.346 310.742 168.528 308.513C164.394 306.098 163.009 302.565 157.265 299.018C152.543 296.395 150.621 296.152 147.799 293.72C143.942 290.394 143.63 287.403 138.172 281.242C135.108 278.389 131.476 277.184 129.009 274.045C125.732 269.874 126.935 267.52 122.2 260.431C118.473 254.474 116.274 254.916 114.642 251.803C112.513 247.74 113.114 246.969 110.513 239.186C109.201 233.884 106.682 233.975 105.738 231.287C104.176 226.83 104.691 223.495 103.154 217.508C101.99 210.319 99.5616 208.793 98.7911 204.271C97.8821 198.964 100.323 198.184 98.8257 187.982C98.5443 181.808 96.2286 179.085 95.7957 174.542C96.1463 170.223 98.3712 170.358 99.2586 161.535C100.765 153.83 97.5748 154.593 98.224 151.086C98.9599 147.11 101.354 144.951 102.721 139.466C104.717 135.2 103.388 132.356 104.518 128.848C105.427 126.039 108.556 122.83 110.513 118.178C113.387 113.248 113.283 111.332 114.794 107.95C115.382 106.632 119.217 104.738 121.767 99.5782C125.632 94.3321 123.914 94.6095 126.173 91.8391C128.866 88.5353 131.026 88.041 136.051 82.6692C138.912 80.7831 142.579 75.3419 144.565 72.9876C146.253 70.9889 154.235 68.4959 158.127 64.893C163.723 61.3768 169.498 55.2548 172.852 53.5899C177.064 51.4958 183.185 50.8932 187.128 49.2413C191.855 47.5894 198.815 42.5817 201.165 41.7926C204.594 40.6394 214.874 40.4746 220.025 39.7029C225.955 38.9354 235.045 35.4192 242.1 35.3672L242.105 35.3715Z" fill="url(#paint2_linear_172_19)"/>
<path fill-rule="evenodd" clip-rule="evenodd" d="M290.772 98.6895C290.772 98.6895 293.517 99.0389 296.348 100.277C299.183 101.515 299.275 101.11 303.937 104.992C308.599 108.871 324.908 125.006 332.905 141.921C341.621 160.351 347.135 186.494 336.398 215.973C325.656 245.455 305.316 264.101 281.096 273.579C250.74 285.456 229.956 284.973 203.54 274.3C177.125 263.626 160.933 242.958 153.679 228.941C144.733 211.667 140.85 190.77 143.816 168.38C146.782 145.989 155.493 131.727 162.777 122.71C169.518 114.371 175.237 108.608 178.429 106.675C181.626 104.742 185.501 100.989 192.168 102.205C193.199 102.395 180.552 74.8152 180.552 74.8152C180.552 74.8152 179.756 80.5055 174.815 84.4529C170.949 87.5418 162.808 93.1717 156.602 99.4919C150.396 105.812 134.766 128.189 130.508 140.04C126.041 152.469 118.091 182.254 125.611 208.043C133.126 233.829 144.825 257.034 164.369 273.993C183.905 290.952 210.89 302.216 241.694 302.203C272.502 302.19 307.781 288.415 328.978 265.702C343.169 250.499 364.61 212.91 362.948 183.229C361.287 153.543 350.058 124.22 336.78 109.725C323.507 95.2295 311.291 86.1958 309.391 84.1078C307.49 82.0197 304.263 75.9369 304.246 74.3363C304.228 72.7358 290.764 98.6938 290.764 98.6938L290.772 98.6895Z" fill="url(#paint3_linear_172_19)"/>
<path fill-rule="evenodd" clip-rule="evenodd" d="M228.613 164.47C229.081 153.277 221.757 140.077 221.179 130.268C221.453 116.735 223.978 108.838 228.26 106.373C232.044 104.202 235.091 101.807 240.588 101.797C246.797 101.787 251.298 103.381 253.499 104.426C257.662 107.703 263.199 112.547 263.458 124.841C263.667 135.472 253.564 157.181 254.669 165.172C254.923 167.02 256.706 168.205 258.19 168.693C265.977 171.252 281.144 165.889 297.311 163.131C307.09 161.463 314.395 164.545 316.984 167.637C318.572 169.534 320.689 174.19 320.504 181.016C320.36 186.404 318.562 192.603 316.78 194.998C312.806 202.915 300.373 203.084 290.39 199.977C280.113 196.482 265.38 193.061 259.594 194.749C257.438 195.376 255.342 196.218 254.664 198.976C252.747 206.769 257.094 221.597 260.017 233.343C262.616 240.841 260.535 253.379 254.988 257.293C252.493 259.703 246.603 261.236 242.54 261.226C234.688 261.206 232.124 259.558 229.315 257.422C221.762 251.681 219.576 242.704 222.623 232.845C225.008 225.132 232.153 204.453 229.146 198.488C228.583 196.138 227.229 194.6 225.441 194.4C218.012 193.584 194.302 201.436 186.823 201.028C175.893 201.536 170.033 199.872 165.94 194.754C163.246 191.383 162.723 188.674 162.42 183.486C162.031 176.859 163.794 170.65 165.586 169.051C168.171 166.751 175.714 159.118 188.262 161.642C203.15 164.635 214.666 169.455 224.027 169.051C226.233 168.957 228.534 166.193 228.603 164.475L228.613 164.47Z" fill="url(#paint4_linear_172_19)"/>
<path d="M251.401 496.4C249.634 496.4 248.151 495.867 246.951 494.8C245.751 493.7 245.151 492.083 245.151 489.95V474.35H240.801V471.05H245.151V464H248.751V471.05H255.201V474.35H248.751V488.8C248.751 490.2 248.967 491.25 249.401 491.95C249.834 492.65 250.717 493 252.051 493C252.651 493 253.234 492.95 253.801 492.85C254.367 492.717 254.834 492.567 255.201 492.4V495.8C254.734 495.967 254.134 496.1 253.401 496.2C252.701 496.333 252.034 496.4 251.401 496.4ZM273.515 496.75C271.148 496.75 269.098 496.267 267.365 495.3C265.632 494.3 264.298 492.817 263.365 490.85C262.432 488.883 261.965 486.433 261.965 483.5C261.965 479.2 262.932 475.983 264.865 473.85C266.832 471.683 269.515 470.6 272.915 470.6C275.582 470.6 277.715 471.2 279.315 472.4C280.948 473.6 282.115 475.217 282.815 477.25C283.515 479.283 283.848 481.583 283.815 484.15H263.765L264.015 480.85H281.465L280.065 481.35C279.965 478.85 279.332 476.983 278.165 475.75C277.032 474.517 275.282 473.9 272.915 473.9C271.282 473.9 269.915 474.2 268.815 474.8C267.748 475.4 266.948 476.45 266.415 477.95C265.882 479.417 265.615 481.483 265.615 484.15C265.615 487.183 266.315 489.5 267.715 491.1C269.148 492.667 271.148 493.45 273.715 493.45C274.948 493.45 276.082 493.367 277.115 493.2C278.148 493 279.098 492.733 279.965 492.4C280.832 492.067 281.598 491.7 282.265 491.3V495C281.065 495.567 279.732 496 278.265 496.3C276.832 496.6 275.248 496.75 273.515 496.75ZM299.109 496.75C297.309 496.75 295.792 496.567 294.559 496.2C293.359 495.833 292.109 495.317 290.809 494.65V490.85C291.842 491.417 292.759 491.9 293.559 492.3C294.359 492.7 295.175 493 296.009 493.2C296.842 493.367 297.792 493.45 298.859 493.45C300.525 493.45 301.875 493.083 302.909 492.35C303.975 491.617 304.509 490.667 304.509 489.5C304.509 488.567 304.242 487.85 303.709 487.35C303.209 486.85 302.559 486.433 301.759 486.1C300.959 485.767 300.125 485.417 299.259 485.05C298.292 484.783 297.309 484.5 296.309 484.2C295.342 483.867 294.442 483.45 293.609 482.95C292.809 482.417 292.159 481.75 291.659 480.95C291.159 480.117 290.909 479.05 290.909 477.75C290.909 476.483 291.159 475.4 291.659 474.5C292.192 473.6 292.875 472.867 293.709 472.3C294.542 471.7 295.475 471.267 296.509 471C297.542 470.733 298.575 470.6 299.609 470.6C301.109 470.6 302.392 470.8 303.459 471.2C304.525 471.6 305.625 472.05 306.759 472.55V476.15C305.492 475.483 304.359 474.95 303.359 474.55C302.359 474.117 301.175 473.9 299.809 473.9C298.442 473.9 297.209 474.183 296.109 474.75C295.042 475.283 294.509 476.117 294.509 477.25C294.509 478.183 294.775 478.933 295.309 479.5C295.875 480.033 296.609 480.467 297.509 480.8C298.409 481.1 299.375 481.4 300.409 481.7C301.242 481.967 302.109 482.267 303.009 482.6C303.909 482.9 304.742 483.317 305.509 483.85C306.275 484.35 306.892 485.017 307.359 485.85C307.859 486.683 308.109 487.75 308.109 489.05C308.109 490.817 307.659 492.283 306.759 493.45C305.859 494.583 304.709 495.417 303.309 495.95C301.942 496.483 300.542 496.75 299.109 496.75ZM324.211 496.4C322.445 496.4 320.961 495.867 319.761 494.8C318.561 493.7 317.961 492.083 317.961 489.95V474.35H313.611V471.05H317.961V464H321.561V471.05H328.011V474.35H321.561V488.8C321.561 490.2 321.778 491.25 322.211 491.95C322.645 492.65 323.528 493 324.861 493C325.461 493 326.045 492.95 326.611 492.85C327.178 492.717 327.645 492.567 328.011 492.4V495.8C327.545 495.967 326.945 496.1 326.211 496.2C325.511 496.333 324.845 496.4 324.211 496.4ZM336.025 473.05C336.825 472.65 337.642 472.3 338.475 472C339.342 471.667 340.209 471.4 341.075 471.2C341.975 471 342.875 470.85 343.775 470.75C344.709 470.65 345.642 470.6 346.575 470.6C349.009 470.6 350.942 470.967 352.375 471.7C353.809 472.4 354.842 473.433 355.475 474.8C356.142 476.167 356.475 477.817 356.475 479.75V496H352.875V479.75C352.875 479.15 352.792 478.517 352.625 477.85C352.492 477.183 352.209 476.55 351.775 475.95C351.342 475.317 350.675 474.817 349.775 474.45C348.875 474.05 347.675 473.85 346.175 473.85C345.142 473.85 344.075 473.933 342.975 474.1C341.875 474.267 340.759 474.517 339.625 474.85V496H336.025V473.05ZM376.292 496.75C373.926 496.75 371.876 496.267 370.142 495.3C368.409 494.3 367.076 492.817 366.142 490.85C365.209 488.883 364.742 486.433 364.742 483.5C364.742 479.2 365.709 475.983 367.642 473.85C369.609 471.683 372.292 470.6 375.692 470.6C378.359 470.6 380.492 471.2 382.092 472.4C383.726 473.6 384.892 475.217 385.592 477.25C386.292 479.283 386.626 481.583 386.592 484.15H366.542L366.792 480.85H384.242L382.842 481.35C382.742 478.85 382.109 476.983 380.942 475.75C379.809 474.517 378.059 473.9 375.692 473.9C374.059 473.9 372.692 474.2 371.592 474.8C370.526 475.4 369.726 476.45 369.192 477.95C368.659 479.417 368.392 481.483 368.392 484.15C368.392 487.183 369.092 489.5 370.492 491.1C371.926 492.667 373.926 493.45 376.492 493.45C377.726 493.45 378.859 493.367 379.892 493.2C380.926 493 381.876 492.733 382.742 492.4C383.609 492.067 384.376 491.7 385.042 491.3V495C383.842 495.567 382.509 496 381.042 496.3C379.609 496.6 378.026 496.75 376.292 496.75ZM402.686 496.4C400.919 496.4 399.436 495.867 398.236 494.8C397.036 493.7 396.436 492.083 396.436 489.95V474.35H392.086V471.05H396.436V464H400.036V471.05H406.486V474.35H400.036V488.8C400.036 490.2 400.253 491.25 400.686 491.95C401.119 492.65 402.003 493 403.336 493C403.936 493 404.519 492.95 405.086 492.85C405.653 492.717 406.119 492.567 406.486 492.4V495.8C406.019 495.967 405.419 496.1 404.686 496.2C403.986 496.333 403.319 496.4 402.686 496.4Z" fill="#3E3E3E"/>
<defs>
<linearGradient id="paint0_linear_172_19" x1="117.955" y1="354.165" x2="119.16" y2="434.987" gradientUnits="userSpaceOnUse">
<stop stop-color="#FACD00"/>
<stop offset="0.519728" stop-color="#FF7C00"/>
<stop offset="1" stop-color="#FD015C"/>
</linearGradient>
<linearGradient id="paint1_linear_172_19" x1="182.115" y1="383.133" x2="379.374" y2="432.332" gradientUnits="userSpaceOnUse">
<stop stop-color="#2B1A0A"/>
<stop offset="1" stop-color="#1F1104"/>
</linearGradient>
<linearGradient id="paint2_linear_172_19" x1="243.534" y1="87.5582" x2="269.665" y2="313.241" gradientUnits="userSpaceOnUse">
<stop stop-color="#FACD00"/>
<stop offset="0.504" stop-color="#FF7C00"/>
<stop offset="1" stop-color="#FD015C"/>
</linearGradient>
<linearGradient id="paint3_linear_172_19" x1="243.534" y1="87.5582" x2="269.665" y2="313.241" gradientUnits="userSpaceOnUse">
<stop stop-color="#FACD00"/>
<stop offset="0.504" stop-color="#FF7C00"/>
<stop offset="1" stop-color="#FD015C"/>
</linearGradient>
<linearGradient id="paint4_linear_172_19" x1="243.534" y1="87.5582" x2="269.665" y2="313.241" gradientUnits="userSpaceOnUse">
<stop stop-color="#FACD00"/>
<stop offset="0.504" stop-color="#FF7C00"/>
<stop offset="1" stop-color="#FD015C"/>
</linearGradient>
</defs>
</svg>
