<svg xmlns="http://www.w3.org/2000/svg" width="2.36in" height="3.56in" viewBox="0 0 169.99 256.25">
  <defs>
    <style>
      .cls-1 {
        fill: #231f20;
      }
    </style>
  </defs>
  <title>anchor-icons-v001</title>
  <g id="EOS_logo" data-name="EOS logo">
    <path class="cls-1" d="M170,205,143,80.59l-.1-.35-56.46-79a1.43,1.43,0,0,0-2.23,0L27.86,80.07l-.18.3L.63,204.58A1.39,1.39,0,0,0,1.26,206L84.6,256.36a1.39,1.39,0,0,0,.71.2,1.47,1.47,0,0,0,.7-.19l83.32-50A1.39,1.39,0,0,0,170,205ZM43.57,130.07,3.89,199,28.82,84.53ZM85.31,61.61l39.52,68.83L100.9,204.28l-31.2-.08-24-73.9Zm40.86,71.16,41.14,71.66L103,204.28Zm-25.92,73.5L85.31,252.38l-15-46.18ZM67.6,204.2l-64.32-.15,41.13-71.41Zm.64,2,15.29,47.18L5.15,206.05Zm34.11.08,63.1.14-78.37,47Zm64.35-6.93L127,130.21l14.8-45.67ZM140.88,80.88l-15.22,47L86.5,59.68a1.14,1.14,0,0,0-.19-.19V4.55ZM84.31,4.55V59.48a1.8,1.8,0,0,0-.19.2l-39.2,68.06L29.73,80.88Z"/>
  </g>
</svg>
