<svg xmlns="http://www.w3.org/2000/svg" width="3.12in" height="0.7in" viewBox="0 0 224.94 50.16">
  <defs>
    <style>
      .cls-1 {
        fill: #231f20;
      }
    </style>
  </defs>
  <title>anchor-icons-v001</title>
  <g id="EOS_text" data-name="EOS text">
    <g>
      <polygon class="cls-1" points="29.57 4.39 29.57 1.45 2.85 1.45 -0.09 1.45 -0.09 4.39 -0.09 23.76 -0.09 26.7 -0.09 46.08 -0.09 49.01 2.85 49.01 29.57 49.01 29.57 46.08 2.85 46.08 2.85 26.7 26.07 26.7 26.07 23.76 2.85 23.76 2.85 4.39 29.57 4.39"/>
      <path class="cls-1" d="M119.63,25.43c0,13.66-4.31,24.73-22,24.73-16.87,0-22-11.07-22-24.73S80.26.7,97.63.7C114.57.7,119.63,11.77,119.63,25.43Zm-22-21c-14.78,0-18.72,9.42-18.72,21s4.36,21,18.72,21c15.05,0,18.72-9.42,18.72-21S112,4.39,97.63,4.39Z"/>
      <path class="cls-1" d="M183.9,23.38h0c-9-2.59-13.27-4.42-13.27-10.11s5-8.84,12.77-8.84,12.06,2.84,12.06,2.84v-4S192.68.7,183.58.7C170.76.7,167.1,8.34,167.1,13.27c0,9.93,11.25,12.45,15.66,13.63h0c9,2.59,13.27,4.42,13.27,10.1s-5,8.85-12.76,8.85S171.2,43,171.2,43v4s2.78,2.53,11.88,2.53c12.82,0,16.49-7.65,16.49-12.58C199.57,27.08,188.32,24.55,183.9,23.38Z"/>
      <g>
        <path class="cls-1" d="M211.52,2.1h-2.64v-1h6.42v1h-2.65V9.82h-1.13Z"/>
        <path class="cls-1" d="M223.57,6c-.06-1.21-.14-2.66-.12-3.74h0c-.3,1-.66,2.11-1.1,3.29l-1.53,4.21h-.85l-1.4-4.13c-.41-1.22-.76-2.34-1-3.37h0c0,1.08-.09,2.53-.16,3.83l-.24,3.72H216l.6-8.67h1.43l1.48,4.19c.36,1.07.65,2,.87,2.92h0c.22-.87.53-1.83.91-2.92l1.55-4.19h1.43l.54,8.67h-1.1Z"/>
      </g>
    </g>
  </g>
</svg>
