<?xml version="1.0" encoding="utf-8"?>
<!-- Generator: Adobe Illustrator 15.0.0, SVG Export Plug-In . SVG Version: 6.00 Build 0)  -->
<!DOCTYPE svg PUBLIC "-//W3C//DTD SVG 1.1//EN" "http://www.w3.org/Graphics/SVG/1.1/DTD/svg11.dtd">
<svg version="1.1" id="Layer_1" xmlns="http://www.w3.org/2000/svg" xmlns:xlink="http://www.w3.org/1999/xlink" x="0px" y="0px"
	 width="350.982px" height="334.484px" viewBox="0 0 350.982 334.484" enable-background="new 0 0 350.982 334.484"
	 xml:space="preserve">
<g>
	<path fill="#EFAC37" stroke="#EFAC37" stroke-width="5" stroke-miterlimit="10" d="M97.876,141.11c4.113,0,7.827-2.43,9.509-6.132
		h33.509l32.833-99.018c4.03-0.533,7.434-3.38,8.631-7.313c0.812-2.671,0.535-5.498-0.779-7.961
		c-1.315-2.464-3.509-4.268-6.181-5.08c-5.509-1.676-11.364,1.444-13.041,6.959c-1.196,3.933,0.047,8.192,3.097,10.878
		l-30.968,92.892h-27.103c-1.682-3.702-5.396-6.131-9.508-6.131c-5.763,0-10.452,4.689-10.452,10.453
		C87.424,136.421,92.114,141.11,97.876,141.11"/>
	<path fill="#EFAC37" stroke="#EFAC37" stroke-width="5" stroke-miterlimit="10" d="M116.066,219.954
		c-4.047,0.403-7.54,3.142-8.861,7.035c-0.896,2.645-0.71,5.48,0.526,7.982c1.236,2.503,3.372,4.376,6.016,5.271
		c1.108,0.378,2.238,0.556,3.348,0.556c4.357,0,8.434-2.746,9.909-7.097c1.32-3.893,0.212-8.191-2.752-10.972l9.324-27.496
		l-91.709-65.769c0.789-3.988-0.813-8.125-4.154-10.522c-2.269-1.627-5.035-2.275-7.791-1.818c-2.754,0.453-5.168,1.953-6.795,4.221
		c-3.358,4.683-2.28,11.227,2.403,14.586c3.342,2.396,7.776,2.586,11.3,0.558l86.501,62.037L116.066,219.954z"/>
	<path fill="#EFAC37" stroke="#EFAC37" stroke-width="5" stroke-miterlimit="10" d="M327.303,122.616
		c-1.972-1.953-4.581-3.027-7.354-3.027h-0.051c-4.112,0.021-7.814,2.467-9.479,6.176l-93.017,0.505l-6.686-21.617
		c3.039-2.702,4.262-6.967,3.046-10.894c-0.825-2.667-2.639-4.853-5.108-6.156c-2.471-1.304-5.301-1.565-7.965-0.742
		c-2.667,0.824-4.854,2.639-6.156,5.109c-1.303,2.469-1.566,5.298-0.741,7.965c1.215,3.929,4.633,6.759,8.666,7.273l8.577,27.734
		l99.425-0.536c1.693,3.68,5.395,6.087,9.489,6.087h0.048c5.764-0.028,10.431-4.739,10.403-10.502
		C330.387,127.201,329.287,124.581,327.303,122.616"/>
	<path fill="#EFAC37" stroke="#EFAC37" stroke-width="5" stroke-miterlimit="10" d="M261.438,294.602l-35.496-96.191l18.334-13.26
		c3.533,2.013,7.966,1.802,11.295-0.609c2.262-1.634,3.752-4.053,4.194-6.811c0.442-2.758-0.215-5.52-1.852-7.783
		c-1.636-2.262-4.055-3.751-6.812-4.192c-2.756-0.443-5.521,0.213-7.784,1.85c-3.33,2.41-4.916,6.555-4.11,10.54l-23.522,17.014
		l37.575,102.252c-2.954,2.794-4.043,7.095-2.707,10.983c1.487,4.33,5.552,7.057,9.894,7.057c1.125,0,2.267-0.184,3.389-0.568
		c2.639-0.906,4.768-2.788,5.995-5.297c1.225-2.511,1.399-5.345,0.492-7.985C268.988,297.712,265.485,294.992,261.438,294.602"/>
	<path fill="#EFAC37" stroke="#EFAC37" stroke-width="5" stroke-miterlimit="10" d="M210.244,247.092
		c-3.282-2.476-7.71-2.771-11.283-0.829l-23.184-17.473l-91.21,66.453c-3.539-1.999-7.973-1.776-11.295,0.646
		c-2.257,1.644-3.738,4.067-4.171,6.827c-0.433,2.757,0.233,5.521,1.878,7.775c1.644,2.256,4.068,3.738,6.827,4.171
		c0.55,0.086,1.099,0.13,1.645,0.13c2.193-0.001,4.325-0.69,6.132-2.008c3.323-2.421,4.895-6.57,4.075-10.554l86.032-62.683
		l18.068,13.618c-0.884,3.97,0.62,8.145,3.903,10.618c2.229,1.682,4.981,2.394,7.745,2.005c2.765-0.389,5.212-1.831,6.893-4.06
		c1.681-2.229,2.393-4.979,2.005-7.744C213.915,251.221,212.474,248.772,210.244,247.092"/>
</g>
</svg>
