<svg id="header-shards" xmlns="http://www.w3.org/2000/svg" width="4.32in" height="0.39in" viewBox="0 0 311 28.32">
  <defs>
    <style>
      .cls-1 {
        fill: #c5d92f;
      }

      .cls-2 {
        fill: #81c341;
      }

      .cls-3 {
        fill: #3bb14a;
      }

      .cls-4 {
        fill: #a8cf39;
      }

      .cls-5 {
        fill: #d6df28;
      }
    </style>
  </defs>
  <title>anchor-icons-v001</title>
  <g>
    <polygon class="cls-1" points="254.4 28.32 247.28 24.22 249.21 28.32 254.4 28.32"/>
    <polygon class="cls-2" points="249.21 28.32 247.28 24.22 243.65 27.91 244.05 28.32 249.21 28.32"/>
    <polygon class="cls-3" points="244.04 28.32 243.63 27.89 243.55 28.32 244.04 28.32"/>
    <polygon class="cls-3" points="265.32 28.32 254.88 21.52 255.54 28.32 265.32 28.32"/>
    <polygon class="cls-1" points="265.93 28.32 261.09 1.29 254.88 21.52 265.32 28.32 265.93 28.32"/>
    <polygon class="cls-4" points="254.88 21.52 242.61 18.09 261.09 1.29 254.88 21.52"/>
    <polygon class="cls-2" points="254.88 21.52 247.28 24.22 237.66 16.7 254.88 21.52"/>
    <polygon class="cls-4" points="255.54 28.32 254.88 21.52 247.28 24.22 254.4 28.32 255.54 28.32"/>
    <polygon class="cls-4" points="247.28 24.22 243.65 27.91 237.66 16.7 247.28 24.22"/>
    <polygon class="cls-2" points="243.63 27.89 233.5 20.67 239.61 20.37 243.63 27.89"/>
    <polygon class="cls-4" points="243.12 28.32 243.63 27.89 233.5 20.67 233.07 28.32 243.12 28.32"/>
    <polygon class="cls-2" points="243.55 28.32 243.63 27.89 243.12 28.32 243.55 28.32"/>
    <polygon class="cls-5" points="233.07 28.32 233.43 21.94 214.58 23.86 220.61 28.32 233.07 28.32"/>
    <polygon class="cls-4" points="220.6 28.32 212.25 22.16 209.91 28.32 220.6 28.32"/>
    <polygon class="cls-1" points="209.91 28.32 212.25 22.16 193.7 28.32 209.91 28.32"/>
    <polygon class="cls-2" points="193.7 28.32 212.25 22.16 197.96 13.73 193.13 28.32 193.7 28.32"/>
    <polygon class="cls-2" points="311 28.32 311 20.11 295.19 18.89 310.68 28.32 311 28.32"/>
    <polygon class="cls-4" points="310.68 28.32 295.19 18.89 298.27 28.32 310.68 28.32"/>
    <polygon class="cls-5" points="298.27 28.32 296.26 22.16 287.53 23.86 293.57 28.32 298.27 28.32"/>
    <polygon class="cls-4" points="293.55 28.32 285.19 22.16 282.85 28.32 293.55 28.32"/>
    <polygon class="cls-1" points="282.85 28.32 285.19 22.16 267.32 28.32 282.85 28.32"/>
    <polygon class="cls-2" points="267.32 28.32 285.19 22.16 262.9 11.4 265.93 28.32 267.32 28.32"/>
    <polygon class="cls-2" points="43.8 28.32 52.21 14.11 28.79 16.66 43.64 28.32 43.8 28.32"/>
    <polygon class="cls-4" points="43.64 28.32 28.79 16.66 32.6 28.32 43.64 28.32"/>
    <polygon class="cls-5" points="32.6 28.32 29.86 19.93 21.13 21.62 30.2 28.32 32.6 28.32"/>
    <polygon class="cls-4" points="30.19 28.32 18.79 19.93 15.89 28.32 30.19 28.32"/>
    <polygon class="cls-1" points="15.89 28.32 18.79 19.93 0.17 28.32 15.89 28.32"/>
    <polygon class="cls-2" points="0.17 28.32 18.79 19.93 0 17.58 0 28.32 0.17 28.32"/>
    <polygon class="cls-4" points="193.13 28.32 196.46 18.26 183.63 24.69 192.55 28.32 193.13 28.32"/>
    <polygon class="cls-2" points="192.55 28.32 183.63 24.69 185.18 28.32 192.55 28.32"/>
    <polygon class="cls-5" points="185.18 28.32 183.63 24.69 168.68 28.32 185.18 28.32"/>
    <polygon class="cls-1" points="140.91 28.32 139.37 27.56 140.24 28.32 140.91 28.32"/>
    <polygon class="cls-3" points="153.94 28.32 147.19 24.69 147.42 28.32 153.94 28.32"/>
    <polygon class="cls-1" points="158.66 28.32 159.48 13.43 147.19 24.69 153.94 28.32 158.66 28.32"/>
    <polygon class="cls-2" points="168.68 28.32 183.63 24.69 159.4 13.43 158.65 28.32 168.68 28.32"/>
    <polygon class="cls-4" points="147.19 24.69 136.73 17.81 154.94 17.58 147.19 24.69"/>
    <polygon class="cls-1" points="147.19 24.69 139.37 27.56 132.83 15.31 147.19 24.69"/>
    <polygon class="cls-4" points="147.42 28.32 147.19 24.69 139.37 27.56 140.91 28.32 147.42 28.32"/>
    <polygon class="cls-4" points="140.24 28.32 139.37 27.56 139.56 28.32 140.24 28.32"/>
    <polygon class="cls-3" points="139.56 28.32 139.37 27.56 138.77 28.32 139.56 28.32"/>
    <polygon class="cls-3" points="135.45 28.32 132.82 15.31 125.6 23.86 131.64 28.32 135.45 28.32"/>
    <polygon class="cls-3" points="65.93 28.32 63.63 20.08 56.27 28.32 65.93 28.32"/>
    <polygon class="cls-3" points="52.21 14.11 39.42 15.5 52.19 3.93 52.21 14.11"/>
    <polygon class="cls-4" points="138.77 28.32 139.37 27.56 132.83 15.31 135.45 28.32 138.77 28.32"/>
    <polygon class="cls-1" points="102.67 28.32 104.2 25.37 95.56 28.32 102.67 28.32"/>
    <polygon class="cls-5" points="125.43 28.32 125.62 23.92 104.2 25.37 108.67 28.32 125.43 28.32"/>
    <polygon class="cls-5" points="75.1 28.32 90.22 16.8 73.43 12.68 74.98 28.32 75.1 28.32"/>
    <polygon class="cls-5" points="54.68 28.32 59.78 16.97 43.87 28.32 54.68 28.32"/>
    <polygon class="cls-4" points="131.6 28.32 125.6 23.92 125.42 28.32 131.6 28.32"/>
    <polygon class="cls-4" points="104.2 25.37 102.65 14.85 125.6 23.86 104.2 25.37"/>
    <polygon class="cls-1" points="90.22 16.82 102.09 10.36 104.2 25.37 90.22 16.82"/>
    <polygon class="cls-2" points="95.56 28.32 104.2 25.37 90.22 16.82 86.27 28.32 95.56 28.32"/>
    <polygon class="cls-2" points="74.87 28.32 63.63 20.08 65.93 28.32 74.87 28.32"/>
    <polygon class="cls-2" points="56.27 28.32 63.63 20.08 59.78 16.97 54.68 28.32 56.27 28.32"/>
    <polygon class="cls-2" points="67.48 12.45 73.43 12.68 63.63 20.08 67.48 12.45"/>
    <polygon class="cls-2" points="52.21 14.11 69.29 8.87 59.78 16.97 52.21 14.11"/>
    <polygon class="cls-4" points="108.67 28.32 104.2 25.37 102.67 28.32 108.67 28.32"/>
    <polygon class="cls-4" points="86.27 28.32 90.22 16.82 75.1 28.32 86.27 28.32"/>
    <polygon class="cls-4" points="74.98 28.32 73.43 12.68 63.63 20.08 74.87 28.32 74.98 28.32"/>
    <polygon class="cls-4" points="43.87 28.32 59.78 16.97 52.21 14.11 43.8 28.32 43.87 28.32"/>
    <polygon class="cls-4" points="52.21 14.11 64.31 10.36 52.19 0 52.21 14.11"/>
    <polygon class="cls-4" points="59.78 16.97 63.63 20.08 69.29 8.87 59.78 16.97"/>
  </g>
</svg>
