<svg xmlns="http://www.w3.org/2000/svg" width="4.31in" height="0.87in" viewBox="0 0 310.68 62.41">
  <defs>
    <style>
      .cls-1 {
        fill: #3bb14a;
      }

      .cls-2 {
        fill: #81c341;
      }

      .cls-3 {
        fill: #d6df28;
      }

      .cls-4 {
        fill: #a8cf39;
      }

      .cls-5 {
        fill: #c5d92f;
      }

      .cls-6 {
        fill: #80c342;
      }

      .cls-7 {
        fill: #c5d930;
      }
    </style>
  </defs>
  <title>anchor-icons-v001</title>
  <g id="Crystal-Banner">
    <g>
      <polygon class="cls-1" points="59.07 41.96 44.28 51.19 42.65 42.85 59.07 41.96"/>
      <polygon class="cls-2" points="44.28 51.19 28.37 60.98 22.55 46.35 44.28 51.19"/>
      <polygon class="cls-3" points="59.07 41.96 69.16 55.01 76.73 43.29 59.07 41.96"/>
      <polygon class="cls-4" points="59.07 41.96 44.28 51.19 69.16 55.01 59.07 41.96"/>
      <polygon class="cls-5" points="50.93 25.12 22.55 46.35 42.65 42.85 50.93 25.12"/>
      <polygon class="cls-4" points="62.35 35.39 59.07 41.96 76.73 43.29 62.35 35.39"/>
      <polygon class="cls-5" points="50.93 25.12 59.07 41.96 62.35 35.39 50.93 25.12"/>
      <polygon class="cls-2" points="42.65 42.85 59.07 41.96 50.93 25.12 42.65 42.85"/>
      <polygon class="cls-3" points="23.97 25.64 50.93 25.11 22.55 46.34 23.97 25.64"/>
      <polygon class="cls-4" points="22.55 46.35 42.65 42.85 44.28 51.19 22.55 46.35"/>
      <polygon class="cls-5" points="62.35 35.39 69.16 22.19 61.25 26.5 62.35 35.39"/>
      <polygon class="cls-2" points="69.16 22.19 73.74 28.48 62.35 35.39 69.16 22.19"/>
      <polygon class="cls-1" points="76.73 43.29 73.74 28.48 62.35 35.39 76.73 43.29"/>
      <polygon class="cls-2" points="50.93 25.12 61.25 26.5 62.35 35.39 50.93 25.12"/>
      <polygon class="cls-1" points="50.93 25.12 61.85 19.3 61.25 26.5 50.93 25.12"/>
      <polygon class="cls-5" points="50.93 25.12 56.22 0 61.85 19.3 50.93 25.12"/>
      <polygon class="cls-2" points="23.97 25.65 50.93 25.12 53.58 12.56 23.97 25.65"/>
      <polygon class="cls-1" points="22.55 46.35 4.53 56.25 0.17 44.97 22.55 46.35"/>
      <polygon class="cls-5" points="0.17 26.73 22.55 46.35 23.97 25.65 0.17 26.73"/>
      <polygon class="cls-2" points="0.17 44.97 22.55 46.35 0.17 26.73 0.17 44.97"/>
      <polygon class="cls-3" points="0.17 26.73 26.7 17.94 23.97 25.65 0.17 26.73"/>
      <polygon class="cls-2" points="0.17 26.73 17.87 15.53 26.7 17.94 0.17 26.73"/>
      <polygon class="cls-4" points="61.85 19.3 73.6 16.25 56.22 0 61.85 19.3"/>
      <polygon class="cls-4" points="83.47 62.57 91.84 57.15 76.73 43.29 83.47 62.57"/>
      <polygon class="cls-2" points="61.85 19.3 69.16 22.19 78.31 15.02 61.85 19.3"/>
      <polygon class="cls-4" points="61.85 19.3 61.25 26.5 69.16 22.19 61.85 19.3"/>
      <polygon class="cls-4" points="69.16 22.19 73.74 28.48 78.31 15.02 69.16 22.19"/>
      <polygon class="cls-2" points="73.74 28.48 82.16 18.85 76.43 18.48 73.74 28.48"/>
      <polygon class="cls-4" points="73.74 28.48 82.86 33.86 82.16 18.85 73.74 28.48"/>
      <polygon class="cls-2" points="73.74 28.48 82.86 33.86 76.73 43.29 73.74 28.48"/>
      <polygon class="cls-5" points="102.29 20.43 104.7 6.25 118.4 10.88 102.29 20.43"/>
      <polygon class="cls-3" points="102.29 20.43 82.16 18.85 82.86 33.86 102.29 20.43"/>
      <polygon class="cls-4" points="102.29 20.43 104.7 6.25 82.16 18.85 102.29 20.43"/>
      <polygon class="cls-4" points="104.71 27.34 102.29 20.43 82.86 33.86 104.71 27.34"/>
      <polygon class="cls-5" points="120.19 26.7 102.29 20.43 104.71 27.34 120.19 26.7"/>
      <polygon class="cls-2" points="115.74 12.46 102.29 20.43 120.19 26.7 115.74 12.46"/>
      <polygon class="cls-4" points="129.01 23.23 120.19 26.7 117.13 16.89 129.01 23.23"/>
      <polygon class="cls-5" points="104.71 27.34 98.61 45.78 110.05 32.87 104.71 27.34"/>
      <polygon class="cls-2" points="98.61 45.78 89.42 41.64 104.71 27.34 98.61 45.78"/>
      <polygon class="cls-1" points="82.86 33.86 89.42 41.64 104.71 27.34 82.86 33.86"/>
      <polygon class="cls-1" points="69.16 55.01 83.47 62.57 76.73 43.29 69.16 55.01"/>
      <polygon class="cls-2" points="120.19 26.7 110.05 32.87 104.71 27.34 120.19 26.7"/>
      <polygon class="cls-1" points="120.19 26.7 105.64 45.77 110.05 32.87 120.19 26.7"/>
      <polygon class="cls-5" points="120.19 26.7 120.47 46.34 105.64 45.77 120.19 26.7"/>
      <polygon class="cls-2" points="129.01 23.23 120.19 26.7 120.47 46.34 129.01 23.23"/>
      <polygon class="cls-4" points="105.64 45.77 100.73 55.98 120.47 46.34 105.64 45.77"/>
      <polygon class="cls-1" points="105.64 45.77 98.61 45.78 100.73 55.98 105.64 45.77"/>
      <polygon class="cls-4" points="105.64 45.77 110.05 32.87 98.61 45.78 105.64 45.77"/>
      <polygon class="cls-4" points="98.61 45.78 89.42 41.64 100.73 55.98 98.61 45.78"/>
      <polygon class="cls-2" points="89.42 41.64 91.84 57.15 100.73 55.98 89.42 41.64"/>
      <polygon class="cls-3" points="89.42 41.64 76.73 43.29 91.84 57.15 89.42 41.64"/>
      <polygon class="cls-4" points="89.42 41.64 76.73 43.29 82.86 33.86 89.42 41.64"/>
      <polygon class="cls-1" points="143.64 49.38 127.09 52.44 120.47 46.34 143.64 49.38"/>
      <polygon class="cls-6" points="143.64 49.38 160.61 54.66 171.02 47.72 143.64 49.38"/>
      <polygon class="cls-4" points="156.64 39.82 143.64 49.38 171.02 47.72 156.64 39.82"/>
      <polygon class="cls-5" points="152.58 29.25 143.64 49.38 156.64 39.82 152.58 29.25"/>
      <polygon class="cls-2" points="120.47 46.34 143.64 49.38 152.58 29.25 120.47 46.34"/>
      <polygon class="cls-3" points="129.01 23.23 152.58 29.25 120.47 46.34 129.01 23.23"/>
      <polygon class="cls-5" points="156.64 39.82 170.81 26.32 162.89 30.63 156.64 39.82"/>
      <polygon class="cls-2" points="170.81 26.32 174.18 29.77 156.64 39.82 170.81 26.32"/>
      <polygon class="cls-1" points="171.02 47.72 174.18 29.77 156.64 39.82 171.02 47.72"/>
      <polygon class="cls-2" points="152.58 29.25 162.89 30.63 156.64 39.82 152.58 29.25"/>
      <polygon class="cls-1" points="152.58 29.25 163.5 23.43 162.89 30.63 152.58 29.25"/>
      <polygon class="cls-5" points="152.58 29.25 152.12 12.8 163.5 23.43 152.58 29.25"/>
      <polygon class="cls-2" points="129.01 23.23 152.58 29.25 152.12 12.8 129.01 23.23"/>
      <polygon class="cls-4" points="163.5 23.43 173.44 17.13 156.26 16.67 163.5 23.43"/>
      <polygon class="cls-5" points="163.5 23.43 170.81 26.32 177.17 14.77 163.5 23.43"/>
      <polygon class="cls-4" points="163.5 23.43 162.89 30.63 170.81 26.32 163.5 23.43"/>
      <polygon class="cls-4" points="170.81 26.32 174.18 29.77 177.17 14.77 170.81 26.32"/>
      <polygon class="cls-1" points="174.18 29.77 183.81 22.97 177.17 14.77 174.18 29.77"/>
      <polygon class="cls-4" points="174.18 29.77 184.5 37.99 183.81 22.97 174.18 29.77"/>
      <polygon class="cls-2" points="174.18 29.77 184.5 37.99 171.02 47.72 174.18 29.77"/>
      <polygon class="cls-5" points="203.93 24.56 206.34 10.38 217.38 16.59 203.93 24.56"/>
      <polygon class="cls-3" points="203.93 24.56 183.81 22.97 184.5 37.99 203.93 24.56"/>
      <polygon class="cls-4" points="203.93 24.56 205.61 14.67 183.81 22.97 203.93 24.56"/>
      <polygon class="cls-4" points="206.36 31.47 203.93 24.56 184.5 37.99 206.36 31.47"/>
      <polygon class="cls-5" points="221.84 30.82 203.93 24.56 206.36 31.47 221.84 30.82"/>
      <polygon class="cls-2" points="217.38 16.59 203.93 24.56 221.84 30.82 217.38 16.59"/>
      <polygon class="cls-4" points="230.73 27.65 221.84 30.82 217.38 16.59 230.73 27.65"/>
      <polygon class="cls-4" points="253.44 44.81 246.55 45.35 241.62 33.07 253.44 44.81"/>
      <polygon class="cls-4" points="262.33 45.77 252.12 55.01 253.44 44.81 262.33 45.77"/>
      <polygon class="cls-4" points="275.35 42.5 262.33 45.77 268.42 31.74 275.35 42.5"/>
      <polygon class="cls-4" points="252.12 55.01 234.54 50.37 246.55 45.35 252.12 55.01"/>
      <polygon class="cls-4" points="282.27 48.84 266.51 53.63 275.35 42.5 282.27 48.84"/>
      <polygon class="cls-4" points="268.42 31.74 246.11 27.03 247.97 20.01 268.42 31.74"/>
      <polygon class="cls-4" points="268.01 16.89 247.97 20.01 245.63 10.38 268.01 16.89"/>
      <polygon class="cls-6" points="275.35 42.5 268.42 31.74 279.74 22.93 275.35 42.5"/>
      <polygon class="cls-4" points="279.74 22.93 268.42 31.74 268.01 16.89 279.74 22.93"/>
      <polygon class="cls-5" points="206.36 31.47 200.26 49.91 213.55 37 206.36 31.47"/>
      <polygon class="cls-2" points="200.26 49.91 191.07 45.77 206.36 31.47 200.26 49.91"/>
      <polygon class="cls-1" points="184.5 37.99 191.07 45.77 206.36 31.47 184.5 37.99"/>
      <polygon class="cls-2" points="221.84 30.82 213.55 37 206.36 31.47 221.84 30.82"/>
      <polygon class="cls-1" points="221.84 30.82 208.73 49.38 213.55 37 221.84 30.82"/>
      <polygon class="cls-5" points="221.84 30.82 219.58 54.18 208.73 49.38 221.84 30.82"/>
      <polygon class="cls-2" points="230.73 27.65 221.84 30.82 219.58 54.18 230.73 27.65"/>
      <polygon class="cls-4" points="208.73 49.38 213.55 37 200.26 49.91 208.73 49.38"/>
      <polygon class="cls-3" points="191.07 45.77 171.02 47.72 183.3 55.98 191.07 45.77"/>
      <polygon class="cls-4" points="191.07 45.77 171.02 47.72 184.5 37.99 191.07 45.77"/>
      <polygon class="cls-2" points="246.11 27.03 241.62 33.07 230.73 27.65 246.11 27.03"/>
      <polygon class="cls-2" points="262.33 45.77 253.44 44.81 246.11 27.03 262.33 45.77"/>
      <polygon class="cls-3" points="233.53 15.58 217.38 16.59 230.73 27.65 233.53 15.58"/>
      <polygon class="cls-3" points="246.55 45.35 230.73 27.65 234.54 50.37 246.55 45.35"/>
      <polygon class="cls-3" points="275.35 42.5 262.33 45.77 266.51 53.7 275.35 42.5"/>
      <polygon class="cls-3" points="268.01 16.89 247.97 20.01 268.42 31.74 268.01 16.89"/>
      <polygon class="cls-2" points="230.73 27.65 234.12 13.07 247.97 20.01 230.73 27.65"/>
      <polygon class="cls-1" points="230.73 27.65 246.55 45.35 241.62 33.07 230.73 27.65"/>
      <polygon class="cls-1" points="246.11 27.03 262.33 45.77 268.42 31.74 246.11 27.03"/>
      <polygon class="cls-1" points="310.68 39.24 301.43 55.52 294.51 44.13 310.68 39.24"/>
      <polygon class="cls-4" points="310.68 27.65 294.36 26.36 293.24 16.2 310.68 27.65"/>
      <polygon class="cls-4" points="310.68 18.84 293.24 16.2 293.99 9.69 310.68 18.84"/>
      <polygon class="cls-2" points="310.68 39.24 294.51 44.13 294.36 26.36 310.68 39.24"/>
      <polygon class="cls-3" points="310.68 18.84 293.24 16.2 310.68 27.65 310.68 18.84"/>
      <polygon class="cls-1" points="294.36 26.36 310.68 39.24 310.68 27.65 294.36 26.36"/>
      <polygon class="cls-1" points="268.01 16.89 279.74 22.93 274.08 10.38 268.01 16.89"/>
      <polygon class="cls-4" points="294.51 44.13 275.35 42.5 279.74 22.93 294.51 44.13"/>
      <polygon class="cls-4" points="301.43 55.52 282.27 48.77 294.51 44.13 301.43 55.52"/>
      <polygon class="cls-3" points="294.51 44.13 279.74 22.93 294.36 26.36 294.51 44.13"/>
      <polygon class="cls-4" points="294.36 26.36 279.74 22.93 274.08 10.38 294.36 26.36"/>
      <polygon class="cls-2" points="294.51 44.13 275.35 42.5 282.27 48.84 294.51 44.13"/>
      <polygon class="cls-2" points="274.08 10.38 294.36 26.36 293.24 16.2 274.08 10.38"/>
      <polygon class="cls-1" points="246.55 45.35 252.12 55.01 253.44 44.81 246.55 45.35"/>
      <polygon class="cls-1" points="230.73 27.65 234.54 50.37 220.97 50.87 230.73 27.65"/>
      <polygon class="cls-7" points="246.11 27.03 230.73 27.65 247.97 20.01 246.11 27.03"/>
      <polygon class="cls-7" points="247.97 20.01 234.12 13.07 244.56 5.94 247.97 20.01"/>
      <polygon class="cls-7" points="253.44 44.81 241.62 33.07 246.11 27.03 253.44 44.81"/>
    </g>
  </g>
</svg>
