<?xml version="1.0" encoding="utf-8"?>
<svg width="256" height="256" viewBox="0 0 256 256" xmlns="http://www.w3.org/2000/svg">
  <defs>
    <style>
      .cls-1 {
        fill: #464646;
      }

      .cls-2 {
        fill: #939598;
      }

      .cls-3 {
        fill: #454545;
      }

      .cls-4 {
        fill: #818285;
      }
    </style>
  </defs>
  <title>greymass-logo</title>
  <g id="gm">
    <g/>
  </g>
  <g id="brain" style="" transform="matrix(0.429434, 0, 0, 0.429434, 18.051636, 18.075832)">
    <path class="cls-1" d="M508.21,218.21h0c-.25-1.9-.52-3.65-.84-5.36-.17-.89-.36-1.8-.55-2.69l-.56-2.41c-1.45-6.46-3.23-13-5.29-19.44-2.17-6.84-4.45-13-7-18.94a202,202,0,0,0-45-66.69,207.81,207.81,0,0,0-67.42-43.4,268.07,268.07,0,0,0-77.45-17.7,378.33,378.33,0,0,0-78.8,2.13,520.5,520.5,0,0,0-76.72,16.11,260.77,260.77,0,0,0-37.4,13.65A236.88,236.88,0,0,0,76.33,93.06c-23.75,16.12-42.62,35.5-56.09,57.62-7.73,12.84-12.95,25.83-15.52,38.64A82.52,82.52,0,0,0,3.23,211.1,60.72,60.72,0,0,0,9,233.28a52.62,52.62,0,0,0,6.36,10.06,29.66,29.66,0,0,0,2,2.32,31.68,31.68,0,0,0,2.3,2.32,40.93,40.93,0,0,0,5,4,52.94,52.94,0,0,0,10.79,5.47A94.52,94.52,0,0,0,46,260.59c3.36.8,6.6,1.46,9.75,2.1s6.2,1.26,9.1,2a54.59,54.59,0,0,1,13.25,4.83,184.31,184.31,0,0,0,17.22,16.36,190.29,190.29,0,0,0,20.59,15A211.08,211.08,0,0,0,138.18,313a230.14,230.14,0,0,0,23.45,9.4,243.4,243.4,0,0,0,48.93,10.85,266,266,0,0,0,49.78,1.15,254,254,0,0,0,49-8.32,201.64,201.64,0,0,0,46-18.94A147.26,147.26,0,0,0,376,292.93a109.06,109.06,0,0,0,17.56-18.21,85.31,85.31,0,0,0,12.28-22.25,72.39,72.39,0,0,0,4.47-24.95v-2.19l-7.48-.32-.19,2.17A66.92,66.92,0,0,1,397,248.89a75.4,75.4,0,0,1-12.17,18.75,102.62,102.62,0,0,1-16.75,15.16,133,133,0,0,1-19.5,11.79,186.1,186.1,0,0,1-43.42,14.92,237.16,237.16,0,0,1-45.76,5.43,246.59,246.59,0,0,1-90-14.6c-29.15-10.66-55.25-27.27-75.52-48.08l-1.41-1.39-1.22-.67a73.68,73.68,0,0,0-21.54-7.3c-3.55-.7-7-1.25-10.33-1.78-3.05-.49-5.94-1-8.72-1.5a66,66,0,0,1-8-2,32,32,0,0,1-6.51-3,21.46,21.46,0,0,1-2.63-1.93c-.4-.35-.79-.69-1.12-1l-.11-.11c-.31-.29-.68-.71-1.11-1.21a32.87,32.87,0,0,1-4.15-6.09,40.58,40.58,0,0,1-4.3-14.83,62.87,62.87,0,0,1,.7-16.66c1.78-10.53,6-21.61,12.45-32.94a148.12,148.12,0,0,1,22-29,188.15,188.15,0,0,1,28.07-24,227.81,227.81,0,0,1,67.22-31.54,486.3,486.3,0,0,1,74.28-15.74c12.82-1.6,25.51-2.59,37.7-3a328.53,328.53,0,0,1,37.67,1.17c5.43.46,11.35,1.19,18.6,2.3,6.63,1.09,12.64,2.27,18.36,3.61,6.66,1.6,12.55,3.22,18,5,6.06,2,11.93,4.13,17.46,6.42a187.38,187.38,0,0,1,61.11,40.51,183.24,183.24,0,0,1,39.86,61.15c2.19,5.4,4.17,11.09,6.06,17.4,1.8,5.94,3.33,12,4.56,17.91l.48,2.24c.14.72.27,1.39.38,2.09.23,1.32.41,2.69.57,4.18a77.54,77.54,0,0,1,.42,8.5,80.52,80.52,0,0,1-2,17,76.25,76.25,0,0,1-14.09,30.51,57.75,57.75,0,0,1-11.59,11.25A50,50,0,0,1,447,294.91c-1.32.42-2.55.77-3.75,1-.62.14-1.24.29-1.91.41l-2.92.64a33.83,33.83,0,0,0-13.37,6.85,30,30,0,0,0-9.19,13.48l-.73,2.19c-.21.6-.43,1.19-.67,1.78-.45,1.14-1,2.3-1.53,3.44-4.26,8.59-11.47,16-21.42,22.05a99.45,99.45,0,0,1-15.18,7.42,144,144,0,0,1-16.7,5.41c-5.46,1.45-11.21,2.67-17.57,3.75-5.78,1-11.85,1.8-18.07,2.39s-12.24,1-18.31,1.24c-3.12.11-6.17.18-9.07.2-1.51-.63-2.93-1.18-4.34-1.68a64.05,64.05,0,0,0-23.93-4.13,47.75,47.75,0,0,0-6.78.7c-1.15.2-2.29.47-3.39.73l-2.56.76c-.27.08-.65.22-1,.33a19.06,19.06,0,0,0-1.84.84,15.27,15.27,0,0,0-3.15,2.21,14.56,14.56,0,0,0-1.24,20.29,15.17,15.17,0,0,0,2.76,2.52l.23.17a17.87,17.87,0,0,0,2.63,1.47l.19.09c.69.31,1.22.5,1.61.64a33,33,0,0,0,3.85,1.09l.1,0c2.2.49,4.1.8,5.85,1.07a189.92,189.92,0,0,0,20.76,1.78c3.17.12,6.4.18,9.62.2,1.07.5,2.15,1,3.2,1.55a203.16,203.16,0,0,1,30.49,19.48,305.23,305.23,0,0,1,28.36,24.25c4.78,4.61,9,9,12.95,13.5,2.41,2.77,4.27,5.06,5.88,7.21a59.36,59.36,0,0,1,5,7.59l.91,1.68,6-2-.35-1.94a51.18,51.18,0,0,0-3.06-10.08,97.08,97.08,0,0,0-4.34-9.26,158,158,0,0,0-10.63-17.18,224.77,224.77,0,0,0-26.13-30.61c-2.48-2.41-5-4.73-7.47-6.94,3.52-.5,7-1.06,10.36-1.68,6.9-1.29,13.67-2.88,20.12-4.73,15.31-4.46,28.05-10.15,38.95-17.39a91.78,91.78,0,0,0,17.2-14.64,72.59,72.59,0,0,0,12.75-19.6c.8-1.82,1.52-3.66,2.14-5.48.32-.93.62-1.86.91-2.84l.69-2.46a4.91,4.91,0,0,1,1.43-2.3,9.3,9.3,0,0,1,3.49-2l1.81-.48c.94-.22,1.87-.48,2.8-.74,1.78-.51,3.57-1.1,5.49-1.82a73,73,0,0,0,19.88-11.3,81.72,81.72,0,0,0,15.4-16.19A99.9,99.9,0,0,0,507,250.31,106.54,106.54,0,0,0,509,229,100.44,100.44,0,0,0,508.21,218.21Z" style="fill: rgb(129, 130, 133);"/>
  </g>
</svg>