<?xml version="1.0" encoding="utf-8"?>
<svg viewBox="0 0 600 200" width="600px" height="200px" preserveAspectRatio="none" xmlns="http://www.w3.org/2000/svg">
  <g id="horiz-logo" style="" transform="matrix(1.155822, 0, 0, 1.155822, 4.111108, -195.843781)">
    <g>
      <path class="cls-1" d="M133.2,246h0c-.06-.51-.13-1-.22-1.43,0-.23-.09-.48-.15-.71l-.14-.65c-.39-1.71-.86-3.45-1.41-5.17s-1.18-3.47-1.85-5a53.63,53.63,0,0,0-12-17.74,55.22,55.22,0,0,0-17.94-11.55A71.23,71.23,0,0,0,78.91,199a100.77,100.77,0,0,0-21,.57,139.11,139.11,0,0,0-20.41,4.28,71.21,71.21,0,0,0-9.95,3.63,64.3,64.3,0,0,0-9.27,5.22A50,50,0,0,0,3.4,228,32.57,32.57,0,0,0-.73,238.26a22.3,22.3,0,0,0-.4,5.8A16.08,16.08,0,0,0,.42,250a14,14,0,0,0,1.69,2.67,7,7,0,0,0,.53.62c.21.24.44.46.61.62a10.27,10.27,0,0,0,1.34,1.06,13.55,13.55,0,0,0,2.87,1.46,23.83,23.83,0,0,0,2.8.83c.89.21,1.75.39,2.59.56s1.65.34,2.42.53a14.06,14.06,0,0,1,3.52,1.28,50,50,0,0,0,4.58,4.35,50.72,50.72,0,0,0,5.48,4,56.44,56.44,0,0,0,5.92,3.24A61.48,61.48,0,0,0,54,276.55a70.73,70.73,0,0,0,13.24.31,67.32,67.32,0,0,0,13-2.21,53.93,53.93,0,0,0,12.25-5A38.72,38.72,0,0,0,98,265.82a28.92,28.92,0,0,0,4.68-4.84,22.64,22.64,0,0,0,3.26-5.92,19.14,19.14,0,0,0,1.19-6.64v-.58l-2-.08,0,.57a17.76,17.76,0,0,1-1.5,5.78,20.22,20.22,0,0,1-3.23,5,27.6,27.6,0,0,1-4.46,4,36.07,36.07,0,0,1-5.19,3.14,49.66,49.66,0,0,1-11.55,4A63,63,0,0,1,67,271.68a65.56,65.56,0,0,1-23.95-3.88A54,54,0,0,1,23,255l-.38-.38-.32-.17a19.46,19.46,0,0,0-5.73-1.94c-1-.19-1.86-.34-2.75-.48s-1.58-.25-2.32-.4a16.58,16.58,0,0,1-2.14-.54,8.41,8.41,0,0,1-1.73-.78,5.79,5.79,0,0,1-.7-.52l-.3-.27,0,0a3.73,3.73,0,0,1-.29-.33,8.53,8.53,0,0,1-1.11-1.61A10.84,10.84,0,0,1,4,243.61a16.76,16.76,0,0,1,.18-4.43,26.87,26.87,0,0,1,3.32-8.76,39.58,39.58,0,0,1,5.84-7.73,50.68,50.68,0,0,1,7.47-6.37,60.67,60.67,0,0,1,17.88-8.38,128.28,128.28,0,0,1,19.76-4.19c3.41-.43,6.78-.69,10-.79a87.35,87.35,0,0,1,10,.31c1.44.13,3,.32,4.94.62,1.77.29,3.37.6,4.89,1,1.77.42,3.34.85,4.78,1.31,1.61.53,3.18,1.1,4.65,1.71a50,50,0,0,1,16.25,10.78,48.53,48.53,0,0,1,10.6,16.27c.59,1.43,1.11,3,1.62,4.62s.88,3.19,1.21,4.77l.13.6c0,.19.07.36.1.55q.09.53.15,1.11a18.4,18.4,0,0,1,.11,2.26,21.27,21.27,0,0,1-.52,4.53,20.18,20.18,0,0,1-3.75,8.11,15.3,15.3,0,0,1-3.08,3,13.32,13.32,0,0,1-3.7,1.88c-.35.11-.68.2-1,.28l-.51.11-.78.17a9.06,9.06,0,0,0-3.56,1.82,8,8,0,0,0-2.44,3.59l-.2.58c0,.16-.11.32-.17.47-.12.31-.26.61-.41.92a14.5,14.5,0,0,1-5.7,5.86,26.23,26.23,0,0,1-4,2,40,40,0,0,1-4.44,1.44c-1.45.38-3,.71-4.67,1s-3.15.48-4.81.64-3.25.27-4.87.33c-.83,0-1.64.05-2.41.05l-1.16-.45A17,17,0,0,0,69.4,284a12.57,12.57,0,0,0-1.81.18l-.9.2-.68.2-.25.09a4.12,4.12,0,0,0-1.33.81,3.88,3.88,0,0,0-.33,5.4,4,4,0,0,0,.74.67l.06,0a4.25,4.25,0,0,0,.7.39l.05,0,.43.17a10.3,10.3,0,0,0,1,.29h0c.58.14,1.09.22,1.55.29a48.26,48.26,0,0,0,5.53.47c.84,0,1.7.05,2.55.06l.85.41a53.9,53.9,0,0,1,8.12,5.18,85.05,85.05,0,0,1,7.54,6.45c1.27,1.23,2.4,2.4,3.44,3.59.64.74,1.14,1.35,1.57,1.92a16.81,16.81,0,0,1,1.32,2l.25.45,1.58-.54-.09-.51a13.81,13.81,0,0,0-.82-2.69,23.82,23.82,0,0,0-1.15-2.46,41.42,41.42,0,0,0-2.83-4.57,59.64,59.64,0,0,0-7-8.14c-.66-.64-1.33-1.26-2-1.85.94-.13,1.86-.28,2.76-.44,1.83-.35,3.63-.77,5.35-1.26a37.35,37.35,0,0,0,10.36-4.63,24.35,24.35,0,0,0,4.58-3.89,19.58,19.58,0,0,0,3.39-5.22c.21-.48.4-1,.57-1.46l.24-.75.18-.65a1.32,1.32,0,0,1,.39-.62,2.39,2.39,0,0,1,.92-.53l.48-.13.75-.2c.47-.13,1-.29,1.46-.48a19.71,19.71,0,0,0,5.29-3,21.7,21.7,0,0,0,4.09-4.3,26.47,26.47,0,0,0,4.48-10.53,28.45,28.45,0,0,0,.51-5.68A23.92,23.92,0,0,0,133.2,246Z" style="fill: rgb(129, 130, 133);"/>
      <g>
        <path class="cls-2" d="M237.46,208.44a17.26,17.26,0,0,1,7.09,9.65H238.5a12.81,12.81,0,0,0-5.25-6,16.35,16.35,0,0,0-8.72-2.27,16.7,16.7,0,0,0-8.12,1.95,14,14,0,0,0-5.64,5.56,16.94,16.94,0,0,0-2.05,8.49,17.15,17.15,0,0,0,2.08,8.63,14.13,14.13,0,0,0,5.76,5.58,17.85,17.85,0,0,0,8.47,2,17,17,0,0,0,7.49-1.63,14,14,0,0,0,5.57-4.74,15.33,15.33,0,0,0,2.62-7.29H223.27v-4h22.28v4.89A19,19,0,0,1,235,244.38a22.85,22.85,0,0,1-10.45,2.32,23.62,23.62,0,0,1-11.34-2.64,19.14,19.14,0,0,1-7.64-7.39,22.83,22.83,0,0,1,0-21.69,19.25,19.25,0,0,1,7.64-7.41,23.12,23.12,0,0,1,11.27-2.68A22.65,22.65,0,0,1,237.46,208.44Z" style="fill: rgb(147, 149, 152);"/>
        <path class="cls-2" d="M330.1,246.3l-11.58-16.75h-6.23V246.3h-5.73v-41h14.6q7.56,0,11.33,3.34a11.27,11.27,0,0,1,3.78,8.87,11,11,0,0,1-3,8.05q-3,3.06-8.75,3.81l12.09,16.93Zm-17.81-20.59h8.37q9.75,0,9.76-7.91t-9.76-7.91h-8.37Z" style="fill: rgb(147, 149, 152);"/>
        <path class="cls-2" d="M402.25,209.6v14h16.87v4.07H402.25V242H421v4.31H396.52v-41H421v4.3Z" style="fill: rgb(147, 149, 152);"/>
        <path class="cls-2" d="M513.17,205.3l-14.54,25.47V246.3h-5.79V230.77L478.23,205.3h6.68l10.89,19.83,10.83-19.83Z" style="fill: rgb(147, 149, 152);"/>
      </g>
      <g>
        <path class="cls-3" d="M251.94,270.26v41H239.67V288l-8.25,23.26H220.78L212.53,288v23.26h-12.4v-41H215.3l11,26.64,10.64-26.64Z" style="fill: rgb(69, 69, 69);"/>
        <path class="cls-3" d="M331.52,304.4h-15.8l-2.46,6.86h-13l16.3-41h14.3l16.24,41H334Zm-3.09-8.61-4.78-13.37-4.85,13.37Z" style="fill: rgb(69, 69, 69);"/>
        <path class="cls-3" d="M426.64,305.62A12.74,12.74,0,0,1,421.1,310a21.45,21.45,0,0,1-8.75,1.63q-7.74,0-12.75-3.43a12.27,12.27,0,0,1-5.44-9.77h13.16a4.4,4.4,0,0,0,1.44,3.19,4.67,4.67,0,0,0,3.09,1,3.91,3.91,0,0,0,2.55-.75,2.66,2.66,0,0,0,.91-2.16,3.15,3.15,0,0,0-1.82-2.87,31.88,31.88,0,0,0-5.8-2.24,60.31,60.31,0,0,1-6.95-2.62,12.66,12.66,0,0,1-4.72-3.84,10.35,10.35,0,0,1-2-6.57,10.49,10.49,0,0,1,2.14-6.6,13.2,13.2,0,0,1,5.86-4.19,23.39,23.39,0,0,1,8.43-1.42q7.68,0,12.25,3.34a12.13,12.13,0,0,1,5,9.39H414.43a4.48,4.48,0,0,0-1.29-2.85,4,4,0,0,0-2.74-.93,3.42,3.42,0,0,0-2.27.7,2.61,2.61,0,0,0-.81,2.09,3,3,0,0,0,1.79,2.74,34.16,34.16,0,0,0,5.63,2.21,59,59,0,0,1,7,2.73,13.54,13.54,0,0,1,4.79,3.9,10.39,10.39,0,0,1,2,6.63A10.86,10.86,0,0,1,426.64,305.62Z" style="fill: rgb(69, 69, 69);"/>
        <path class="cls-3" d="M509.87,305.62a12.8,12.8,0,0,1-5.54,4.42,21.49,21.49,0,0,1-8.75,1.63q-7.74,0-12.75-3.43a12.28,12.28,0,0,1-5.45-9.77h13.16a4.45,4.45,0,0,0,1.45,3.19,4.66,4.66,0,0,0,3.08,1,3.88,3.88,0,0,0,2.55-.75,2.66,2.66,0,0,0,.92-2.16,3.14,3.14,0,0,0-1.83-2.87,32,32,0,0,0-5.79-2.24,61.28,61.28,0,0,1-7-2.62,12.74,12.74,0,0,1-4.72-3.84,11.56,11.56,0,0,1,.16-13.17,13.22,13.22,0,0,1,5.85-4.19,23.45,23.45,0,0,1,8.44-1.42q7.68,0,12.24,3.34a12.11,12.11,0,0,1,5,9.39H497.66a4.48,4.48,0,0,0-1.29-2.85,4,4,0,0,0-2.74-.93,3.42,3.42,0,0,0-2.27.7,2.59,2.59,0,0,0-.82,2.09,3,3,0,0,0,1.8,2.74,33.8,33.8,0,0,0,5.63,2.21,59.73,59.73,0,0,1,7,2.73,13.51,13.51,0,0,1,4.78,3.9,10.34,10.34,0,0,1,2,6.63A10.86,10.86,0,0,1,509.87,305.62Z" style="fill: rgb(69, 69, 69);"/>
      </g>
      <rect class="cls-4" x="158.7" y="205.05" width="6.27" height="106.21" style="fill: rgb(70, 70, 70);"/>
    </g>
  </g>
</svg>