<?xml version="1.0" encoding="utf-8"?>
<svg viewBox="0 0 512 512" width="512px" height="512px" xmlns="http://www.w3.org/2000/svg">
  <g id="vert-logo" transform="matrix(0.99191, 0, 0, 0.99191, 2.06609, 2.067236)" style="">
    <g>
      <path class="cls-1" d="M406.79,119.22h0c-.17-1.27-.35-2.44-.57-3.59-.11-.59-.24-1.2-.36-1.79l-.38-1.62c-1-4.32-2.16-8.7-3.53-13-1.46-4.58-3-8.73-4.65-12.67a135.16,135.16,0,0,0-30.14-44.63,138.78,138.78,0,0,0-45.12-29A179,179,0,0,0,270.22,1,252.91,252.91,0,0,0,217.5,2.47a348.58,348.58,0,0,0-51.33,10.77,175.07,175.07,0,0,0-25,9.14,158.44,158.44,0,0,0-23.33,13.1C101.93,46.27,89.31,59.24,80.29,74A81.48,81.48,0,0,0,69.91,99.89a55.47,55.47,0,0,0-1,14.58,40.53,40.53,0,0,0,3.89,14.84A35.51,35.51,0,0,0,77,136c.39.48.83,1,1.33,1.55s1.11,1.15,1.54,1.55a26.08,26.08,0,0,0,3.37,2.67,34.9,34.9,0,0,0,7.22,3.67,62.66,62.66,0,0,0,7,2.1c2.24.53,4.41,1,6.52,1.4s4.15.85,6.09,1.33a36.51,36.51,0,0,1,8.86,3.23,122.78,122.78,0,0,0,11.52,10.94,128,128,0,0,0,13.78,10,142.41,142.41,0,0,0,14.89,8.15A157.87,157.87,0,0,0,174.89,189a163.23,163.23,0,0,0,32.74,7.26,179.52,179.52,0,0,0,33.31.77,170.34,170.34,0,0,0,32.76-5.57,135,135,0,0,0,30.79-12.67,98.6,98.6,0,0,0,13.83-9.52A73.13,73.13,0,0,0,330.07,157a57.07,57.07,0,0,0,8.22-14.88,48.66,48.66,0,0,0,3-16.7V124l-5-.21-.13,1.46a44.58,44.58,0,0,1-3.77,14.52,50.39,50.39,0,0,1-8.14,12.55A68.93,68.93,0,0,1,313,162.44a89.77,89.77,0,0,1-13,7.89,124.58,124.58,0,0,1-29.05,10,159,159,0,0,1-30.62,3.63,165,165,0,0,1-60.24-9.76A135.88,135.88,0,0,1,129.54,142l-.95-.94-.81-.45a49.67,49.67,0,0,0-14.41-4.88c-2.38-.47-4.68-.84-6.91-1.19-2-.33-4-.64-5.84-1a46.14,46.14,0,0,1-5.39-1.36,22,22,0,0,1-4.35-2,14.42,14.42,0,0,1-1.76-1.29c-.27-.24-.53-.46-.75-.7l-.08-.07c-.21-.2-.45-.48-.74-.81a22.86,22.86,0,0,1-2.78-4.07,27.41,27.41,0,0,1-2.87-9.93,42.09,42.09,0,0,1,.46-11.15,67.76,67.76,0,0,1,8.34-22,99.25,99.25,0,0,1,14.7-19.42,126.11,126.11,0,0,1,18.78-16,152.41,152.41,0,0,1,45-21.1,324.68,324.68,0,0,1,49.69-10.53c8.58-1.07,17.08-1.74,25.23-2a219.7,219.7,0,0,1,25.2.78c3.64.31,7.6.8,12.45,1.54,4.44.74,8.46,1.53,12.28,2.42,4.46,1.07,8.4,2.16,12,3.32,4.06,1.32,8,2.76,11.68,4.29a125.48,125.48,0,0,1,40.9,27.11,122.56,122.56,0,0,1,26.66,40.92c1.47,3.61,2.79,7.42,4.06,11.64,1.2,4,2.23,8,3.05,12l.32,1.5c.09.48.18.93.26,1.4.15.88.27,1.8.38,2.8a52.17,52.17,0,0,1-1,17.07,51,51,0,0,1-9.43,20.41,38.45,38.45,0,0,1-7.75,7.52,33.37,33.37,0,0,1-9.3,4.74c-.88.29-1.7.51-2.5.7-.42.1-.84.2-1.29.28l-2,.43a22.58,22.58,0,0,0-8.94,4.58,20,20,0,0,0-6.15,9l-.49,1.47c-.14.4-.29.79-.45,1.19-.3.76-.64,1.53-1,2.3-2.85,5.74-7.67,10.7-14.34,14.75a65.32,65.32,0,0,1-10.15,5,95.35,95.35,0,0,1-11.17,3.62c-3.66,1-7.5,1.79-11.76,2.51-3.86.67-7.93,1.21-12.09,1.6s-8.19.69-12.25.83c-2.09.07-4.13.12-6.07.14-1-.42-2-.79-2.91-1.13a42.77,42.77,0,0,0-16-2.76,31.55,31.55,0,0,0-4.54.47c-.77.13-1.53.31-2.27.49l-1.72.51c-.18.05-.43.14-.63.22a10.54,10.54,0,0,0-1.23.56,10,10,0,0,0-2.11,1.48,9.7,9.7,0,0,0-3.17,6.54,9.8,9.8,0,0,0,2.34,7,10.1,10.1,0,0,0,1.85,1.69l.16.11a11.3,11.3,0,0,0,1.75,1l.13,0c.46.21.82.34,1.08.43a22.71,22.71,0,0,0,2.57.74h.07c1.47.33,2.74.54,3.91.72a126.91,126.91,0,0,0,13.9,1.19c2.12.08,4.28.12,6.43.13l2.14,1a136.64,136.64,0,0,1,20.4,13,205.15,205.15,0,0,1,19,16.23c3.2,3.08,6,6,8.66,9,1.61,1.85,2.86,3.38,3.94,4.82a41.25,41.25,0,0,1,3.33,5.07l.61,1.13,4-1.35-.24-1.29a35.25,35.25,0,0,0-2-6.75,65.76,65.76,0,0,0-2.91-6.2,106.55,106.55,0,0,0-7.11-11.49,150.28,150.28,0,0,0-17.49-20.48c-1.66-1.61-3.33-3.17-5-4.64,2.35-.34,4.67-.71,6.93-1.13,4.62-.86,9.14-1.92,13.46-3.16a93.76,93.76,0,0,0,26.06-11.64,61.25,61.25,0,0,0,11.51-9.79,48.61,48.61,0,0,0,8.53-13.11c.54-1.22,1-2.46,1.43-3.68.22-.62.42-1.24.61-1.89l.46-1.65a3.31,3.31,0,0,1,1-1.54,6.23,6.23,0,0,1,2.34-1.35l1.21-.32c.62-.15,1.25-.32,1.87-.5,1.19-.34,2.39-.73,3.67-1.21a49,49,0,0,0,13.3-7.56,54.75,54.75,0,0,0,10.31-10.84A66.77,66.77,0,0,0,406,140.7a71,71,0,0,0,1.28-14.27A64.29,64.29,0,0,0,406.79,119.22Z" style="fill: rgb(129, 130, 133);"/>
      <g>
        <path class="cls-2" d="M128.21,377.78a22.4,22.4,0,0,1,9.19,12.53h-7.84a16.58,16.58,0,0,0-6.82-7.78,21.19,21.19,0,0,0-11.32-2.94,21.63,21.63,0,0,0-10.53,2.53,18.3,18.3,0,0,0-7.32,7.2,24.43,24.43,0,0,0,.05,22.23,18.21,18.21,0,0,0,7.47,7.24,23.11,23.11,0,0,0,11,2.53,22.18,22.18,0,0,0,9.72-2.11,18.38,18.38,0,0,0,7.23-6.15,19.85,19.85,0,0,0,3.39-9.47H109.79v-5.13h28.92v6.33a25.19,25.19,0,0,1-4.25,11.48,24.88,24.88,0,0,1-9.47,8.15,29.67,29.67,0,0,1-13.57,3A30.51,30.51,0,0,1,96.72,424a24.82,24.82,0,0,1-9.93-9.58,29.68,29.68,0,0,1,0-28.15,25.05,25.05,0,0,1,9.93-9.62,30,30,0,0,1,14.62-3.47Q121.39,373.18,128.21,377.78Z" style="fill: rgb(147, 149, 152);"/>
        <path class="cls-2" d="M248.43,426.91l-15-21.74h-8.08v21.74h-7.44V373.7h19q9.79,0,14.7,4.34a14.62,14.62,0,0,1,4.9,11.51A14.18,14.18,0,0,1,252.51,400q-3.91,4-11.35,4.95l15.68,22Zm-23.12-26.72h10.86q12.66,0,12.66-10.26t-12.66-10.26H225.31Z" style="fill: rgb(147, 149, 152);"/>
        <path class="cls-2" d="M342.05,379.29v18.18h21.89v5.29H342.05v18.56h24.34v5.59H334.61V373.7h31.78v5.59Z" style="fill: rgb(147, 149, 152);"/>
        <path class="cls-2" d="M486,373.7l-18.87,33.06v20.15h-7.51V406.76l-19-33.06h8.66l14.14,25.74L477.5,373.7Z" style="fill: rgb(147, 149, 152);"/>
      </g>
      <g>
        <path class="cls-3" d="M147,458v53.2H131.07V481l-10.7,30.19H106.56L95.86,481v30.19H79.77V458H99.46l14.21,34.56L127.48,458Z" style="fill: rgb(69, 69, 69);"/>
        <path class="cls-3" d="M250.26,502.3h-20.5l-3.19,8.91H209.66L230.82,458h18.55l21.07,53.2h-17Zm-4-11.17-6.21-17.35-6.29,17.35Z" style="fill: rgb(69, 69, 69);"/>
        <path class="cls-3" d="M373.7,503.89a16.48,16.48,0,0,1-7.18,5.73,27.75,27.75,0,0,1-11.36,2.12q-10.05,0-16.54-4.46a15.88,15.88,0,0,1-7.07-12.67h17.07a5.82,5.82,0,0,0,1.88,4.15,6.1,6.1,0,0,0,4,1.35,5,5,0,0,0,3.31-1,3.43,3.43,0,0,0,1.18-2.79,4.09,4.09,0,0,0-2.37-3.73,42,42,0,0,0-7.52-2.91,76.61,76.61,0,0,1-9-3.4,16.49,16.49,0,0,1-6.13-5,15,15,0,0,1,.2-17.09,17.13,17.13,0,0,1,7.6-5.43A30.47,30.47,0,0,1,352.71,457q10,0,15.89,4.34a15.73,15.73,0,0,1,6.49,12.19H357.86a5.78,5.78,0,0,0-1.68-3.7,5.1,5.1,0,0,0-3.55-1.21,4.33,4.33,0,0,0-2.94.91,3.36,3.36,0,0,0-1.07,2.71,3.94,3.94,0,0,0,2.33,3.55,43.51,43.51,0,0,0,7.31,2.87,76.21,76.21,0,0,1,9.07,3.54,17.6,17.6,0,0,1,6.21,5.06,13.5,13.5,0,0,1,2.62,8.6A14.08,14.08,0,0,1,373.7,503.89Z" style="fill: rgb(69, 69, 69);"/>
        <path class="cls-3" d="M481.7,503.89a16.48,16.48,0,0,1-7.18,5.73,27.75,27.75,0,0,1-11.36,2.12q-10.05,0-16.54-4.46a15.88,15.88,0,0,1-7.07-12.67h17.07a5.82,5.82,0,0,0,1.88,4.15,6.1,6.1,0,0,0,4,1.35,5,5,0,0,0,3.31-1,3.43,3.43,0,0,0,1.18-2.79,4.09,4.09,0,0,0-2.37-3.73,42,42,0,0,0-7.52-2.91,76.61,76.61,0,0,1-9-3.4,16.49,16.49,0,0,1-6.13-5,15,15,0,0,1,.2-17.09,17.13,17.13,0,0,1,7.6-5.43A30.47,30.47,0,0,1,460.71,457q10,0,15.89,4.34a15.73,15.73,0,0,1,6.49,12.19H465.86a5.78,5.78,0,0,0-1.68-3.7,5.1,5.1,0,0,0-3.55-1.21,4.33,4.33,0,0,0-2.94.91,3.36,3.36,0,0,0-1.07,2.71,3.94,3.94,0,0,0,2.33,3.55,43.51,43.51,0,0,0,7.31,2.87,76.21,76.21,0,0,1,9.07,3.54,17.6,17.6,0,0,1,6.21,5.06,13.5,13.5,0,0,1,2.62,8.6A14.08,14.08,0,0,1,481.7,503.89Z" style="fill: rgb(69, 69, 69);"/>
      </g>
      <rect class="cls-4" x="26.01" y="373.38" width="8.13" height="137.83" style="fill: rgb(70, 70, 70);"/>
    </g>
  </g>
</svg>